<?xml version="1.0" encoding="UTF-8" standalone="no"?>
<!-- Created with Inkscape (http://www.inkscape.org/) -->

<svg
   width="10.16mm"
   height="128.5mm"
   viewBox="0 0 10.16 128.5"
   version="1.1"
   id="svg4352"
   inkscape:version="1.2.2 (b0a8486541, 2022-12-01)"
   sodipodi:docname="SL.svg"
   xmlns:inkscape="http://www.inkscape.org/namespaces/inkscape"
   xmlns:sodipodi="http://sodipodi.sourceforge.net/DTD/sodipodi-0.dtd"
   xmlns="http://www.w3.org/2000/svg"
   xmlns:svg="http://www.w3.org/2000/svg"
   xmlns:rdf="http://www.w3.org/1999/02/22-rdf-syntax-ns#"
   xmlns:cc="http://creativecommons.org/ns#"
   xmlns:dc="http://purl.org/dc/elements/1.1/">
  <defs
     id="defs4346">
    <clipPath
       id="clip89">
      <rect
         y="0"
         x="0"
         width="18"
         height="19"
         id="rect4864" />
    </clipPath>
    <clipPath
       id="clip90">
      <path
         inkscape:connector-curvature="0"
         d="m 0.898438,0.128906 h 16.25 v 17.882813 h -16.25 z m 0,0"
         id="path4861" />
    </clipPath>
    <mask
       id="mask44">
      <g
         style="filter:url(#alpha)"
         id="g4858"
         transform="matrix(0.26458333,0,0,0.26458333,89.358789,128.57765)">
        <rect
           x="0"
           y="0"
           width="3052.8701"
           height="3351.5"
           style="fill:#000000;fill-opacity:0.14999402;stroke:none"
           id="rect4856" />
      </g>
    </mask>
    <filter
       id="alpha"
       filterUnits="objectBoundingBox"
       x="0"
       y="0"
       width="1"
       height="1">
      <feColorMatrix
         type="matrix"
         in="SourceGraphic"
         values="0 0 0 0 1 0 0 0 0 1 0 0 0 0 1 0 0 0 1 0"
         id="feColorMatrix4149" />
    </filter>
    <clipPath
       id="clipPath17821">
      <rect
         y="0"
         x="0"
         width="18"
         height="19"
         id="rect17819" />
    </clipPath>
    <clipPath
       id="clipPath17825">
      <path
         inkscape:connector-curvature="0"
         d="m 0.898438,0.128906 h 16.25 v 17.882813 h -16.25 z m 0,0"
         id="path17823" />
    </clipPath>
    <clipPath
       id="clip87">
      <rect
         y="0"
         x="0"
         width="24"
         height="26"
         id="rect4848" />
    </clipPath>
    <clipPath
       id="clip88">
      <path
         inkscape:connector-curvature="0"
         d="m 0.683594,0.921875 h 22.679687 v 24.9375 H 0.683594 Z m 0,0"
         id="path4845" />
    </clipPath>
    <mask
       id="mask43">
      <g
         style="filter:url(#alpha)"
         id="g4842"
         transform="matrix(0.26458333,0,0,0.26458333,89.358789,128.57765)">
        <rect
           x="0"
           y="0"
           width="3052.8701"
           height="3351.5"
           style="fill:#000000;fill-opacity:0.14999402;stroke:none"
           id="rect4840" />
      </g>
    </mask>
    <filter
       id="filter17836"
       filterUnits="objectBoundingBox"
       x="0"
       y="0"
       width="1"
       height="1">
      <feColorMatrix
         type="matrix"
         in="SourceGraphic"
         values="0 0 0 0 1 0 0 0 0 1 0 0 0 0 1 0 0 0 1 0"
         id="feColorMatrix17834" />
    </filter>
    <clipPath
       id="clipPath17840">
      <rect
         y="0"
         x="0"
         width="24"
         height="26"
         id="rect17838" />
    </clipPath>
    <clipPath
       id="clipPath17844">
      <path
         inkscape:connector-curvature="0"
         d="m 0.683594,0.921875 h 22.679687 v 24.9375 H 0.683594 Z m 0,0"
         id="path17842" />
    </clipPath>
    <linearGradient
       id="linearGradient11310"
       inkscape:swatch="solid">
      <stop
         style="stop-color:#d8d8d8;stop-opacity:1;"
         offset="0"
         id="stop11308" />
    </linearGradient>
    <clipPath
       id="clip89-7">
      <rect
         y="0"
         x="0"
         width="18"
         height="19"
         id="rect4864-7" />
    </clipPath>
    <clipPath
       id="clip90-5">
      <path
         inkscape:connector-curvature="0"
         d="m 0.898438,0.128906 h 16.25 v 17.882813 h -16.25 z m 0,0"
         id="path4861-4" />
    </clipPath>
    <mask
       id="mask44-8">
      <g
         style="filter:url(#alpha-8)"
         id="g4858-1"
         transform="matrix(0.26458333,0,0,0.26458333,89.358789,128.57765)">
        <rect
           x="0"
           y="0"
           width="3052.8701"
           height="3351.5"
           style="fill:#000000;fill-opacity:0.14999402;stroke:none"
           id="rect4856-2" />
      </g>
    </mask>
    <filter
       id="alpha-8"
       filterUnits="objectBoundingBox"
       x="0"
       y="0"
       width="1"
       height="1">
      <feColorMatrix
         type="matrix"
         in="SourceGraphic"
         values="0 0 0 0 1 0 0 0 0 1 0 0 0 0 1 0 0 0 1 0"
         id="feColorMatrix4149-9" />
    </filter>
    <clipPath
       id="clipPath17821-3">
      <rect
         y="0"
         x="0"
         width="18"
         height="19"
         id="rect17819-6" />
    </clipPath>
    <clipPath
       id="clipPath17825-8">
      <path
         inkscape:connector-curvature="0"
         d="m 0.898438,0.128906 h 16.25 v 17.882813 h -16.25 z m 0,0"
         id="path17823-0" />
    </clipPath>
    <clipPath
       id="clip87-2">
      <rect
         y="0"
         x="0"
         width="24"
         height="26"
         id="rect4848-1" />
    </clipPath>
    <clipPath
       id="clip88-0">
      <path
         inkscape:connector-curvature="0"
         d="m 0.683594,0.921875 h 22.679687 v 24.9375 H 0.683594 Z m 0,0"
         id="path4845-5" />
    </clipPath>
    <mask
       id="mask43-1">
      <g
         style="filter:url(#alpha-8)"
         id="g4842-1"
         transform="matrix(0.26458333,0,0,0.26458333,89.358789,128.57765)">
        <rect
           x="0"
           y="0"
           width="3052.8701"
           height="3351.5"
           style="fill:#000000;fill-opacity:0.14999402;stroke:none"
           id="rect4840-0" />
      </g>
    </mask>
    <filter
       id="filter17836-8"
       filterUnits="objectBoundingBox"
       x="0"
       y="0"
       width="1"
       height="1">
      <feColorMatrix
         type="matrix"
         in="SourceGraphic"
         values="0 0 0 0 1 0 0 0 0 1 0 0 0 0 1 0 0 0 1 0"
         id="feColorMatrix17834-5" />
    </filter>
    <clipPath
       id="clipPath17840-0">
      <rect
         y="0"
         x="0"
         width="24"
         height="26"
         id="rect17838-6" />
    </clipPath>
    <clipPath
       id="clipPath17844-4">
      <path
         inkscape:connector-curvature="0"
         d="m 0.683594,0.921875 h 22.679687 v 24.9375 H 0.683594 Z m 0,0"
         id="path17842-6" />
    </clipPath>
  </defs>
  <sodipodi:namedview
     id="base"
     pagecolor="#ffffff"
     bordercolor="#666666"
     borderopacity="1.0"
     inkscape:pageopacity="0.0"
     inkscape:pageshadow="2"
     inkscape:zoom="1.4142136"
     inkscape:cx="-225.56706"
     inkscape:cy="276.12519"
     inkscape:document-units="mm"
     inkscape:current-layer="layer1"
     showgrid="false"
     inkscape:snap-bbox="false"
     inkscape:snap-nodes="false"
     inkscape:snap-bbox-midpoints="true"
     inkscape:snap-others="false"
     inkscape:snap-page="true"
     inkscape:window-width="1920"
     inkscape:window-height="1011"
     inkscape:window-x="0"
     inkscape:window-y="32"
     inkscape:window-maximized="1"
     inkscape:bbox-nodes="false"
     inkscape:snap-grids="false"
     inkscape:snap-global="false"
     inkscape:pagecheckerboard="0"
     showguides="false"
     inkscape:showpageshadow="2"
     inkscape:deskcolor="#d1d1d1" />
  <metadata
     id="metadata4349">
    <rdf:RDF>
      <cc:Work
         rdf:about="">
        <dc:format>image/svg+xml</dc:format>
        <dc:type
           rdf:resource="http://purl.org/dc/dcmitype/StillImage" />
      </cc:Work>
    </rdf:RDF>
  </metadata>
  <g
     inkscape:label="Layer 1"
     inkscape:groupmode="layer"
     id="layer1"
     transform="translate(0,-168.5)">
    <path
       inkscape:connector-curvature="0"
       style="fill:#000000;fill-opacity:1;fill-rule:nonzero;stroke:none;stroke-width:0.289658"
       d="M 10.173126,168.59302 H 0.0253395 V 296.90629 H 10.173126 Z m 0,0"
       id="path30841"
       sodipodi:insensitive="true" />
    <g
       aria-label="Time"
       id="text716"
       style="font-weight:bold;font-size:3.175px;font-family:FreeMono;-inkscape-font-specification:'FreeMono, Bold';fill:#ffffff;stroke-width:0.171;stroke-linecap:round;stroke-linejoin:round"
       transform="translate(0,3)">
      <path
         d="m 2.7004681,175.71891 q 0.20955,0 0.20955,0.15875 0,0.15875 -0.20955,0.15875 h -0.733425 q -0.20955,0 -0.20955,-0.15875 0,-0.0921 0.053975,-0.12383 0.053975,-0.0349 0.155575,-0.0349 h 0.206375 v -1.21603 h -0.339725 v 0.29528 q 0,0.20955 -0.15875,0.20955 -0.15875,0 -0.15875,-0.20955 v -0.61278 h 1.6383 v 0.61278 q 0,0.1016 -0.034925,0.15557 -0.03175,0.054 -0.123825,0.054 -0.15875,0 -0.15875,-0.20955 v -0.29528 h -0.346075 v 1.21603 z"
         id="path824" />
      <path
         d="m 4.7864443,175.71891 q 0.20955,0 0.20955,0.15875 0,0.15875 -0.20955,0.15875 h -1.0922 q -0.20955,0 -0.20955,-0.15875 0,-0.0921 0.053975,-0.12383 0.053975,-0.0349 0.155575,-0.0349 h 0.38735 v -0.75248 h -0.24765 q -0.212725,0 -0.212725,-0.15875 0,-0.0952 0.053975,-0.127 0.05715,-0.0317 0.15875,-0.0317 h 0.56515 v 1.06998 z m -0.4318,-1.66053 v 0.33338 h -0.37465 v -0.33338 z"
         id="path826" />
      <path
         d="m 5.3452455,176.03641 q -0.1524,0 -0.1524,-0.15875 0,-0.15875 0.130175,-0.15875 v -0.75248 q -0.127,0 -0.127,-0.15875 0,-0.15875 0.149225,-0.15875 h 0.295275 v 0.0762 q 0.0889,-0.0699 0.136525,-0.0921 0.047625,-0.0254 0.117475,-0.0254 0.180975,0 0.3238499,0.15557 0.142875,-0.15557 0.314325,-0.15557 0.1778,0 0.295275,0.12065 0.12065,0.11747 0.12065,0.29527 v 0.69533 q 0.05715,0 0.1016,0.0445 0.047625,0.0413 0.047625,0.1143 0,0.073 -0.0508,0.11747 -0.0508,0.0413 -0.117475,0.0413 h -0.29845 v -0.98743 q 0,-0.12382 -0.111125,-0.12382 -0.060325,0 -0.1016,0.0286 -0.0381,0.0254 -0.123825,0.1143 v 0.65088 q 0.174625,0 0.174625,0.15875 0,0.15875 -0.193675,0.15875 H 5.9770705 v -0.98743 q 0,-0.12382 -0.111125,-0.12382 -0.0635,0 -0.10795,0.0286 -0.04445,0.0286 -0.117475,0.1143 v 0.65088 q 0.073025,0 0.117475,0.0413 0.04445,0.0413 0.04445,0.11748 0,0.0762 -0.047625,0.11747 -0.047625,0.0413 -0.130175,0.0413 z"
         id="path828" />
      <path
         d="m 8.8440966,175.82368 q 0,0.073 -0.092075,0.13018 -0.0889,0.054 -0.2286,0.0825 -0.136525,0.0254 -0.26035,0.0381 -0.12065,0.0127 -0.22225,0.0127 -0.3683,0 -0.60325,-0.20638 -0.23495,-0.20637 -0.23495,-0.53022 0,-0.31433 0.23495,-0.52705 0.238125,-0.2159 0.5842,-0.2159 0.3556,0 0.587375,0.2159 0.23495,0.2159 0.23495,0.54292 v 0.12383 h -1.2954 q 0.10795,0.2794 0.5207,0.2794 0.2032,0 0.3937,-0.0508 0.193675,-0.054 0.2286,-0.054 0.0635,0 0.10795,0.0476 0.04445,0.0445 0.04445,0.11112 z m -1.285875,-0.61277 h 0.93345 q -0.0381,-0.13018 -0.1651,-0.20638 -0.127,-0.0794 -0.301625,-0.0794 -0.174625,0 -0.3048,0.0794 -0.127,0.0794 -0.161925,0.20638 z"
         id="path830" />
    </g>
    <g
       aria-label="RTO"
       id="text1892"
       style="font-weight:bold;font-size:3.175px;font-family:FreeMono;-inkscape-font-specification:'FreeMono, Bold';fill:#ffffff;stroke-width:0.171;stroke-linecap:round;stroke-linejoin:round">
      <path
         d="m 3.9931422,213.07834 q 0,0.0762 -0.047625,0.11748 -0.047625,0.0413 -0.127,0.0413 h -0.250825 q -0.117475,-0.2286 -0.301625,-0.44767 -0.180975,-0.22225 -0.282575,-0.25718 h -0.3048 v 0.38735 h 0.111125 q 0.09525,0 0.1524,0.0445 0.05715,0.0413 0.05715,0.1143 0,0.0762 -0.05715,0.11748 -0.05715,0.0413 -0.1524,0.0413 h -0.47625 q -0.20955,0 -0.20955,-0.15875 0,-0.15875 0.20955,-0.15875 h 0.047625 v -1.21602 h -0.047625 q -0.20955,0 -0.20955,-0.15875 0,-0.0921 0.053975,-0.12383 0.053975,-0.0349 0.155575,-0.0349 h 0.708025 q 0.307975,0 0.50165,0.15875 0.19685,0.15557 0.19685,0.4064 0,0.2921 -0.3429,0.47942 0.206375,0.18098 0.40005,0.48895 0.111125,0 0.161925,0.0349 0.053975,0.0349 0.053975,0.12382 z m -1.31445,-0.8636 h 0.2413 q 0.200025,0 0.3302,-0.0762 0.13335,-0.0794 0.13335,-0.19685 0,-0.1016 -0.098425,-0.16827 -0.098425,-0.0698 -0.250825,-0.0698 h -0.3556 z"
         id="path1952" />
      <path
         d="m 5.3171183,212.91959 q 0.20955,0 0.20955,0.15875 0,0.15875 -0.20955,0.15875 H 4.5836934 q -0.20955,0 -0.20955,-0.15875 0,-0.0921 0.053975,-0.12382 0.053975,-0.0349 0.155575,-0.0349 h 0.2063749 v -1.21602 H 4.4503434 v 0.29527 q 0,0.20955 -0.15875,0.20955 -0.15875,0 -0.15875,-0.20955 v -0.61277 h 1.6382999 v 0.61277 q 0,0.1016 -0.034925,0.15558 -0.03175,0.054 -0.123825,0.054 -0.15875,0 -0.15875,-0.20955 v -0.29527 h -0.346075 v 1.21602 z"
         id="path1954" />
      <path
         d="m 6.8569945,211.34162 q 0.06985,0 0.1651,0.0222 0.09525,0.019 0.225425,0.0857 0.13335,0.0667 0.238125,0.16827 0.10795,0.1016 0.180975,0.28893 0.0762,0.18415 0.0762,0.4191 0,0.39052 -0.263525,0.6731 -0.26035,0.28257 -0.6223,0.28257 -0.3683,0 -0.62865,-0.28257 -0.257175,-0.28575 -0.257175,-0.68898 0,-0.40005 0.26035,-0.68262 0.26035,-0.28575 0.625475,-0.28575 z m 0,0.3175 q -0.231775,0 -0.40005,0.19367 -0.168275,0.1905 -0.168275,0.4572 0,0.26988 0.1651,0.46355 0.168275,0.1905 0.403225,0.1905 0.231775,0 0.40005,-0.1905 0.168275,-0.1905 0.168275,-0.45402 0,-0.27305 -0.168275,-0.46673 -0.1651,-0.19367 -0.40005,-0.19367 z"
         id="path1956" />
    </g>
    <path
       inkscape:connector-curvature="0"
       style="fill:#ababab;fill-opacity:1;fill-rule:nonzero;stroke:none;stroke-width:0.288589"
       d="M 10.198466,168.5 H 0 V 296.99931 H 10.198466 Z M 10.073954,296.81328 H 0.12451149 V 168.68741 H 10.073954 Z m 0,0"
       id="path30843"
       sodipodi:insensitive="true" />
    <g
       aria-label="docB"
       inkscape:transform-center-x="-0.18898811"
       inkscape:transform-center-y="1.3229168"
       style="font-style:normal;font-variant:normal;font-weight:normal;font-stretch:normal;font-size:2.82222px;line-height:1.25;font-family:Chalkduster;-inkscape-font-specification:'Chalkduster, Normal';font-variant-ligatures:normal;font-variant-caps:normal;font-variant-numeric:normal;font-feature-settings:normal;text-align:start;letter-spacing:0px;word-spacing:0px;writing-mode:lr-tb;text-anchor:start;fill:#000000;fill-opacity:1;stroke:none;stroke-width:0.264583"
       id="text1992"
       transform="translate(-1.8315007,4.66583)">
      <path
         d="m 5.4781167,289.65322 q 0,0.003 0.00312,0.009 0.00624,0.003 0.00936,0.006 h 0.00624 q 0.018711,0 0.021829,-0.0218 0.00624,-0.0218 0.00624,-0.0374 0.00936,0.0312 0.00936,0.053 0,0.0218 0,0.0468 0,0.0218 0.00312,0.0561 0.00312,0.0312 0.018711,0.0873 -0.018711,-0.006 -0.021829,0.0156 0,0.0187 0.00624,0.0468 0.00624,0.0281 0.012474,0.0561 0.00936,0.0281 0.00936,0.0374 v 0.0125 q 0.00312,0.0125 0.00936,0.0374 0.00936,0.0218 0.018711,0.0468 0.00936,0.025 0.015592,0.0468 0.00936,0.0218 0.012474,0.0281 0.00936,0.0187 0.04054,0.0686 0.034303,0.0499 0.074844,0.10603 0.04054,0.053 0.08108,0.0967 0.04054,0.0405 0.065488,0.0405 h 0.00624 q 0.00624,-0.003 0.021829,-0.0156 0.015592,-0.0125 0.021829,-0.0125 h 0.00624 q 0.00312,0 0.00312,0 0.00312,-0.003 0.00936,-0.003 0,0 0.00624,0.003 h 0.00624 q 0.00312,0 0.00624,0.0125 0.00312,0.0125 0.00624,0.0156 0.012474,0.006 0.021829,0 0.012474,-0.009 0.018711,0.0125 v 0.0218 0.0187 q 0.00312,0.006 0.018711,0.009 0.018711,0.003 0.024948,0.006 v 0.0125 q -0.00312,0.003 -0.015592,0.0156 -0.012474,0.0125 -0.012474,0.0156 -0.00312,0.006 0,0.0437 0.00312,0.0343 0,0.0405 -0.00312,0.006 -0.021829,0.0218 -0.018711,0.0156 -0.018711,0.0218 -0.00312,0.006 -0.00936,0.0249 -0.00312,0.0156 -0.00312,0.0218 -0.018711,0 -0.034303,-0.0156 -0.015592,-0.0187 -0.034303,-0.0187 -0.00312,0 -0.00624,0.003 -0.00312,0.003 -0.00936,0.0187 -0.00312,0.0187 -0.00624,0.0218 h -0.012512 q -0.00312,-0.003 -0.021829,-0.0218 -0.015592,-0.0187 -0.018711,-0.0187 -0.024948,-0.009 -0.053014,-0.006 -0.024948,0 -0.049896,-0.003 -0.021829,-0.006 -0.037422,-0.0249 -0.012474,-0.0187 -0.015592,-0.0655 -0.00624,0 -0.018711,0.006 -0.00936,0.006 -0.012474,0.006 -0.00312,0 -0.00312,0.003 0,-0.0686 -0.018711,-0.0811 -0.018711,-0.0156 -0.04054,-0.0156 -0.021829,0 -0.04054,-0.003 -0.018711,-0.003 -0.018711,-0.0561 -0.024948,0 -0.024948,-0.003 0.00312,-0.003 -0.021829,0.0156 v -0.0748 q 0,-0.003 -0.00624,-0.006 -0.00624,-0.006 -0.00936,-0.006 l -0.028066,0.0593 q -0.00312,-0.006 -0.00936,-0.0281 -0.00312,-0.0249 -0.00312,-0.0312 v -0.0125 q -0.00312,0 -0.00936,0 -0.00312,-0.003 -0.00624,-0.003 l -0.043659,0.0156 v -0.0156 q 0,-0.0156 0.00624,-0.0218 0.00624,-0.009 0.00624,-0.0249 0,-0.0218 -0.028066,-0.053 -0.024948,-0.0312 -0.04054,-0.0405 -0.00624,0.0187 -0.024948,0.0437 -0.018711,0.0218 -0.034303,0.0281 -0.00312,0 -0.021829,0.006 -0.015592,0.003 -0.037422,0.009 -0.021829,0.003 -0.043659,0.009 -0.018711,0.003 -0.024948,0.003 -0.015592,0.003 -0.021829,0.0156 -0.00312,0.009 -0.00936,0.0218 -0.00624,0.0125 -0.015592,0.0218 -0.00936,0.009 -0.034303,0.009 -0.015592,0 -0.015592,-0.0125 -0.015592,0.0249 -0.012474,0.0312 0.00312,0.003 0.00312,0.0281 h 0.015592 q 0,0.0125 -0.028066,0.0312 -0.024948,0.0187 -0.059251,0.0374 -0.034303,0.0187 -0.068606,0.0312 -0.034303,0.0125 -0.049896,0.0125 -0.00624,0 -0.015592,-0.003 -0.00936,-0.006 -0.012474,-0.009 0,0.006 -0.00624,0.0218 -0.00312,0.0125 -0.00624,0.0187 l -0.00624,0.003 -0.00936,-0.003 q -0.00312,0 -0.015592,-0.003 -0.012474,-0.006 -0.018711,-0.009 v 0.0561 h -0.00624 q -0.012474,0 -0.015592,-0.003 -0.018711,-0.003 -0.04054,-0.009 -0.018711,-0.006 -0.018711,-0.0312 0,-0.0156 0.00936,-0.0218 0.00936,-0.006 0.00936,-0.0249 0,-0.0156 -0.00312,-0.0281 -0.00312,-0.0125 -0.018711,-0.0125 -0.018711,0 -0.028066,0.0218 -0.00624,0.0187 -0.00936,0.0437 -0.00312,0.0218 -0.00312,0.0468 0,0.0218 0,0.0249 -0.00936,0 -0.028066,0 -0.018711,0 -0.04054,0.003 -0.021829,0 -0.04054,0.003 -0.018711,0 -0.028066,0 -0.00624,0 -0.018711,0.006 -0.00936,0.003 -0.012474,0.006 0.012474,-0.0343 -0.012474,-0.078 -0.021829,-0.0437 -0.053014,-0.0437 0,0.0468 0.018711,0.0811 0.021829,0.0343 0.021829,0.078 0,0.003 -0.00312,0.0125 0,0.006 0,0.009 -0.034303,-0.0437 -0.053014,-0.0561 -0.018711,-0.0125 -0.043659,-0.0561 0,-0.003 -0.00624,-0.006 -0.00624,-0.006 -0.00936,-0.009 h -0.00936 q -0.00936,0 -0.015592,0.0125 -0.00312,0.009 -0.00624,0.0218 -0.00312,0.0125 -0.00312,0.0249 0,0.0125 0,0.0156 -0.031185,0 -0.04054,-0.0187 -0.00624,-0.0187 -0.012474,-0.0374 -0.00312,-0.0218 -0.015592,-0.0343 -0.00936,-0.0125 -0.04054,0.003 -0.00936,0.0218 -0.015592,0.0468 -0.00624,0.0249 -0.012474,0.0499 h -0.012474 q -0.00624,-0.006 -0.021829,-0.0312 -0.012474,-0.025 -0.028066,-0.025 h -0.00624 q -0.00312,0.006 -0.00936,0.0218 -0.00312,0.0125 -0.00312,0.0187 -0.034303,-0.003 -0.068606,-0.0437 -0.034303,-0.0437 -0.034303,-0.078 0.015592,0 0.028066,-0.006 0.015592,-0.006 0.015592,-0.0249 0,-0.0343 -0.021829,-0.0624 -0.018711,-0.0312 -0.018711,-0.0593 0,-0.0156 0.00624,-0.0249 0.00624,-0.009 0.00624,-0.0249 0,-0.0281 -0.028066,-0.0281 -0.018711,0 -0.024948,0.0156 -0.00624,0.0156 -0.024948,0.0156 -0.00312,0 -0.00624,0 0,-0.003 -0.00312,-0.003 -0.021829,-0.053 -0.031185,-0.0967 -0.00936,-0.0437 -0.00936,-0.0967 0,-0.0561 0.00312,-0.0904 0.00312,-0.0374 0.024948,-0.0998 0.00312,-0.0125 0.012474,-0.0125 0.00936,-0.003 0.018711,-0.003 0.00936,0 0.015592,-0.003 0.00936,-0.003 0.00936,-0.0218 h -0.031185 q 0,-0.0374 0.012474,-0.0468 0.015592,-0.0125 0.031185,-0.0187 0.015592,-0.006 0.028066,-0.0156 0.015592,-0.009 0.015592,-0.0405 v -0.006 q 0,-0.003 -0.00624,-0.006 -0.00312,-0.006 -0.00624,-0.009 0.012474,-0.0249 0.021829,-0.053 0.012474,-0.0281 0.024948,-0.053 0.012474,-0.0249 0.031185,-0.0468 0.018711,-0.0218 0.049896,-0.0312 0.00312,-0.003 0.018711,0 0.018711,0 0.021829,0 0.012474,-0.009 0.015592,-0.0218 0.00312,-0.0156 0.00624,-0.0281 0.00624,-0.0156 0.021829,-0.0249 0.015592,-0.0125 0.049896,-0.0125 0.00312,0 0.00624,0.003 0.00312,0 0.00624,0.006 0.00624,0.006 0.00936,0.006 l 0.00624,0.003 q 0.00312,0 0.00624,-0.003 0.00312,0 0.00624,-0.006 0.00624,-0.006 0.00936,-0.006 l 0.00624,-0.003 q 0.015592,0 0.021829,0.009 0.00624,0.009 0.031185,0.009 0.031185,0 0.043659,-0.0281 0.015592,-0.0312 0.031185,-0.0312 l 0.00624,0.003 q 0.00312,0 0.012474,0.006 0.012474,0.006 0.015592,0.006 0.00312,0 0.015592,-0.006 0.012474,-0.006 0.015592,-0.006 h 0.00312 q 0.00312,0 0.00312,0 0,-0.003 0.00312,-0.003 l 0.00312,0.003 0.028066,0.0686 q 0.031185,0 0.031185,-0.0281 0,-0.0249 -0.018711,-0.0374 -0.018711,-0.0125 -0.018711,-0.0468 0.024948,0 0.04054,-0.009 0.015592,-0.009 0.04054,-0.009 0.034303,0 0.071725,0.0218 0.04054,0.0218 0.074843,0.0218 h 0.00624 q -0.012474,-0.0249 0,-0.0374 0.015592,-0.0156 0.037422,-0.0218 0.024948,-0.006 0.049896,-0.006 0.028066,-0.003 0.04054,-0.003 0.00624,0 0.015592,0.006 0.00936,0.003 0.012474,0.006 -0.00936,-0.0312 0.00312,-0.0343 0.015592,-0.006 0.031185,-0.006 0.034303,0 0.049896,0.0187 0.018711,0.0187 0.049896,0.0187 0,-0.0374 -0.00624,-0.0624 -0.00312,-0.0281 0.015592,-0.0624 0,-0.003 0.012474,-0.0125 0.012474,-0.009 0.015592,-0.0156 v -0.0125 q 0,-0.0405 -0.00936,-0.0717 -0.00624,-0.0343 -0.00624,-0.078 v -0.0936 l 0.015592,-0.0249 v -0.0156 l -0.015592,-0.0312 v -0.006 q 0,-0.0218 0.00624,-0.0499 0.00936,-0.0312 0.018711,-0.0593 0.00936,-0.0312 0.018711,-0.0593 0.00936,-0.0312 0.012474,-0.0499 0,-0.003 -0.00624,-0.0125 -0.00624,-0.0125 -0.00624,-0.0156 -0.00312,-0.009 -0.00312,-0.0187 v -0.0249 q 0,-0.0811 0.028066,-0.14657 0.031185,-0.0655 0.059251,-0.13721 0.024948,0.0312 0.056133,0.0437 0.00624,-0.0249 0.018711,-0.0468 0.015592,-0.025 0.046777,-0.025 h 0.00624 q 0.046777,0.0437 0.087317,0.0998 0.043659,0.053 0.068607,0.11539 l 0.015592,0.0561 q 0.00624,0.006 0.012474,0.0405 0.00936,0.0343 0.015592,0.0405 0.00312,0.003 -0.00936,0.0218 -0.00936,0.0187 -0.018711,0.0218 -0.034303,0.006 -0.031185,0.0312 0.00624,0.0218 0.021829,0.0593 0.015592,0.0343 0.028066,0.078 0.015592,0.0405 0.00624,0.0873 -0.00624,-0.006 -0.024948,-0.0125 -0.00624,-0.006 -0.012474,-0.0156 -0.00312,-0.0125 -0.00312,-0.0156 0,-0.003 0.00624,-0.0187 0.00624,-0.0187 0.00936,-0.0218 v -0.0156 q 0,-0.0156 -0.00624,-0.0281 -0.00624,-0.0156 -0.021829,-0.0156 -0.00936,0 -0.018711,0.0156 -0.00936,0.0156 -0.018711,0.0343 -0.00936,0.0187 -0.015592,0.0374 -0.00624,0.0187 -0.00624,0.0218 0,0.0218 0.021829,0.025 0.024948,0 0.037422,-0.003 l 0.012474,0.0842 -0.028066,0.0125 q 0.00624,0.006 0.015592,0.0249 0.00936,0.0156 0.012474,0.0218 0,0.003 0.00312,0.006 0.00312,0.003 0.00624,0.009 0.00312,0.006 0.00624,0.009 0,0.003 -0.00624,0.009 -0.00624,0.003 -0.00936,0.006 0,0 -0.00312,0.003 0,0.0281 -0.00624,0.0499 -0.00624,0.0187 -0.015592,0.0374 -0.00936,0.0156 -0.015592,0.0343 -0.00624,0.0156 -0.00624,0.0405 -0.021829,0 -0.043659,-0.009 -0.021829,-0.009 -0.021829,0.0281 0,0.0281 0.012474,0.0437 0.012474,0.0125 0.028066,0.0218 0.018711,0.009 0.034303,0.0187 0.018711,0.009 0.024948,0.0281 0,0.006 0.00312,0.0218 0.00624,0.0156 0.00936,0.0374 0.00624,0.0187 0.00936,0.0374 0.00312,0.0156 0.00624,0.0187 0,0.0125 0.012474,0.0125 0.012474,-0.003 0.021829,-0.0125 l 0.00936,0.0312 q -0.043659,0.003 -0.043659,0.053 z m -1.3503008,0.54885 q 0,0.0281 0.034303,0.0499 0.037422,0.0218 0.053014,0.0374 l 0.056133,0.0748 q 0.018711,0.0187 0.059251,0.0312 0.043659,0.009 0.068606,0.0218 0.00936,0 0.04054,0.003 0.034303,0 0.043659,0 0.056133,0 0.096673,-0.006 0.04054,-0.006 0.077962,-0.0187 0.04054,-0.0125 0.08108,-0.0312 0.043659,-0.0187 0.099791,-0.0437 0.012474,-0.006 0.034303,-0.0218 0.024948,-0.0156 0.049896,-0.0281 0.024948,-0.0156 0.043659,-0.025 0.021829,-0.0125 0.028066,-0.009 l 0.099791,-0.0998 h 0.037422 v 0.0717 h 0.037422 q 0,-0.003 -0.00312,-0.006 0,-0.006 0,-0.009 l -0.015592,-0.0312 v -0.006 q 0,-0.0125 0.00936,-0.0312 0.00936,-0.0187 0.024948,-0.0187 0,0 0.00624,0.003 h 0.00312 l 0.012474,0.0125 0.04054,0.0281 q 0.034303,-0.0156 0.034303,-0.0499 0,-0.0156 -0.024948,-0.0281 -0.021829,-0.0125 -0.034303,-0.0187 0.00312,-0.006 0.012474,-0.0218 0.012474,-0.0156 0.012474,-0.0218 v -0.009 q 0,-0.006 -0.00312,-0.0249 0,-0.0187 -0.00624,-0.0374 -0.00312,-0.0187 -0.012474,-0.0312 -0.00624,-0.0156 -0.018711,-0.0125 -0.00312,0 -0.012474,0.0156 -0.00936,0.0125 -0.015592,0.0156 h -0.028066 q -0.00312,-0.0218 -0.012474,-0.0624 -0.00936,-0.0405 -0.043659,-0.0405 -0.028066,0 -0.043659,0.0312 l -0.04054,-0.0561 q 0,-0.003 0.00312,-0.006 0.00624,-0.006 0.00936,-0.009 0.015592,-0.009 0.024948,-0.0125 0.00936,-0.006 0.012474,-0.0125 0.00624,-0.006 0.00624,-0.0156 0.00312,-0.0125 0.00312,-0.0374 -0.034303,0 -0.046777,0.0281 -0.00936,0.0249 -0.028066,0.0499 -0.00312,-0.0405 -0.021829,-0.0592 -0.015592,-0.0218 -0.034303,-0.0312 -0.018711,-0.0125 -0.034303,-0.0187 -0.012474,-0.006 -0.00936,-0.0218 -0.012474,0.0249 -0.012474,0.0312 0,0.003 0.00624,0.0156 0.00624,0.009 0.00624,0.0125 v 0.006 q 0,0.003 -0.00312,0.006 -0.018711,0 -0.04054,-0.006 -0.018711,-0.006 -0.04054,-0.006 h -0.015592 q -0.00312,0.003 -0.015592,0.009 -0.00936,0.006 -0.012474,0.006 l -0.028066,-0.0281 q 0,0 -0.00624,-0.003 l -0.00624,0.003 -0.059251,0.0281 q -0.053014,0.009 -0.1216206,0.0125 -0.065488,0.003 -0.1340945,0.0156 -0.068607,0.009 -0.1247392,0.0405 -0.056132,0.0281 -0.084199,0.0873 -0.00312,0.003 -0.00312,0.0218 0.00312,0.0187 0.00312,0.0218 -0.015592,0.0343 -0.046777,0.0624 -0.028066,0.0281 -0.028066,0.0717 0,0.0218 0.00624,0.0405 0.00936,0.0156 0.00936,0.0374 0,0.0187 -0.00936,0.0343 -0.00624,0.0125 -0.00624,0.0312 z m 1.5779497,0.43971 q 0,0.0281 0.021829,0.0405 0.024948,0.009 0.046777,0.009 0.021829,0 0.031185,-0.006 0.012474,-0.006 0.012474,-0.0312 0,-0.0218 -0.012474,-0.0343 -0.012474,-0.0125 -0.028066,-0.0187 -0.015592,-0.006 -0.034303,-0.0125 -0.015592,-0.009 -0.024948,-0.0281 -0.00312,0.006 -0.00936,0.0374 -0.00312,0.0281 -0.00312,0.0343 z M 5.291008,288.95156 q 0,0.0156 0.015592,0.0405 0.018711,0.0249 0.034303,0.0249 h 0.00624 q 0.00312,0 0.00312,-0.003 l 0.00624,-0.0125 q 0.00624,-0.0125 0.00624,-0.0125 v -0.0156 q 0,-0.006 -0.00624,-0.0343 -0.00624,-0.0312 -0.00624,-0.0374 -0.00312,0 -0.00624,0 0,-0.003 -0.00312,-0.003 l -0.00624,0.003 -0.04054,0.0405 z m -0.1434499,0.31497 q 0,0.009 0,0.0249 0.00312,0.0156 0.018711,0.0218 l 0.028066,-0.0281 q -0.00624,-0.0156 -0.021829,-0.0156 -0.015592,-0.003 -0.024948,-0.003 z m -0.4833641,0.3555 q 0,0.0343 0.034303,0.0343 0,-0.0343 -0.034303,-0.0343 z m 0.090436,0.0187 q 0.012474,-0.006 0.015592,-0.0187 0.00312,-0.0156 0.00312,-0.0249 H 4.754631 Z m 0.6954205,-0.0998 q -0.015592,0.006 -0.018711,0.0187 0,0.0125 0,0.0218 h 0.018711 z m -0.015592,0.76403 q -0.00936,0 -0.00936,0.0156 0,0.0156 0.00936,0.0156 0.012474,0 0.012474,-0.0156 0,-0.0156 -0.012474,-0.0156 z m 0.015592,-0.69542 q -0.012474,0 -0.012474,0.0156 0,0.0156 0.012474,0.0156 0.00936,0 0.00936,-0.0156 0,-0.0156 -0.00936,-0.0156 z m -0.5394966,-0.1684 q -0.012474,0 -0.012474,0.0156 0,0.0125 0.012474,0.0125 0.00936,0 0.00936,-0.0125 0,-0.0156 -0.00936,-0.0156 z m 0.04054,1.05093 q -0.00936,0 -0.00936,0.0156 0,0.0125 0.00936,0.0125 0.012474,0 0.012474,-0.0125 0,-0.0156 -0.012474,-0.0156 z m 0.2276488,-0.17152 q -0.00936,0 -0.00936,0.0156 0,0.0125 0.00936,0.0125 0.012474,0 0.012474,-0.0125 0,-0.0156 -0.012474,-0.0156 z m -1.2068508,-0.33991 h 0.015592 v -0.0281 h -0.015592 z m 0.9511357,-0.38357 q 0.018711,-0.009 0.018711,-0.0281 h -0.018711 z m -0.2120565,-0.0437 h 0.015592 v -0.0125 h -0.015592 z m 0.4677716,-0.14033 v -0.0281 l -0.012474,0.0125 z m 0.3118478,0.48024 h 0.012474 v -0.0125 h -0.012474 z m -1.5717127,0.35551 h 0.012474 v -0.0125 h -0.012474 z m 0.1559239,-0.49584 q 0,-0.006 -0.00936,-0.006 -0.00624,0 -0.00624,0.006 0.00624,0.0156 0.015592,0 z m 1.247391,-1.31912 q -0.00624,-0.003 -0.00624,0.006 0,0.009 0.00624,0.009 0.015592,-0.006 0,-0.0156 z m -0.2432412,1.80248 h 0.015592 l -0.015592,-0.0156 z m -0.2681891,0.28379 q -0.00624,-0.003 -0.00624,0.006 0,0.006 0.00624,0.006 0.00624,-0.003 0.00624,-0.006 0,-0.006 -0.00624,-0.006 z m 0.8669368,0.0842 v -0.0125 h -0.018711 z m -0.3835728,-1.19125 0.012474,-0.0156 h -0.012474 z m -1.2785758,1.23491 h 0.012474 l -0.012474,-0.0156 z m 0.7234868,-0.0748 v -0.0125 h -0.012474 z m 0.7858564,-0.97296 v 0.009 q -0.00312,-0.003 -0.00312,-0.009 z"
         style="font-style:normal;font-variant:normal;font-weight:normal;font-stretch:normal;font-size:2.82222px;font-family:Chalkduster;-inkscape-font-specification:'Chalkduster, Normal';font-variant-ligatures:normal;font-variant-caps:normal;font-variant-numeric:normal;font-feature-settings:normal;text-align:start;writing-mode:lr-tb;text-anchor:start;fill:#13ba65;fill-opacity:1;stroke-width:0.264583"
         id="path1994"
         inkscape:connector-curvature="0" />
      <path
         d="m 6.3779424,290.73845 q -0.00624,0 -0.024948,0.003 -0.015592,0 -0.021829,0 0,0.003 -0.00624,0.009 -0.00624,0.006 -0.00936,0.006 h -0.068607 l -0.012474,0.0281 q 0,-0.0499 -0.049896,-0.0624 -0.046777,-0.0125 -0.084199,-0.0125 -0.012474,0 -0.024948,0.003 -0.00936,0 -0.021829,0.0125 v -0.0936 l -0.00624,-0.006 q -0.00624,-0.006 -0.00624,-0.009 -0.00624,0 -0.021829,-0.006 -0.015592,-0.009 -0.034303,-0.0187 -0.018711,-0.009 -0.034303,-0.0187 -0.015592,-0.009 -0.018711,-0.0125 -0.021829,-0.009 -0.021829,-0.0312 0,-0.0249 -0.021829,-0.0374 -0.015592,0.003 -0.015592,0.0156 0,0.0125 0.00312,0.0281 0.00312,0.0156 0,0.0281 0,0.0125 -0.015592,0.0125 -0.00936,0 -0.04054,-0.009 -0.031185,-0.009 -0.031185,-0.0249 v -0.006 q 0.00624,-0.0125 0.018711,-0.0156 -0.00624,-0.006 -0.021829,-0.0156 -0.012474,-0.0125 -0.021829,-0.0125 -0.018711,0 -0.024948,0.009 -0.00312,0.009 -0.00624,0.0187 0,0.009 -0.00312,0.0187 -0.00312,0.009 -0.012474,0.009 -0.012474,0 -0.028066,-0.006 -0.012474,-0.006 -0.018711,-0.0218 0.015592,-0.003 0.015592,-0.0187 0,-0.0156 0,-0.0218 0,-0.0405 -0.024948,-0.0686 -0.024948,-0.0281 -0.049896,-0.0561 -0.00312,0 -0.00312,-0.003 -0.00312,-0.003 -0.00312,-0.009 0.034303,0 0.046777,-0.0281 0.012474,-0.0312 0.018711,-0.0593 0,-0.003 0,-0.0249 0,-0.0249 0,-0.053 0,-0.0281 0,-0.053 0,-0.0249 0,-0.0312 0,-0.0312 0.012474,-0.0561 0.015592,-0.0249 0.015592,-0.053 0,-0.003 -0.00312,-0.003 0,-0.003 0,-0.006 v -0.006 q 0,-0.003 -0.012474,-0.0187 -0.012474,-0.0187 -0.012474,-0.0218 l -0.00312,-0.003 v -0.006 l 0.00312,-0.003 q 0.012474,-0.0249 0.024948,-0.0624 0.012474,-0.0405 0.031185,-0.0655 0,-0.003 0.00312,-0.006 0,-0.003 0,-0.003 0.00312,0 0.00312,-0.003 0.04054,-0.0249 0.056133,-0.0592 0.015592,-0.0343 0.031185,-0.078 0.00312,0.0125 0.012474,0.0156 0.00936,0 0.015592,0 h 0.012474 l -0.034303,-0.0655 0.1465684,-0.0374 q 0,-0.0468 0.018711,-0.0624 0.021829,-0.0187 0.049896,-0.0249 0.028066,-0.006 0.059251,-0.0125 0.031185,-0.006 0.053014,-0.0343 h 0.1216369 v -0.0436 l -0.015592,0.003 q -0.00312,0 -0.012474,-0.006 -0.00936,-0.006 -0.012474,-0.009 l 0.012474,-0.0125 h 0.137213 l 0.015592,-0.0281 q -0.00624,0.0468 0,0.078 0.00624,0.0312 0.015592,0.0593 0.00936,0.0281 0.015592,0.0561 0.00936,0.0249 0.00936,0.0624 v 0.0218 l -0.096673,0.0842 -0.00624,0.003 q -0.015592,0 -0.015592,-0.0156 0,-0.0156 -0.024948,-0.0156 -0.037422,0 -0.04054,0.0218 -0.00312,0.0187 -0.00312,0.0499 -0.021829,0 -0.034303,0.009 -0.00936,0.006 -0.015592,0.0187 -0.00624,0.0125 -0.015592,0.0281 -0.00624,0.0125 -0.024948,0.0249 l -0.037422,0.009 q -0.00312,0.003 -0.018711,0.0312 -0.015592,0.0249 -0.021829,0.0374 -0.00936,0.0187 -0.024948,0.0218 -0.015592,0.003 -0.031185,0.006 -0.012474,0.003 -0.021829,0.009 -0.00936,0.003 -0.00936,0.0218 0,0.0187 0.00624,0.0374 0.00936,0.0187 0.00936,0.0437 0,0.0499 -0.015592,0.0655 -0.012474,0.0156 -0.04054,0.0437 v 0.009 q 0,0.0499 0.00624,0.0717 0.00936,0.0218 0.021829,0.0343 0.012474,0.009 0.028066,0.0187 0.015592,0.009 0.028066,0.0312 0.00936,0.0249 0.018711,0.0655 0.00936,0.0405 0.037422,0.0468 0.049896,0.0156 0.099791,0.0343 0.053014,0.0187 0.1060283,0.0343 0.077962,0.0218 0.1715162,0.0249 0.093554,0.003 0.1746348,0.003 0.04054,0 0.065488,-0.006 0.024948,-0.006 0.04054,-0.0187 0.015592,-0.0156 0.028066,-0.0374 0.012474,-0.0218 0.028066,-0.0499 0.021829,0.0343 0.024948,0.0312 0.00312,-0.003 0.028066,-0.003 0,-0.0156 0.00312,-0.0405 0.00312,-0.0281 0.00936,-0.053 0.00936,-0.0281 0.024948,-0.0468 0.018711,-0.0187 0.046777,-0.0187 0,0.025 0.012474,0.0312 0.012474,0.003 0.028066,0.003 0,-0.0405 0.00312,-0.0499 0.00312,-0.0125 -0.00936,-0.0468 h 0.00624 q 0.034303,0 0.049896,0.0156 0.015592,0.0156 0.021829,0.0343 0.00936,0.0187 0.015592,0.0343 0.00624,0.0156 0.021829,0.0156 l 0.00624,-0.003 q 0.00624,-0.0343 0.00936,-0.0561 0.00624,-0.0218 0.00624,-0.053 0,-0.0187 -0.00936,-0.0281 -0.00936,-0.0125 -0.018711,-0.0218 -0.00936,-0.009 -0.018711,-0.0187 -0.00936,-0.0125 -0.00936,-0.0281 0,-0.0125 0.015592,-0.0405 0.015592,-0.0281 0.015592,-0.053 0,-0.0343 -0.015592,-0.053 -0.015592,-0.0187 -0.043659,-0.0624 -0.00936,0.006 -0.028066,-0.006 -0.015592,-0.0156 -0.037422,-0.0343 -0.018711,-0.0218 -0.04054,-0.0405 -0.021829,-0.0218 -0.043659,-0.0281 -0.015592,-0.003 -0.059251,-0.006 -0.04054,-0.006 -0.087317,-0.0156 -0.046777,-0.009 -0.084199,-0.0218 -0.034303,-0.0156 -0.034303,-0.0374 v -0.11227 q 0,-0.006 -0.012474,-0.0156 -0.012474,-0.009 -0.018711,-0.0156 l -0.00624,0.006 q -0.00312,0.003 -0.00624,0.003 -0.00312,0 -0.00312,0.003 0,0.003 -0.00624,0.0156 -0.00624,0.0125 -0.00312,0.0187 0,0.003 0.012474,0.0187 0.012474,0.0156 0.012474,0.0218 0,0.003 -0.00936,0.0187 -0.00936,0.0156 -0.015592,0.0249 l -0.012474,0.0125 q 0.00312,-0.009 0,-0.0218 -0.00312,-0.0156 -0.018711,-0.0187 0,0.009 -0.00624,0.0281 -0.00624,0.0156 -0.015592,0.0249 -0.018711,-0.009 -0.031185,-0.0468 -0.012474,-0.0405 -0.018711,-0.0842 -0.00312,-0.0437 -0.00624,-0.0811 0,-0.0405 0,-0.0468 0.049896,0 0.059251,-0.0125 0.012474,-0.0125 0.037422,-0.0593 0.012474,0.006 0.012474,0.0218 0,0.0218 -0.00936,0.0405 -0.00624,0.0156 -0.00624,0.0343 0,0.0125 0.00312,0.0218 0.00624,0.009 0.024948,0.0156 0.021829,-0.0125 0.028066,-0.0312 0.00936,-0.0218 0.024948,-0.0374 0.00936,0.0156 0.012474,0.0249 0.00624,0.006 0.00624,0.0156 0,0.006 -0.00312,0.0156 0,0.006 0,0.0218 0.024948,0 0.034303,0 0.00936,-0.003 0.053014,-0.003 0,-0.0218 -0.00624,-0.0468 -0.00312,-0.0249 -0.037422,-0.0249 v -0.003 q 0.00936,0 0.021829,-0.003 0.00936,0 0.015592,0 0.00936,-0.003 0.015592,-0.003 h 0.012474 0.00312 q 0.00312,0.003 0.015592,0.0343 0.012474,0.0312 0.034303,0.0312 0.015592,0 0.018711,-0.0187 0.00624,-0.0187 0.012474,-0.0281 l 0.00936,-0.003 q 0.024948,0 0.04054,0.0218 0.015592,0.0187 0.021829,0.0374 l 0.04054,-0.0405 q 0.024948,0.0156 0.034303,0.0468 0.00936,0.0281 0.034303,0.0343 0.021829,0.009 0.059251,0.0249 0.04054,0.0125 0.077962,0.0343 0.04054,0.0218 0.068607,0.0499 0.031185,0.0249 0.031185,0.0592 v 0.22453 h 0.00936 l 0.087317,-0.0811 q -0.015592,-0.0125 -0.037422,-0.0437 -0.018711,-0.0343 -0.018711,-0.0499 v -0.009 q 0.00312,-0.006 0.00624,-0.0125 0.00624,-0.009 0.00936,-0.0156 0,0 0.00624,-0.003 0.00936,0 0.015592,0.0156 0.00936,0.0125 0.015592,0.0312 0.00936,0.0187 0.012474,0.0374 0.00312,0.0156 0.00312,0.0187 0,0.003 0.00312,0.003 h 0.00624 q 0.015592,0 0.018711,-0.0156 0.00312,-0.0156 0.00312,-0.0312 h 0.04054 q 0.012474,0.0624 0.024948,0.10603 0.015592,0.0405 0.015592,0.0967 0,0.0343 -0.00312,0.0561 -0.00312,0.0187 -0.012474,0.0343 -0.00624,0.0156 -0.018711,0.0343 -0.012474,0.0187 -0.034303,0.0468 0.00936,0.0156 0.024948,0.0187 0.018711,0.003 0.018711,0.0218 0,0.0187 -0.018711,0.0218 -0.018711,0.003 -0.043659,0.009 -0.021829,0.003 -0.04054,0.0187 -0.018711,0.0156 -0.018711,0.0561 0,0.0125 0.00624,0.0156 0.00936,0.003 0.018711,0.006 0.012474,0 0.018711,0.003 0.00936,0.003 0.00936,0.0156 0,0.003 -0.00312,0.006 -0.031185,0.009 -0.046777,0.0125 -0.012474,0.003 -0.024948,0.003 -0.00936,0 -0.021829,0 -0.012474,-0.003 -0.04054,-0.003 0,0.009 0.00312,0.0468 0.00624,0.0374 0.00624,0.0499 0,0.003 -0.00936,0.0156 -0.00624,0.009 -0.00624,0.0125 -0.00312,0.003 -0.00624,0.0218 -0.00312,0.0156 -0.00624,0.0218 0,-0.0156 -0.012474,-0.0405 -0.012474,-0.0249 -0.028066,-0.0312 -0.018711,-0.006 -0.024948,0.006 -0.00312,0.009 -0.00312,0.0218 0,0.0218 0.015592,0.0374 0.015592,0.0125 0.015592,0.0312 0,0.0218 -0.012474,0.0343 -0.012474,0.0125 -0.028066,0.0218 -0.015592,0.006 -0.031185,0.0156 -0.012474,0.009 -0.015592,0.0281 l -0.028066,-0.0561 v 0.0873 q -0.00624,0 -0.012474,0.003 -0.012474,0.006 -0.015592,0.006 H 7.026587 v -0.0842 H 7.004758 q 0,0.009 -0.00936,0.0312 -0.00936,0.0218 -0.024948,0.0468 -0.012474,0.0249 -0.028066,0.0437 -0.015592,0.0187 -0.031185,0.0187 -0.021829,0 -0.031185,-0.0156 -0.00624,-0.0156 -0.012474,-0.0405 H 6.86442 q -0.028066,0 -0.04054,0.009 -0.012474,0.009 -0.021829,0.0218 -0.00936,0.0125 -0.018711,0.0281 -0.00936,0.0125 -0.024948,0.0249 h -0.00312 q -0.015592,0 -0.018711,-0.0218 -0.00312,-0.0218 -0.00936,-0.0468 -0.00312,-0.0249 -0.015592,-0.0468 -0.00936,-0.0218 -0.04054,-0.0218 0,0.0125 0.00312,0.0343 0.00312,0.0218 0.00312,0.0499 0.00312,0.0249 0,0.0499 -0.00312,0.0249 -0.015592,0.0437 -0.012474,0 -0.012474,-0.0125 0,-0.006 0.00312,-0.0249 0.00624,-0.0156 0.00936,-0.0218 v -0.003 -0.006 q -0.00624,-0.0187 -0.015592,-0.0499 -0.00936,-0.0343 -0.015592,-0.0343 h -0.00936 q -0.00312,0 -0.037422,0.0343 -0.031185,0.0312 -0.049896,0.0499 -0.00936,0.0218 -0.018711,0.0343 -0.018711,0.0343 -0.024948,0.0343 -0.018711,0 -0.024948,-0.0156 -0.00312,-0.0125 -0.00936,-0.0281 -0.00312,-0.0156 -0.018711,-0.0281 -0.015592,-0.0156 -0.059251,-0.0156 z m 0.3929282,-0.0125 q -0.00936,0 -0.00936,0.0156 0,0.0156 0.00936,0.0156 0.012474,0 0.012474,-0.0156 0,-0.0156 -0.012474,-0.0156 z m -0.3586249,-0.106 q -0.031185,0 -0.037422,0.0249 -0.00312,0.0249 -0.00312,0.0499 v 0.0156 q 0.031185,0 0.034303,-0.0343 0.00624,-0.0343 0.00624,-0.0561 z m 0.1091467,0.053 q 0,0.006 0.00624,0.009 0.00624,0.003 0.00624,0.009 h 0.012474 q 0.04054,0 0.065488,-0.0312 0.024948,-0.0343 0.024948,-0.0717 -0.034303,0 -0.074843,0.0187 -0.04054,0.0156 -0.04054,0.0624 z m -0.2463597,0 0.012474,-0.0125 -0.012474,-0.0125 q 0,0 -0.00624,-0.003 -0.00312,0 -0.00312,0.003 0,0 -0.00312,0 h -0.00312 z m -0.2214119,-0.0967 h 0.012474 l -0.012474,-0.0156 z m 1.1600736,-0.14969 q -0.00624,0 -0.00624,0.0125 0,0.009 0.00624,0.009 0.012474,0 0.012474,-0.009 0,-0.0125 -0.012474,-0.0125 z m -0.053014,0 h 0.043659 q -0.00624,-0.0156 -0.015592,-0.0156 -0.00936,-0.003 -0.015592,-0.003 -0.00312,0 -0.00312,0.003 0,0 -0.00312,0 h -0.00624 z m 0.077962,-0.29937 q 0,0.003 0.00312,0.006 0.00312,0.006 0.00624,0.009 0.00624,0.006 0.00936,0.006 v -0.006 -0.009 q -0.00312,0 -0.00624,-0.006 -0.00312,-0.006 -0.00936,-0.006 0,0 -0.00312,0.006 z m -0.1060283,-0.0343 0.012474,-0.0125 h -0.012474 z m 0.012474,-0.10914 q -0.00312,0.003 -0.00624,0.0187 -0.00312,0.0156 -0.00624,0.0218 l -0.00312,0.0218 q 0.015592,0 0.021829,-0.0187 0.00936,-0.0218 0.00936,-0.0312 0,-0.0125 -0.015592,-0.0125 z m -0.012474,-0.0281 q -0.012474,0 -0.012474,0.0156 0,0.0125 0.012474,0.0125 0.00936,0 0.00936,-0.0125 0,-0.0156 -0.00936,-0.0156 z m 0.096673,0 q -0.012474,0 -0.012474,0.0156 0,0.0125 0.012474,0.0125 0.00936,0 0.00936,-0.0125 0,-0.0156 -0.00936,-0.0156 z m 0.137213,0.0125 h 0.015592 v -0.0125 h -0.015592 z m -0.2494782,-0.0405 q -0.00936,0 -0.00936,0.0156 0,0.0125 0.00936,0.0125 0.012474,0 0.012474,-0.0125 0,-0.0156 -0.012474,-0.0156 z m 0.087317,-0.0125 h 0.00936 v -0.0125 h -0.00936 z m -1.4937508,-0.0437 q -0.00624,0 -0.00624,0.009 0,0.006 0.00624,0.003 0.00624,0 0.00624,-0.003 0,-0.006 -0.00624,-0.009 z m 1.4344997,-0.009 h 0.015592 v -0.0156 h -0.015592 z m -1.3658932,-0.053 q 0,0.0374 0.028066,0.0374 h 0.012474 q 0.021829,-0.0312 0.04054,-0.0655 0.018711,-0.0343 0.018711,-0.0717 -0.00624,0 -0.021829,0.0156 -0.015592,0.0156 -0.034303,0.0343 -0.015592,0.0187 -0.031185,0.0343 -0.012474,0.0156 -0.012474,0.0156 z m 1.4095519,-0.0624 q -0.012474,0 -0.012474,0.0156 0,0.0125 0.012474,0.0125 0.012474,0 0.012474,-0.0125 0,-0.0156 -0.012474,-0.0156 z m 0,-0.0405 q -0.012474,0 -0.012474,0.0125 0,0.0125 0.012474,0.0125 0.012474,0 0.012474,-0.0125 0,-0.0125 -0.012474,-0.0125 z m -0.6673542,-0.0811 h 0.021829 q 0,-0.0125 -0.00624,-0.0249 -0.00312,-0.0125 -0.015592,-0.0187 z m -0.028066,-0.0842 q 0,0.003 0.00624,0.0125 0.00624,0.009 0.012474,0.0156 v -0.0405 h -0.018711 z m -0.00936,-0.0312 0.00936,-0.0125 h -0.00936 z m -0.3305586,-0.0125 h 0.00936 v -0.0561 h -0.00936 z m 0.056133,0 h 0.024948 q 0,-0.009 -0.00624,-0.0187 -0.00312,-0.009 -0.012474,-0.009 h -0.00624 z"
         style="font-style:normal;font-variant:normal;font-weight:normal;font-stretch:normal;font-size:2.82222px;font-family:Chalkduster;-inkscape-font-specification:'Chalkduster, Normal';font-variant-ligatures:normal;font-variant-caps:normal;font-variant-numeric:normal;font-feature-settings:normal;text-align:start;writing-mode:lr-tb;text-anchor:start;fill:#fcde3f;fill-opacity:1;stroke-width:0.264583"
         id="path1996"
         inkscape:connector-curvature="0" />
      <path
         d="m 8.3102203,290.81641 q -0.00312,-0.006 -0.00624,-0.0312 -0.00312,-0.0218 -0.00624,-0.0281 -0.00312,-0.0125 -0.015592,-0.0125 -0.012474,-0.003 -0.024948,-0.006 -0.012474,-0.003 -0.021829,-0.006 -0.00936,-0.006 -0.00624,-0.0218 -0.015592,0.0156 -0.034303,0.0312 -0.018711,0.0125 -0.034303,0.0249 v -0.0405 q -0.015592,0 -0.028066,0.0125 -0.00936,0.0125 -0.015592,0.0281 -0.00624,0.0156 -0.012474,0.0281 -0.00312,0.0125 -0.00624,0.0125 -0.018711,0 -0.018711,-0.0281 0,-0.0218 0.00936,-0.0374 0.012474,-0.0156 0.012474,-0.0405 0,-0.0499 -0.04054,-0.0499 -0.00312,0 -0.00624,0.003 -0.00312,0 -0.012474,0.009 -0.00624,0.009 -0.00936,0.0125 -0.00624,0 -0.037422,0 -0.028066,-0.003 -0.034303,0 -0.00312,0 -0.012474,0.0125 -0.00624,0.009 -0.00936,0.0125 l -0.043659,0.0218 -0.015592,-0.0218 h -0.00936 q -0.00624,0 -0.012474,0 -0.00312,-0.003 -0.00624,-0.003 -0.021829,0 -0.037422,0.009 -0.015592,0.006 -0.037422,0.006 -0.015592,0 -0.021829,-0.006 -0.00312,-0.006 -0.021829,-0.006 h -0.012474 q -0.00624,0.003 -0.021829,0.0218 -0.012474,0.0156 -0.015592,0.0218 -0.00312,-0.003 -0.00936,-0.0156 -0.00312,-0.0125 -0.00312,-0.0187 0.00312,-0.003 0.012474,-0.0218 0.00936,-0.0187 0.00936,-0.0249 l 0.00312,-0.009 q 0,-0.0249 -0.018711,-0.0249 -0.015592,0 -0.018711,0.0156 0,0.0125 0,0.0249 -0.021829,0 -0.018711,-0.0281 0.00624,-0.0281 0,-0.0343 -0.00312,-0.003 -0.012474,-0.003 -0.00936,-0.003 -0.021829,-0.003 -0.00936,-0.003 -0.018711,-0.006 -0.00624,-0.006 -0.00624,-0.0187 0,-0.0156 0.00312,-0.0249 0.00624,-0.0125 0.00624,-0.0249 v -0.0156 q 0,-0.003 -0.00936,-0.006 -0.00936,-0.003 -0.012474,-0.003 -0.021829,0 -0.028066,0.009 -0.00624,0.006 -0.00936,0.0156 -0.00312,0.009 -0.00936,0.0187 -0.00312,0.006 -0.021829,0.006 v -0.0249 q 0,-0.003 -0.00624,-0.0125 -0.00624,-0.009 -0.00624,-0.0125 0,-0.0125 0.012474,-0.0249 l 0.00936,-0.009 q 0.00312,-0.006 0,-0.0187 -0.00312,-0.0156 -0.00312,-0.0218 -0.00624,0 -0.015592,0.006 -0.00936,0.003 -0.015592,0.003 0,-0.003 -0.00936,-0.0156 -0.00936,-0.0125 -0.012474,-0.0125 h -0.012474 -0.012474 q -0.00312,0.003 -0.00936,0.0125 -0.00312,0.009 0,0.0156 0.00312,0.0156 0.012474,0.0187 0.00936,0.003 0.018711,0.003 0.012474,0 0.018711,0.003 0.00624,0 0.00624,0.0156 h -0.077917 q 0,-0.0343 -0.00936,-0.0499 -0.00936,-0.0187 -0.021829,-0.0281 -0.012474,-0.009 -0.021829,-0.0156 -0.00936,-0.009 -0.00936,-0.0249 v -0.006 q 0.00312,0 0.00624,-0.003 0.00624,-0.006 0.00936,-0.006 v -0.009 q 0,-0.0156 -0.015592,-0.0218 -0.012474,-0.006 -0.012474,-0.0218 0,-0.006 0,-0.009 0.00312,-0.006 0.00312,-0.009 0,-0.003 0.00312,-0.009 0.00624,-0.009 0.00624,-0.0125 0,-0.006 -0.015592,-0.0125 -0.015592,-0.009 -0.015592,-0.0156 -0.00312,0 -0.00312,-0.003 v -0.006 q 0,-0.0218 0.015592,-0.0281 0.015592,-0.009 0.034303,-0.0125 0.021829,-0.003 0.04054,-0.006 0.021829,-0.006 0.028066,-0.0218 -0.00624,-0.0156 -0.021829,-0.0156 -0.00312,0 -0.00624,0.003 0,0 -0.00312,0 h -0.00312 q -0.00312,0 -0.018711,0.0125 -0.012474,0.009 -0.015592,0.009 h -0.00936 -0.00624 l -0.00936,-0.009 q -0.00312,0 -0.012474,0.003 -0.00936,0.003 -0.00936,0.006 -0.00312,-0.003 -0.00312,-0.0125 0,-0.0125 0,-0.0156 0,-0.0187 0.012474,-0.0374 0.012474,-0.0218 0.028066,-0.0405 0.018711,-0.0187 0.031185,-0.0343 0.012474,-0.0156 0.012474,-0.0249 0,-0.0249 -0.012474,-0.0405 -0.012474,-0.0187 -0.012474,-0.0405 0,-0.0249 0.018711,-0.0437 0.021829,-0.0218 0.028066,-0.0561 v -0.0468 q 0.00312,-0.009 0.00936,-0.009 0.00624,0 0.012474,-0.003 0.00936,-0.003 0.012474,-0.0125 0.00624,-0.009 0.00624,-0.0343 h 0.021829 v 0.0593 q 0.00624,-0.006 0.018711,-0.0187 0.015592,-0.0125 0.021829,-0.0125 0,0 0.012474,0.003 0.012474,0.003 0.024948,0.009 0.015592,0.006 0.028066,0.0125 0.012474,0.006 0.015592,0.006 0.00312,0 0.00624,-0.003 l 0.00312,-0.003 q 0.00312,-0.003 0.00312,-0.006 -0.012474,-0.009 -0.037422,-0.0281 -0.021829,-0.0218 -0.043659,-0.0218 v -0.0405 q 0.00624,0.003 0.012474,0.006 0.00936,0.003 0.012474,0.006 h 0.00624 0.00624 q 0,-0.003 0.00312,-0.0125 0.00624,-0.009 0.00624,-0.0125 h 0.00624 0.00624 q 0,0.0187 0.00624,0.0405 0.00936,0.0187 0.031185,0.0312 0.00312,0 0.00936,-0.003 0.00936,-0.003 0.012474,-0.003 v -0.10291 q -0.00936,-0.003 -0.04054,-0.0218 -0.031185,-0.0218 -0.031185,-0.0281 v -0.006 q 0.015592,-0.0312 0.028066,-0.0499 0.015592,-0.0187 0.056133,-0.0187 h 0.018711 q 0.00624,0.003 0.00936,0.0125 0.00312,0.006 0.00312,0.009 0.00624,-0.003 0.015592,-0.0218 0.012474,-0.0218 0.024948,-0.0437 0.012474,-0.0249 0.024948,-0.0405 0.012474,-0.0187 0.021829,-0.0187 0,0.003 -0.00312,0.0312 0,0.0249 -0.00312,0.0561 0,0.0281 -0.00312,0.0561 0,0.0249 0,0.0281 0,0.006 -0.015592,0 -0.012474,-0.009 -0.015592,-0.009 -0.00624,0.006 -0.012474,0.0187 -0.00624,0.0125 -0.00936,0.0156 -0.00624,0.006 0,0.009 0,0.003 0.00312,0.006 h 0.065488 q 0,0.003 -0.00624,0.009 -0.00312,0.006 -0.00624,0.006 -0.00624,0.006 0.00312,0.0125 0.00936,0.003 -0.00312,0.003 l 0.04054,0.009 v -0.0187 -0.0748 h 0.04054 l 0.031185,0.0187 q 0.012474,0.006 0.021829,0.0156 0.00936,0.006 0.00936,0.003 -0.00312,-0.003 -0.012474,-0.0125 -0.00936,-0.0125 -0.021829,-0.0249 -0.00936,-0.0156 -0.018711,-0.0249 -0.00936,-0.0125 -0.012474,-0.0125 0.00312,-0.0125 0.012474,-0.006 0.00936,0.006 0.015592,0.0125 0.00936,0.003 0.015592,-0.003 0.00624,-0.006 0.00624,-0.0405 0,-0.0218 -0.00936,-0.0374 -0.00624,-0.0156 -0.00624,-0.0468 0,-0.003 0.018711,0.006 0.021829,0.006 0.021829,0.003 0.00312,0.003 0.00936,0.006 0.00936,0.003 0.012474,0.006 h 0.00624 0.00312 q 0.00624,-0.003 0.00624,-0.0125 0.00312,-0.009 0.00624,-0.009 0.00312,-0.003 0.024948,-0.0218 0.024948,-0.0218 0.037422,-0.0249 0.015592,-0.003 0.028066,-0.009 0.012474,-0.003 0.018711,-0.006 0.00936,-0.003 0.012474,-0.003 0.00312,0 0.012474,0.003 0.018711,0.006 0.031185,0.006 0.018711,0.006 0.043659,0.009 0.00312,0 -0.00312,0.009 -0.00624,0.006 -0.015592,0.0156 -0.00624,0.009 -0.012474,0.0156 -0.00624,0.006 -0.00312,0.006 0.021829,0 0.037422,-0.0125 0.018711,-0.0125 0.028066,-0.0281 0.012474,-0.0156 0.021829,-0.0281 0.012474,-0.0125 0.028066,-0.0125 0.00936,0 0.018711,0.0125 0.012474,0.009 0.024948,0.0249 0.012474,0.0125 0.024948,0.0249 0.012474,0.009 0.021829,0.009 0.00312,0 0.00624,-0.003 0.00312,-0.006 0.00624,-0.0187 0.00624,-0.0125 0.00624,-0.0187 0,-0.006 -0.00624,-0.006 -0.00624,-0.003 -0.015592,-0.003 -0.00624,-0.003 -0.012474,-0.006 -0.00624,-0.006 -0.00624,-0.0218 0,-0.009 0.012474,-0.009 0.015592,0 0.028066,0.003 0.015592,0.003 0.021829,0.006 0.00624,0.003 -0.00936,-0.003 l 0.065488,0.0655 q 0.00312,0.006 0.00936,0 0.00936,-0.006 0.012474,-0.0125 0.00312,-0.006 0.00624,-0.0187 0.00312,-0.0125 0.00312,-0.0156 h 0.015592 q 0.00624,0.003 0.028066,0.006 0.024948,0.003 0.031185,0.006 0,0.006 0.00312,0.0343 0.00312,0.0281 0.00624,0.0343 0,0.003 0.00312,0.006 0.00624,0.003 0.00936,0.006 0.00312,-0.003 0.00624,-0.009 0.00624,-0.009 0.00624,-0.0125 v -0.1185 l 0.00936,0.0125 0.037422,0.16217 0.068606,-0.0561 0.00312,-0.006 q 0,-0.0156 -0.021829,-0.0156 -0.021829,0 -0.028066,-0.0156 0.00312,-0.0156 0.024948,-0.0125 0.024948,0 0.028066,0 h 0.028066 q 0.00312,0.003 0.00936,0.0218 0.00936,0.0156 0.012474,0.0281 v 0.003 q 0,0.0156 -0.012474,0.0312 -0.00936,0.0125 -0.021829,0.0218 0.012474,-0.009 0.018711,-0.003 0.00624,0.003 0.00936,0.0125 0.00624,0.009 0.00936,0.0187 0.00312,0.009 0.00936,0.009 0.00312,0 0.012474,-0.003 0.012474,-0.006 0.012474,-0.009 -0.00624,0.006 -0.00312,0.0125 0.00624,0.003 0.015592,0.009 0.012474,0.006 0.021829,0.0125 0.00936,0.003 0.012474,0.009 0,0.006 0.00312,0.0312 0.00624,0.0218 0.00624,0.0281 v 0.0936 q 0,0.0156 0.00624,0.0187 0.00936,0.003 0.018711,0.006 0.00936,0.003 0.018711,0.006 0.00936,0.003 0.015592,0.0125 0,0.003 -0.00624,0.009 -0.00312,0.003 -0.00624,0.006 h -0.00312 -0.00624 q -0.015592,-0.006 -0.049896,-0.0218 -0.034303,-0.0187 -0.043659,-0.0249 -0.015592,0.003 -0.018711,0.0187 0,0.0125 0,0.0218 -0.021829,0 -0.046777,-0.0125 -0.024948,-0.0125 -0.04054,-0.0281 0.015592,-0.006 0.015592,-0.0187 0,-0.0125 0,-0.0187 0,-0.006 -0.00312,-0.0125 0,-0.009 0,-0.0125 0,-0.003 -0.015592,-0.0125 -0.015592,-0.0125 -0.021829,-0.0187 h -0.00312 q -0.024948,0 -0.04054,0.0156 -0.015592,0.0156 -0.034303,0.0312 l -0.00624,0.003 q -0.00312,0 -0.00624,-0.003 -0.00312,-0.003 -0.012474,-0.0125 -0.00624,-0.0125 -0.00936,-0.0125 -0.00624,-0.003 -0.031185,0 -0.021829,0 -0.028066,0 -0.00312,-0.003 -0.012474,-0.0125 -0.00936,-0.009 -0.012474,-0.009 h -0.00312 q -0.00936,0 -0.018711,0.0125 -0.00936,0.009 -0.021829,0.0249 -0.00936,0.0125 -0.021829,0.0281 -0.00936,0.0125 -0.024948,0.0156 -0.00624,0 -0.028066,0.006 -0.021829,0.003 -0.049896,0.006 -0.024948,0.003 -0.046777,0.006 -0.021829,0.003 -0.028066,0.003 -0.00312,0 -0.021829,0.006 -0.018711,0.006 -0.021829,0.006 h -0.08108 q -0.00624,0.0156 -0.015592,0.0218 -0.00624,0.003 -0.021829,0.003 -0.024948,0 -0.024948,-0.0187 0,-0.0187 -0.024948,-0.0187 -0.015592,0 -0.021829,0.006 -0.00624,0.006 -0.021829,0.006 -0.015592,0 -0.021829,-0.009 -0.00624,-0.009 -0.021829,-0.009 0,0.0312 0.00624,0.0468 0.00936,0.0156 0.024948,0.0405 0.00312,0.003 0.00312,0.006 0.00312,0.003 0.00624,0.006 0.00312,0.006 0.00312,0.009 0,0.0156 -0.012474,0.0249 -0.00936,0.009 -0.024948,0.0156 -0.015592,0.003 -0.031185,0.006 -0.012474,0.003 -0.021829,0.003 l -0.00312,0.009 q 0,0.009 0.00312,0.0187 0.00624,0.006 0.024948,0.003 -0.015592,0.0343 -0.031185,0.053 -0.012474,0.0187 -0.018711,0.053 v 0.0686 q 0,0.009 -0.00624,0.0343 -0.00624,0.0218 -0.012474,0.0468 -0.00312,0.0249 -0.00936,0.0437 -0.00624,0.0156 -0.00624,0.0156 l -0.08108,-0.0593 q -0.00312,-0.003 -0.00624,0.003 -0.00312,0.006 -0.00312,0.009 0,0.003 0.00312,0.0187 0.00624,0.0156 0.00624,0.0187 v 0.006 0.006 q 0,0.003 -0.00624,0.0218 -0.00312,0.0156 -0.00312,0.0187 0,0.006 0.00936,0.0218 0.00936,0.0156 0.012474,0.0156 v 0.006 q 0,0.003 -0.00312,0.003 0.021829,0 0.037422,-0.009 0.015592,-0.009 0.04054,-0.009 h 0.018711 l -0.021829,0.0561 h 0.021829 v 0.0624 q 0.034303,0 0.031185,0.003 -0.00312,0.003 -0.00312,0.0374 h 0.015592 q 0.00624,0 0.028066,0.0249 0.021829,0.0218 0.031185,0.0343 0.00312,0.003 0.00936,0.0187 0.00936,0.0156 0.012474,0.0156 0.00624,0.003 0.028066,0.003 0.024948,-0.003 0.031185,-0.003 0.00312,0 0.015592,0.0125 0.015592,0.0125 0.018711,0.0125 0.00312,0.003 0.021829,0.003 0.021829,-0.003 0.024948,-0.003 0.00624,0.003 0.031185,0.009 0.024948,0.003 0.028066,0.003 0.012474,0 0.046777,0 0.034303,0 0.071725,0.003 0.037422,0 0.071725,0 0.034303,0 0.046777,0 v 0.0405 q 0.024948,-0.006 0.024948,-0.0312 0.00312,-0.0249 0.028066,-0.0405 0.053014,-0.0249 0.1029098,-0.0312 0.049896,-0.006 0.1029097,-0.0218 0.00624,-0.003 0.024948,-0.0125 0.021829,-0.009 0.024948,-0.009 h 0.00624 q 0.00312,0 0.00312,0 0.00312,-0.003 0.00624,-0.003 0,0.003 0.00312,0.003 h 0.00624 0.00936 q 0.00312,0.003 0.00936,0.006 0.00624,0.003 0.012474,0.003 h 0.046777 q 0.012474,0.003 0.037422,0.0156 0.028066,0.0125 0.034303,0.0156 0.00624,0.006 0.012474,0.0312 0.00936,0.0249 0.00936,0.0312 h 0.015592 q -0.00312,0.003 -0.00312,0.006 0,0.003 -0.00312,0.003 0,0.003 -0.00936,0.0125 -0.00936,0.006 -0.012474,0.009 0,0.003 0,0.0125 0.00312,0.009 0,0.0125 -0.00624,0.0156 -0.024948,0.0249 -0.015592,0.009 -0.031185,0.009 l -0.00312,-0.003 q 0,-0.003 0.00312,-0.006 0.00312,-0.003 0.015592,-0.0187 0.012474,-0.0156 0.018711,-0.0187 v -0.0125 q 0,-0.0187 -0.024948,-0.0312 -0.012474,0.006 -0.015592,0.0218 -0.00312,0.0125 -0.00624,0.0218 -0.00936,0.003 -0.046777,0.006 -0.037422,0.003 -0.046777,0.006 -0.00624,0 -0.018711,0.006 -0.012474,0.006 -0.015592,0.006 v 0.0218 q 0,0.0156 0.00312,0.0281 0.00312,0.0125 0.018711,0.0187 -0.00624,-0.003 -0.024948,0.003 -0.015592,0.003 -0.021829,0.009 -0.00312,0 0,0.0218 0.00312,0.0187 0,0.0218 -0.00624,0.0156 -0.028066,0.0218 -0.021829,0.006 -0.021829,0.0405 h -0.00312 q 0,-0.009 -0.00624,-0.0312 -0.00312,-0.0249 -0.00624,-0.0312 -0.015592,0 -0.024948,-0.009 -0.00312,0 -0.00936,0.003 -0.00312,0 -0.00624,0 l 0.00312,0.006 q -0.00312,0.006 -0.00624,0.0249 -0.00312,0.0156 -0.00624,0.0218 h -0.00936 q -0.00312,0.003 -0.024948,0.0125 -0.018711,0.0125 -0.024948,0.0125 -0.00312,0.003 -0.015592,0 -0.012474,0 -0.018711,0 -0.00312,0.003 -0.028066,0.0125 -0.024948,0.009 -0.031185,0.009 -0.00312,0.003 -0.00624,0.003 h -0.00624 q -0.021829,0 -0.04054,-0.009 -0.015592,-0.006 -0.037422,-0.003 z m 0.024948,-0.0218 q 0.024948,0 0.046777,-0.009 0.021829,-0.009 0.046777,-0.009 0,-0.003 -0.00312,-0.0156 -0.00312,-0.0156 -0.00936,-0.0312 -0.00312,-0.0156 -0.00936,-0.0281 -0.00624,-0.0156 -0.00936,-0.0156 l -0.00624,0.003 q 0,0 -0.00624,0.0125 -0.00312,0.006 -0.00312,0.009 -0.00312,0.003 -0.00624,0.009 -0.00312,0.003 -0.00624,0.003 -0.00624,0.003 -0.018711,0.006 -0.00936,0.003 -0.015592,0.003 z m 0.1590423,-0.0499 q -0.00312,-0.003 -0.00312,0.0125 0,0.0156 0.00312,0.009 0.00624,-0.003 0.00624,-0.009 0,-0.009 -0.00624,-0.0125 z m 0.1746348,-0.2183 q -0.00312,0 -0.00936,0.0187 -0.00624,0.0156 -0.012474,0.0249 0,0.006 -0.00312,0.0156 0,0.006 0,0.009 0.024948,0 0.021829,-0.0125 -0.00312,-0.0156 0.00312,-0.0343 l 0.012474,-0.009 q 0,-0.003 0,-0.006 0.00312,-0.003 0.00312,-0.006 z m -0.985439,0.0343 q -0.00312,0 -0.00624,0.006 -0.00312,0.003 -0.00624,0.003 v 0.006 0.006 q 0.00312,-0.003 0.00624,-0.006 0.00624,-0.003 0.00624,-0.006 v -0.003 z m 1.116415,-0.0842 q -0.00936,0 -0.00936,0.0125 0,0.0125 0.00936,0.0125 0.00624,0 0.00624,-0.0125 0,-0.0125 -0.00624,-0.0125 z m -1.2193247,-0.0187 q -0.00936,0 -0.00936,0.009 0,0.009 0.00936,0.009 0.00624,0 0.00624,-0.009 0,-0.009 -0.00624,-0.009 z m -0.046777,-0.14345 q 0.00312,-0.003 -0.00624,-0.003 -0.00624,0 -0.00624,0.003 0,0.006 0.00624,0.006 0.00624,0 0.00624,-0.006 z m -0.046777,-0.0936 q -0.018711,0 -0.021829,0.0125 h 0.00312 0.00624 q 0.012474,0 0.024948,-0.0125 z m -0.137213,-0.0312 q -0.012474,0 -0.012474,0.0125 0,0.009 0.012474,0.009 0.00936,0 0.00936,-0.009 0,-0.0125 -0.00936,-0.0125 z m 0.068606,0.003 q 0.015592,0 0.021829,-0.0125 h -0.021829 z m 0.1621609,-0.0842 q -0.015592,0 -0.034303,0.0187 -0.015592,0.0156 -0.015592,0.0312 0.015592,0 0.043659,-0.006 0.028066,-0.006 0.028066,-0.0281 v -0.006 q -0.00936,-0.009 -0.021829,-0.009 z m -0.2307674,-0.0218 q -0.00624,-0.003 -0.00624,0.006 0,0.006 0.00624,0.003 0.00624,0 0.00624,-0.003 0,-0.006 -0.00624,-0.006 z m 0.3087293,-0.13722 q 0,0.003 0,0.009 0.00312,0.006 0.00312,0.009 0,0.003 0.00936,0.0125 0.00936,0.009 0.012474,0.0125 0.00312,0.003 0.00936,0.0218 0.00936,0.0187 0.015592,0.0218 0.00312,0.003 0.012474,0.006 0.00936,0.003 0.00936,0.006 0.00312,0 0.00624,0.0125 0.00624,0.009 0.00624,0.0125 0.018711,-0.003 0.024948,-0.0156 0.00936,-0.0156 0.00936,-0.0312 0,-0.0281 -0.012474,-0.0655 -0.00936,-0.0405 -0.046777,-0.0405 -0.021829,0 -0.04054,0.003 -0.018711,0.003 -0.018711,0.0249 z m -0.056133,0.078 h 0.015592 v -0.0125 h -0.015592 z m -0.056133,-0.0249 q 0.00312,0 0.00624,-0.006 0.00624,-0.009 0.00624,-0.0156 0,-0.0125 -0.012474,-0.0125 z m 0.056133,-0.0343 q -0.00936,0 -0.00936,0.0125 0,0.0125 0.00936,0.0125 0.012474,0 0.012474,-0.0125 0,-0.0125 -0.012474,-0.0125 z m 0.1590424,-0.10603 q 0,0.006 0.00312,0.0187 0.00312,0.0125 0.012474,0.0187 0.00936,-0.006 0.012474,-0.0187 0.00624,-0.0125 0.00624,-0.0187 z m -0.2619521,0.0125 h 0.00936 v -0.0218 h -0.00936 z m 0.1528054,-0.0343 q 0,0.006 -0.00624,0.0187 -0.00312,0.0125 -0.00624,0.0156 h 0.00624 0.00624 q 0,-0.003 0.00312,-0.006 0.00624,-0.003 0.00624,-0.006 0,-0.006 0,-0.0281 0.00312,-0.0218 0.00312,-0.0281 -0.00936,0 -0.018711,0.003 -0.00936,0.003 -0.00936,0.0156 l 0.00312,0.006 z m -0.1590424,-0.078 q 0,0.0156 0.00312,0.0312 0.00624,0.0156 0.024948,0.0156 0.00624,0 0.015592,0 0.00936,-0.003 0.00936,-0.0156 0,-0.0218 -0.018711,-0.0249 -0.018711,-0.006 -0.034303,-0.006 z m 0.1683978,-0.003 q -0.00312,-0.006 -0.00936,0.003 -0.00624,0.006 0,0.006 0.00312,0.006 0.00624,0.003 0.00624,-0.006 0.00312,-0.0125 z m 0.068606,-0.0904 -0.00936,0.009 h 0.034303 q -0.00312,0 -0.00624,-0.003 l -0.00624,-0.006 q 0,0 -0.00624,-0.003 z m 0.4740086,0 v -0.0125 h -0.00936 z m 0.5363781,-0.0249 q 0,-0.006 -0.00624,-0.006 -0.00624,0 -0.00624,0.006 0.00312,0.006 0.00624,0.006 0.00624,0 0.00624,-0.006 z m -0.4864825,-0.009 q 0.012474,-0.009 0.012474,-0.0281 h -0.012474 z m -0.093554,-0.0125 0.012474,-0.0156 h -0.012473 z m -0.059251,-0.17463 q 0,0.003 -0.00624,0.0125 -0.00312,0.006 -0.00312,0.0125 -0.00312,0.0156 -0.00936,0.0686 -0.00312,0.0499 -0.00312,0.0655 h 0.012474 q 0.012474,-0.0281 0.021829,-0.053 0.012474,-0.0249 0.012474,-0.0593 0,-0.0156 -0.00312,-0.0281 0,-0.0125 -0.021829,-0.0187 z m 0.2681891,0.10291 q 0,0.0187 0.00624,0.0312 0.00624,0.009 0.015592,0.025 0.00936,0 0.00936,-0.009 0.00312,-0.006 0.00312,-0.0343 0.00312,-0.0281 0.00312,-0.0374 -0.012474,0 -0.024948,0.006 -0.012474,0.003 -0.012474,0.0187 z m -0.021829,0.0343 q -0.00936,0 -0.00936,0.0125 0,0.009 0.00936,0.009 0.00936,0 0.00936,-0.009 0,-0.0125 -0.00936,-0.0125 z m -0.2120565,-0.0218 q 0,0.003 0.00312,0.006 0.00624,0.003 0.00936,0.006 h 0.00936 0.00312 q 0.00312,-0.006 0.00624,-0.0187 0.00312,-0.0156 0.00624,-0.0156 0.00624,-0.006 0.028066,-0.0156 0.021829,-0.009 0.028066,-0.0125 v -0.003 -0.006 q -0.00624,-0.006 -0.018711,-0.0156 -0.00936,-0.0125 -0.015592,-0.0156 -0.00936,0.0218 -0.034303,0.0437 -0.024948,0.0218 -0.024948,0.0468 z m 0.5956292,-0.0249 q -0.024948,0 -0.024948,0.0312 v 0.006 q 0.024948,-0.0156 0.024948,-0.0374 z m -0.5363781,0.0125 q -0.00936,0 -0.00936,0.0125 0,0.0125 0.00936,0.0125 0.00624,0 0.00624,-0.0125 0,-0.0125 -0.00624,-0.0125 z m -0.567563,-0.009 h 0.012474 v -0.0156 z m 0.3492695,-0.009 q 0.024948,0 0.024948,-0.0281 H 7.976543 Z m 0.4365869,-0.14345 q -0.00312,0.003 -0.00624,0.0125 -0.00312,0.009 -0.00624,0.0125 -0.00624,0.003 -0.00936,0.009 -0.00624,0.006 -0.00624,0.009 l -0.00312,0.003 q -0.00312,0.009 -0.00936,0.0374 -0.00312,0.0249 -0.00312,0.0312 h 0.00624 0.00624 l 0.00312,-0.003 q 0,-0.003 0.00624,-0.009 0.00312,-0.006 0.00936,-0.009 0.00624,-0.003 0.024948,-0.006 0.021829,-0.003 0.024948,-0.003 0.00624,-0.003 0.018711,-0.006 0.012474,-0.003 0.015592,-0.006 -0.015592,-0.0156 -0.031185,-0.0343 -0.015592,-0.0218 -0.024948,-0.0374 h -0.00936 z m -0.2775445,0.0281 q 0,0.0343 0.024948,0.0561 0.015592,-0.0125 0.021829,-0.0374 l 0.046777,0.0249 q 0.00936,0 0.00936,-0.0125 0,-0.0187 -0.00936,-0.0374 -0.00936,-0.0218 -0.024948,-0.0218 -0.021829,0 -0.046777,0.003 -0.021829,0 -0.021829,0.0249 z m 0.1340945,0.0125 q -0.00312,0.003 -0.00312,0.006 -0.00312,0 -0.00312,0.003 v 0.006 l 0.00312,0.003 0.00936,-0.0125 0.00312,-0.006 q 0,-0.003 -0.00312,-0.006 z m -0.2370043,-0.006 q 0,0.0125 0.00936,0.0125 0.00624,0 0.015592,-0.003 0.00936,-0.006 0.012474,-0.009 z m 0.3149663,-0.009 q -0.012474,0.003 -0.012474,0.0218 h 0.012474 z m 0.1465684,0.0218 h 0.012474 l -0.012474,-0.0125 z m 0.2120565,-0.0218 q -0.00936,0 -0.00936,0.0125 0,0.009 0.00936,0.009 0.00624,0 0.00624,-0.009 0,-0.0125 -0.00624,-0.0125 z m -0.4303499,-0.0343 q 0.00312,-0.006 -0.00624,-0.006 -0.00624,0 -0.00312,0.006 0,0.006 0.00312,0.006 0.00624,0 0.00624,-0.006 z m 0.2307673,-0.0249 h 0.015592 v -0.025 z"
         style="font-style:normal;font-variant:normal;font-weight:normal;font-stretch:normal;font-size:2.82222px;font-family:Chalkduster;-inkscape-font-specification:'Chalkduster, Normal';font-variant-ligatures:normal;font-variant-caps:normal;font-variant-numeric:normal;font-feature-settings:normal;text-align:start;writing-mode:lr-tb;text-anchor:start;fill:#3f5afc;fill-opacity:1;stroke-width:0.264583"
         id="path1998"
         inkscape:connector-curvature="0" />
      <path
         d="m 9.2525352,290.77275 q -0.0031,0.006 -0.01247,0.0156 -0.0094,0.009 -0.01559,0.0125 -0.0031,0 -0.0062,0.003 -0.0031,0.003 -0.0062,0.003 0,-0.006 -0.0031,-0.0312 -0.0031,-0.0249 -0.0062,-0.0312 -0.0031,0 -0.01559,-0.006 -0.0094,-0.006 -0.01247,-0.006 0,-0.006 0.0031,-0.0156 0.0031,-0.009 0,-0.0125 0,-0.003 -0.01247,-0.009 -0.01247,-0.006 -0.01247,-0.009 -0.0031,-0.003 0,-0.0249 0.0031,-0.0218 0.0031,-0.0281 0,-0.003 -0.0062,-0.009 -0.0062,-0.009 -0.0062,-0.0156 0,-0.003 -0.01247,-0.0125 -0.01247,-0.009 -0.01247,-0.0125 v -0.0218 -0.009 q 0,-0.006 0,-0.006 0.0031,-0.003 0.0031,-0.006 0.0062,0.006 0.01871,0.0156 0.01247,0.009 0.01871,0.0125 l 0.0062,0.003 h 0.0094 l 0.01247,-0.006 q 0.0062,-0.003 0.0094,-0.003 0.0031,0 0.0062,-0.003 h 0.0094 q 0.0031,-0.003 0.01247,-0.006 0.01247,-0.003 0.01559,-0.006 0.0031,0.006 0.0062,0.0156 0.0031,0.009 0.0062,0.0125 h 0.0062 0.0031 q 0.0062,0 0.01559,0 0.01247,-0.003 0.01559,-0.009 0,0.006 0.0031,0.0156 0.0062,0.006 0.0094,0.0125 0.0031,0.006 0.0031,0.0468 0,0.0374 0.0031,0.0436 0.0031,0.003 0.0062,0.0156 0.0031,0.009 0.0062,0.0156 0.0094,0.009 0.01559,0.009 0,-0.006 0,-0.0343 0.0031,-0.0312 0.0031,-0.0437 0,-0.003 0.0031,-0.0125 0.0062,-0.009 0.0094,-0.0125 0,-0.003 0.0062,-0.0187 0.0094,-0.0187 0.0094,-0.0218 h 0.0062 q 0.0031,0.003 0.0062,0.003 0.0062,0 0.03118,0.009 0.02807,0.006 0.0343,0.009 h 0.01247 0.0031 q 0,-0.003 0.0031,-0.009 0.0062,-0.006 0.0094,-0.006 h 0.0062 q 0.0031,0 0.0062,0.003 0.0062,0 0.01559,0.0156 0,0.003 0.0031,0.0125 0.0062,0.009 0.0062,0.0125 0.0031,-0.003 0.01247,-0.0125 0.01247,-0.0125 0.01559,-0.0125 h 0.0094 l 0.0062,0.003 q 0.0031,0 0.01247,0.006 0.0094,0.003 0.01559,0.003 h 0.0031 0.0062 l 0.03119,-0.0499 q -0.0031,0.003 0,0.009 0.0062,0.003 0.0094,0.006 l 0.0062,0.003 h 0.0062 q 0.0031,0 0.0031,-0.003 0.01247,-0.003 0.05301,-0.0187 0.04366,-0.0187 0.05613,-0.0249 0.0062,0.003 0.01871,0.009 0.01559,0.003 0.02183,0.003 l 0.0062,0.006 q 0.0062,0.006 0.0062,0.006 0.0031,0 0.0062,-0.003 0.0062,-0.006 0.0062,-0.006 l 0.0062,-0.0125 q 0.0031,-0.006 0.0031,-0.009 0,-0.003 0.0031,-0.006 0.0031,0 0.0094,-0.003 0.0062,-0.006 0.0094,-0.009 0.0062,0 0.02495,-0.003 0.01871,-0.006 0.02495,-0.006 0.0031,-0.003 0.01247,-0.006 0.012469,-0.003 0.015589,-0.006 0.0031,0 0.01871,-0.003 0.01871,-0.006 0.02183,-0.006 0.0094,0 0.01559,-0.003 0.0062,-0.003 0.0094,-0.006 0.0062,-0.006 0.01559,-0.0218 0.01247,-0.0156 0.01559,-0.0187 0.0094,-0.009 0.04054,-0.0374 0.0343,-0.0312 0.04678,-0.0405 l 0.02183,-0.009 q 0.0031,0 0.0062,-0.003 0.0062,-0.006 0.0094,-0.006 0.0062,-0.009 0.02183,-0.0281 0.01871,-0.0218 0.02495,-0.0281 0,-0.006 0.0031,-0.009 0.0062,-0.006 0.0062,-0.009 0.0062,-0.006 0.0094,-0.0187 0.0031,-0.0125 0.0094,-0.025 0.0062,-0.0125 0.01247,-0.0249 0.0031,-0.006 0,-0.0187 -0.0031,-0.0156 -0.0031,-0.0218 -0.0031,0 -0.0031,0 0.0031,-0.003 0,-0.003 -0.0062,0.003 -0.01871,0.0125 -0.0094,0.006 -0.0094,0.003 -0.0094,-0.006 -0.02183,-0.0218 -0.01247,-0.0156 -0.01871,-0.0218 l -0.02495,0.0218 q -0.0062,0 -0.02183,-0.0156 -0.01247,-0.0156 -0.01871,-0.0187 -0.0031,-0.006 -0.0062,-0.0156 -0.0031,-0.0125 -0.0031,-0.0156 0.0031,0 0.01247,-0.003 0.0094,-0.003 0.01247,-0.009 l 0.0031,-0.009 q -0.0031,0 -0.0031,-0.003 v -0.006 -0.006 q 0,-0.006 -0.0062,-0.0312 -0.0031,-0.0125 -0.0031,-0.0218 l -0.02495,-0.003 q 0.0031,-0.006 0,-0.0249 0,-0.0218 0,-0.0281 0.0031,-0.009 -0.0031,-0.0405 -0.0031,-0.0312 -0.0031,-0.0405 0,0 -0.0062,-0.003 l -0.0062,0.003 q -0.0094,0.009 -0.01559,0.009 -0.0062,0.009 -0.0094,0.0343 -0.0031,0.025 -0.0094,0.0343 0,0.009 -0.0031,0.0468 0,0.0343 0,0.0468 l -0.01247,0.0125 q -0.0062,-0.006 -0.01559,-0.0281 -0.0094,-0.0218 -0.0094,-0.0281 0,-0.003 -0.0062,-0.009 -0.0031,-0.006 -0.0062,-0.006 0,0.003 -0.0062,0.0156 -0.0062,0.009 -0.0094,0.0125 -0.0031,0.006 -0.0094,0.0281 -0.0062,0.0187 -0.0062,0.0249 -0.0062,-0.003 -0.02183,-0.0187 -0.01247,-0.0187 -0.01247,-0.0249 -0.0062,-0.009 0.0031,-0.0374 0.0094,-0.0281 0.0094,-0.0374 -0.0031,0 -0.01247,-0.003 -0.0062,-0.003 -0.01247,0 -0.0062,0.003 -0.02183,0.0187 -0.01559,0.0125 -0.01871,0.0156 l -0.01247,0.006 q -0.0031,0.003 -0.0062,0.003 0,0 -0.0031,0.003 l -0.0031,0.003 q -0.0062,0.003 -0.01871,0.0218 -0.0094,0.0187 -0.01559,0.0281 v 0.006 l -0.0031,0.006 q 0.0031,0.003 0.0094,0.0281 0.0062,0.0218 0.0031,0.0281 0.0031,0 0.0031,0.009 0.0031,0.009 0.0031,0.0125 h -0.03742 q 0,-0.003 -0.0031,-0.0125 -0.0031,-0.0125 -0.0062,-0.0125 0,-0.006 -0.0062,-0.0125 -0.0062,-0.006 -0.0094,-0.006 l -0.0031,0.0405 q -0.0062,0 -0.01871,-0.003 -0.0094,-0.006 -0.01559,-0.0125 -0.0031,0 -0.0062,-0.003 -0.0031,-0.006 -0.0062,-0.006 0.0031,-0.006 -0.0031,-0.0218 -0.0031,-0.0156 -0.0062,-0.0218 -0.0031,-0.003 -0.01871,-0.0249 -0.01247,-0.0218 -0.01871,-0.0312 l -0.01247,-0.0125 h -0.0062 -0.0094 q -0.0062,0 -0.02183,0.006 -0.01247,0.003 -0.01559,0.003 -0.0062,0.006 -0.01559,0.0156 -0.0094,0.006 -0.01247,0.0125 0,0.003 -0.0094,0.0187 -0.0062,0.0125 -0.0062,0.0187 0,0.003 -0.0062,0.0125 -0.0062,0.009 -0.0062,0.0156 -0.0031,0 -0.0094,0.006 -0.0031,0.003 -0.0094,0.003 v -0.009 q 0,-0.003 0,-0.003 0.0031,-0.003 0.0031,-0.006 v -0.0187 q 0,-0.003 0.0062,-0.0125 0.0094,-0.0125 0.01247,-0.0156 -0.0031,-0.006 -0.01247,-0.0187 -0.0094,-0.0156 -0.01559,-0.0218 -0.0062,0.003 -0.02183,0.0187 -0.01247,0.0125 -0.01559,0.0187 -0.0031,0.003 -0.0094,0.0156 -0.0062,0.009 -0.0062,0.0125 -0.0062,0 -0.02183,0.009 -0.01559,0.009 -0.02183,0.0156 -0.0031,0 -0.0062,0.003 -0.0031,0.003 -0.0094,0.006 -0.0062,0.006 -0.01247,0.009 0,0 -0.0062,0 h -0.0062 q -0.0062,0.003 -0.02807,0.006 -0.02183,0.003 -0.02495,0.003 h -0.0062 -0.0062 q -0.0062,0 -0.02807,-0.0125 -0.02183,-0.0125 -0.02807,-0.0156 -0.0031,0 -0.01871,-0.006 -0.01247,-0.006 -0.01871,-0.006 -0.0031,-0.006 -0.0062,-0.0218 -0.0031,-0.0156 -0.0031,-0.0218 0,-0.003 -0.01871,-0.025 -0.01559,-0.0249 -0.01871,-0.0312 -0.0031,-0.003 -0.0094,-0.009 -0.0031,-0.009 -0.0031,-0.0156 -0.0031,-0.006 -0.0062,-0.0249 0,-0.0218 -0.0031,-0.0281 v -0.0281 q -0.0031,0 -0.0062,-0.0125 -0.0031,-0.0125 -0.0062,-0.0125 -0.0031,-0.006 -0.0062,-0.0343 0,-0.0281 0,-0.0343 v -0.0249 -0.009 q 0,-0.003 0.0031,-0.006 0.0031,-0.003 0.01871,-0.0125 0.01559,-0.009 0.01871,-0.0125 0.0062,-0.006 0.01559,-0.0125 0.01247,-0.006 0.01247,-0.009 0.0031,-0.006 0.01559,-0.0343 0.01559,-0.0281 0.01871,-0.0312 0,-0.009 0.0094,-0.0187 l 0.0062,0.003 h 0.01247 q 0,0.003 0.0094,0.009 0.01247,0.006 0.01247,0.009 h 0.01247 q 0.0031,0 0.0031,0.003 0.0031,0 0.0062,0 h 0.0062 q 0.0062,-0.003 0.02495,-0.0125 0.02183,-0.009 0.02807,-0.0125 0.0031,-0.003 0.01247,0 0.0094,0.003 0.01247,0 0.0062,-0.003 0.02183,-0.0125 0.01559,-0.009 0.02183,-0.0125 0.0031,0 0.01247,0.006 0.01247,0.003 0.01559,0.006 h 0.0062 q 0.0031,0.003 0.0062,0.003 0.0031,-0.003 0.0062,-0.0187 0.0031,-0.0156 0.0094,-0.0156 0,-0.006 0.02183,0 0.02183,0.003 0.02807,0.003 0,-0.003 0.0031,-0.006 0.0031,-0.003 0.0031,-0.003 0,-0.003 0.0031,-0.006 l 0.0062,-0.0125 0.02807,-0.0281 q 0.0031,0 0.01871,-0.003 0.01559,-0.006 0.02183,-0.006 h 0.0062 l 0.0062,0.003 q 0.0031,0 0.0062,0.0125 0.0031,0.009 0.0094,0.0125 0,0.009 0.0094,0 0.0031,-0.003 0.0094,-0.006 l 0.0031,-0.0405 q 0.0031,0 0.01247,0.003 0.01247,0 0.01871,-0.006 0.0062,-0.003 0.01559,-0.0125 0.0094,-0.0125 0.01247,-0.0156 0.0031,0 0.01871,-0.003 0.01871,-0.003 0.02495,-0.006 0.0031,0 0.02495,-0.0156 0.02183,-0.0187 0.02807,-0.0218 0.0062,-0.003 0.02807,-0.0125 0.02183,-0.009 0.02807,-0.0125 0.0031,0 0.01871,0.003 0.01871,0.003 0.02183,0 0.0031,0 0.012469,-0.0218 0.01247,-0.0218 0.01871,-0.0281 0,-0.006 0.0031,-0.009 0.0031,-0.003 0.0062,0 h 0.01247 q 0,0 0.0094,-0.009 l 0.0062,-0.006 0.0062,-0.10603 -0.0062,-0.006 q -0.0031,-0.003 -0.0062,-0.003 0,0 -0.0031,-0.003 0,-0.003 -0.01247,0 -0.0094,0 -0.0094,-0.003 -0.0062,-0.003 -0.01559,-0.0125 -0.0094,-0.009 -0.0094,-0.0156 -0.0062,0.006 -0.024949,0.0187 -0.01559,0.0125 -0.01871,0.0187 -0.0062,0.003 -0.01559,0.0187 -0.0062,0.0156 -0.01247,0.0187 -0.0062,0.006 -0.01559,0.009 -0.0094,0.003 -0.01247,0.003 0,-0.003 -0.0062,-0.0125 -0.0031,-0.009 -0.0062,-0.0125 h -0.0031 -0.0062 q -0.0062,0.003 -0.01247,0.0125 -0.0031,0.009 -0.0094,0.009 -0.0031,0.003 -0.0062,0.003 h -0.0094 q -0.0062,0 -0.01247,0 -0.0062,-0.003 -0.0094,-0.003 -0.0062,-0.003 -0.01871,-0.0125 -0.01247,-0.009 -0.01871,-0.0156 -0.0031,0 -0.0094,-0.0125 -0.0031,-0.0125 -0.0031,-0.0156 h -0.0031 -0.0062 q -0.0031,0 -0.0031,-0.003 -0.0062,0.006 -0.01247,0.009 l -0.01247,0.006 h -0.02807 q -0.0031,0 -0.0062,0 -0.0031,-0.003 -0.0094,-0.003 h -0.01247 q -0.0031,0 -0.01871,-0.009 -0.01559,-0.009 -0.02183,-0.009 -0.01247,0 -0.05302,0 -0.04054,-0.003 -0.05301,-0.006 0,-0.003 -0.0031,-0.0125 -0.0031,-0.009 -0.0062,-0.0125 -0.0031,0 -0.0031,-0.003 0,-0.003 -0.0031,-0.003 0,0 0,-0.003 l -0.0062,-0.006 h -0.01247 -0.0094 q -0.0031,0 -0.0062,-0.003 -0.0062,0.006 -0.02183,0.0218 -0.01559,0.0125 -0.01871,0.0187 0.0031,-0.006 -0.0094,-0.0156 -0.01247,-0.0125 -0.01871,-0.0125 0,0 -0.0031,-0.003 l -0.0062,0.003 q -0.0062,0 -0.01559,0.009 -0.0094,0.006 -0.01247,0.0125 l -0.09043,-0.003 q 0,0.003 -0.0094,0.009 -0.0062,0.006 -0.0094,0.003 h -0.0343 -0.01559 q -0.0062,0 -0.01247,-0.003 -0.0031,0 -0.0094,-0.006 -0.0031,-0.006 -0.0062,-0.009 -0.0031,0 -0.01247,-0.003 -0.0062,-0.006 -0.01247,-0.009 -0.0031,-0.003 -0.01247,-0.003 -0.0062,0 -0.0094,0.003 0,0.003 0.0031,0.0187 0.0062,0.0125 0,0.0187 0,0.003 -0.01559,0.0125 -0.01559,0.009 -0.02183,0.0125 -0.0062,0.006 -0.01871,0.0218 -0.0094,0.0125 -0.0094,0.0156 -0.0031,0.003 -0.0031,0.009 v 0.0156 q 0,0 0,0.0156 v 0.0125 q 0,0.006 0,0.0249 0.0031,0.0187 0.0094,0.0281 0,0.006 0.0031,0.0218 0.0062,0.0156 0.0062,0.0218 l 0.0031,0.009 q 0,0.003 -0.0031,0.003 0,0 0,0.003 v 0.006 q -0.0031,0.006 -0.01559,0.0218 -0.0094,0.0156 -0.01247,0.0187 l 0.02807,0.21517 q 0,0.006 0.0031,0.0156 0.0062,0.006 0.0094,0.0125 v 0.14657 q 0,0.006 -0.0031,0.0249 -0.0031,0.0187 -0.0062,0.0405 0,0.0218 -0.0031,0.0437 -0.0031,0.0187 -0.0031,0.0218 -0.0031,0 -0.0031,0.003 v 0.006 0.006 q 0,0.009 0.0031,0.0187 l 0.0062,0.0187 q 0,0.006 -0.0031,0.0281 0,0.0218 0,0.0249 0,0.006 0,0.0343 0,0.0281 0,0.0624 0,0.0312 0,0.0592 0.0031,0.0249 0.0031,0.0312 0,0.003 -0.0031,0.0187 0,0.0125 0,0.0281 0,0.0156 -0.0031,0.0312 0,0.0125 0,0.0156 0,0.003 0.0031,0.0187 0.0062,0.0125 0.0094,0.0218 0.0031,0.003 0.0062,0.0125 0.0031,0.009 0.0031,0.0125 0.0062,0.009 0.0094,0.0312 0.0062,0.0218 0.0062,0.0249 0,0.003 -0.0094,0.0125 -0.0062,0.009 -0.0094,0.009 0,0.006 -0.01247,0.0343 -0.0094,0.0281 -0.01559,0.0343 -0.0062,0.006 -0.02807,0.0249 -0.02183,0.0187 -0.02807,0.0249 -0.0062,0.006 -0.01247,0.0281 -0.0031,0.0187 -0.0031,0.0249 l -0.02807,-0.003 q 0,-0.0125 -0.0031,-0.053 -0.0031,-0.0405 -0.0031,-0.053 0,-0.003 -0.01871,-0.0187 -0.01559,-0.0156 -0.03742,-0.0312 -0.02183,-0.0187 -0.04054,-0.0312 -0.01559,-0.0156 -0.01559,-0.0187 -0.0031,-0.006 -0.0062,-0.0249 -0.0031,-0.0218 -0.0031,-0.0281 0,-0.006 0,-0.0281 0.0031,-0.0218 0.0031,-0.0249 0,-0.006 -0.0062,-0.0343 -0.0031,-0.0281 0,-0.0343 0,-0.003 0,-0.0218 0,-0.0187 0,-0.0374 0.0031,-0.0218 0.0031,-0.0374 0.0031,-0.0187 0.0031,-0.0218 0,-0.003 -0.0031,-0.0156 0,-0.0156 -0.0031,-0.0312 0,-0.0156 -0.0031,-0.0281 -0.0031,-0.0156 -0.0031,-0.0218 l 0.0031,-0.0125 v -0.009 q 0.0031,-0.006 0.01559,-0.0125 0.01247,-0.009 0.01247,-0.0125 v -0.0156 l -0.02183,-0.003 q 0,-0.006 0,-0.0374 0.0031,-0.0343 0,-0.0405 0,-0.003 -0.0062,-0.006 -0.0031,-0.006 -0.0062,-0.009 -0.0031,0 -0.01247,-0.003 -0.0094,-0.006 -0.01247,-0.006 v -0.009 -0.006 q 0.0031,-0.003 0.0094,-0.0156 0.0062,-0.0125 0.01247,-0.0249 0.0094,-0.0125 0.01559,-0.025 0.0062,-0.0125 0.0062,-0.0156 0,-0.003 0.0031,-0.006 0,-0.003 0,-0.003 0.0031,0 0.0031,-0.003 0,0 -0.0031,-0.006 v -0.006 q -0.0031,0.003 -0.01247,0.006 -0.0094,0.003 -0.01247,0.006 -0.0031,0.003 -0.0062,0.003 h -0.0094 l -0.01247,-0.006 q 0.0062,-0.006 0.01559,-0.0343 0.01247,-0.0312 0.01559,-0.0405 0,-0.006 -0.0031,-0.0156 0,-0.009 0.0031,-0.0125 l -0.02807,-0.003 v -0.006 q 0,-0.006 0.0031,-0.006 0.0031,-0.006 0.01871,-0.0374 0.01871,-0.0312 0.02495,-0.0374 0.0031,-0.006 0,-0.009 -0.0031,-0.006 0,-0.009 h -0.03119 q 0,-0.006 0,-0.025 0.0031,-0.0218 0.0062,-0.0436 0.0031,-0.0249 0.0031,-0.0437 0.0031,-0.0218 0.0031,-0.0312 0,-0.003 0.0094,-0.0187 0.0094,-0.0156 0.0094,-0.0218 v -0.025 q 0.0031,-0.006 0.0031,-0.0156 0,-0.009 0,-0.0125 -0.0031,-0.003 -0.01559,-0.0312 -0.0094,-0.0281 -0.0094,-0.0343 -0.0031,-0.003 -0.0031,-0.009 0,-0.009 0.0031,-0.0125 0.0031,0 0.01559,0 0.01247,-0.003 0.01559,-0.003 0,-0.003 0.0031,-0.006 0.0062,-0.006 0.0094,-0.009 v -0.006 q 0,-0.003 0,-0.003 0.0031,0 0.0031,-0.003 0,0 -0.0031,-0.006 v -0.006 q 0,-0.003 -0.0031,-0.0156 -0.0031,-0.0125 -0.0094,-0.0249 -0.0031,-0.0156 -0.0062,-0.0249 -0.0031,-0.0125 -0.0031,-0.0156 0,-0.006 0.0031,-0.0249 0.0062,-0.0218 0.0062,-0.0281 h -0.02807 q -0.0031,-0.006 -0.0062,-0.0281 -0.0031,-0.0218 -0.0094,-0.0281 l -0.0062,-0.0187 q -0.0031,-0.009 -0.0031,-0.0187 v -0.0312 -0.0156 q 0,-0.006 0.0031,-0.009 0.0031,-0.003 0.03742,-0.003 0.0343,-0.003 0.03742,-0.003 0.0031,0 0.01559,0.003 0.01247,0 0.02495,0 0.01559,0 0.02495,0.003 0.01247,0 0.01559,0 0.0031,-0.006 0.01559,-0.0281 0.01247,-0.0249 0.01559,-0.0249 0.0031,-0.003 0.0094,-0.006 0.01247,-0.006 0.01559,-0.006 l 0.0094,-0.003 0.0031,0.003 q 0.0062,0.006 0.01871,0.0218 0.01247,0.0156 0.01871,0.0218 l 0.09979,-0.0873 q 0.0062,0.003 0.01247,0.006 0.0094,0.003 0.0094,0.006 0.0062,0 0.02183,0 0.01871,0 0.02183,0.003 0,0.003 0.0031,0.006 0.0062,0.006 0.0062,0.006 0.0031,0.006 0.0062,0.0156 0.0062,0.009 0.0094,0.0125 0.0031,0.003 0.0062,0.003 h 0.01247 0.01871 q 0.0031,-0.003 0.0062,-0.006 0.0062,-0.006 0.0094,-0.006 0,-0.006 0,-0.0187 0,-0.0156 0.0031,-0.0218 0.0031,-0.009 0.0094,-0.0218 0.0094,-0.0125 0.01559,-0.0156 0.0062,-0.006 0.02807,-0.006 0.02183,0 0.02807,0 l -0.0062,0.0624 q 0.0062,-0.006 0.02807,-0.0187 0.02183,-0.0125 0.03119,-0.0156 0.0062,-0.006 0.03119,-0.0125 0.02495,-0.009 0.03742,-0.0125 0,-0.003 0.0094,-0.003 -0.0031,0.006 -0.0031,0.0218 0.0031,0.0125 0.0031,0.0187 0,0.006 0.0031,0.0156 0.0031,0.009 0.0062,0.0125 l 0.0062,0.003 h 0.0094 q 0.0031,-0.003 0.01871,-0.0125 0.01871,-0.009 0.02495,-0.0125 l 0.0094,-0.009 q 0.0031,-0.006 0.0031,-0.0218 0.0031,-0.0156 0,-0.0218 0.0062,0.003 0.01247,0.009 0.0062,0.003 0.01247,0.006 0,0.003 0.0031,0.003 h 0.0062 l 0.0031,-0.003 q 0.0062,-0.003 0.01247,-0.0125 0.0062,-0.009 0.0062,-0.0125 0.0031,0.003 0.01247,0.0187 0.0094,0.0156 0.0094,0.0218 0.0031,0.006 -0.0031,0.0249 -0.0062,0.0187 -0.0062,0.025 0,0.003 0.0031,0.003 h 0.0062 0.0094 q 0.0031,-0.003 0.0062,-0.003 0.0062,-0.003 0.0094,-0.006 0.0062,-0.006 0.01559,-0.0249 0.0094,-0.0218 0.01559,-0.0281 h 0.0094 q 0,0.006 0,0.0281 0,0.0187 -0.0031,0.0249 0,0.006 0.0062,0.0281 0.0062,0.0218 0.0062,0.0281 0.0062,-0.006 0.02183,-0.0125 0.01559,-0.009 0.02183,-0.0156 0.0062,0.003 0.01247,0.003 0.01247,0 0.01247,0 0.0031,0 0.0062,-0.003 0.0031,-0.006 0.0062,-0.009 0.0031,-0.003 0.0094,-0.0125 0.0062,-0.0125 0.0094,-0.0156 0.0031,-0.003 0.01559,-0.009 0.01559,-0.009 0.02183,-0.0125 h 0.0094 0.0062 q 0.0031,0.003 0.0094,0.0156 0.0094,0.0125 0.01559,0.0125 h 0.02807 q 0.0031,0 0.0094,0.0156 0.0094,0.0125 0.012469,0.0156 0.0062,0 0.02495,0.006 0.02183,0.003 0.02807,0.003 l -0.0031,0.0281 q 0.0062,0 0.02183,-0.003 0.01559,-0.006 0.01871,-0.003 0.0031,0.003 0.01247,0.0156 0.0094,0.0125 0.01559,0.0125 0,0.003 0.0094,0.006 0.01247,0.003 0.01559,0.006 0,0.006 0.0031,0.009 0,0.003 0,0.003 0.0031,0 0.0031,0.003 0,0.003 0.0031,0.003 0.0031,0.006 0.0094,0.0125 0.0094,0.006 0.01559,0.0156 0.0094,0.0125 0.01559,0.0218 l -0.0031,0.0125 v 0.0156 q 0,0.006 -0.0094,0.0218 -0.0062,0.0156 -0.0062,0.0187 v 0.0125 0.0156 l 0.0062,0.006 q 0.0031,0.003 0.0062,0.003 l 0.01247,0.003 q 0.0062,0.006 0.02495,0.0281 0.02183,0.0218 0.02807,0.0312 0.0031,-0.003 0.01559,-0.006 0.01559,-0.006 0.02183,-0.009 h 0.0094 0.0031 q 0.0062,0.006 0.01559,0.0125 0.01247,0.003 0.01247,0.006 0,0.003 0.0094,0.0187 0.01247,0.0156 0.01559,0.0218 l 0.0062,0.0156 q 0.0031,0.006 0,0.0281 0,0.0187 0,0.0249 -0.0031,0.003 0.0031,0.0218 0.0062,0.0156 0.0094,0.0187 v 0.003 q 0,0.003 0,0.006 0.0031,0 0.0031,0.003 -0.0031,0.003 -0.0031,0.006 0,0.003 -0.0031,0.006 -0.0031,0.006 -0.0094,0.0156 -0.0031,0.006 -0.0062,0.0125 l -0.0094,0.006 q -0.0031,0.006 -0.01247,0.0156 -0.0062,0.009 -0.0062,0.0125 0,0.006 -0.0062,0.0281 -0.0062,0.0218 -0.0062,0.0249 -0.0062,0.009 -0.0343,0.0343 -0.02495,0.0218 -0.03118,0.0281 l 0.0031,-0.0437 q -0.0062,-0.003 -0.0094,-0.006 -0.0031,0 -0.0031,0 0,-0.003 -0.0031,-0.003 -0.0031,0 -0.0031,-0.003 -0.0062,0.003 -0.0094,0.0156 -0.0031,0.0125 -0.0094,0.0125 -0.0031,0.003 -0.02183,0.006 -0.01559,0.003 -0.01871,0.006 -0.0031,0 -0.0094,0.006 l -0.0031,0.003 0.02495,0.0437 q -0.0031,0 -0.01871,0 -0.01559,-0.003 -0.02183,-0.003 -0.0062,0.003 -0.02183,0.006 -0.01559,0.003 -0.01871,0.009 -0.0062,0 -0.01559,0.009 -0.0094,0.006 -0.0094,0.0125 -0.0031,0 -0.0031,0.003 -0.0031,0.003 -0.0031,0.006 l 0.0031,0.003 0.0062,0.006 q 0,0.003 0,0.003 0.0031,0 0.0031,0.003 0,0.003 0.0031,0.003 v 0.006 0.003 q 0,0.003 -0.0031,0.009 -0.0031,0.003 -0.0062,0.009 l -0.0062,0.0125 q -0.0031,0 -0.0031,0.0125 0.0031,0.0125 0.0031,0.0156 0.0062,0 0.01247,0 0.0062,-0.003 0.01247,-0.003 0.0062,0.003 0.0343,0.0156 0.03119,0.009 0.04366,0.0187 0.0031,0 0.01247,0.003 0.0094,0.003 0.01247,0.009 0.0062,0 0.02183,0.0125 0.01559,0.0125 0.01559,0.0156 0.0062,0.003 0.02807,0.0156 0.02183,0.0125 0.02807,0.0156 0,0.003 0.01247,0.0281 0.01559,0.0218 0.01871,0.025 0.0062,0.006 0.03118,0.0343 0.02495,0.0281 0.0343,0.0374 h 0.01559 q 0,0.003 0.0094,0.0156 0.0094,0.009 0.01559,0.0125 0,0.003 0.01559,0.009 0.01559,0.003 0.01871,0.006 0.0031,0.003 0.0062,0.009 0.0062,0.0125 0.0094,0.0156 0.0062,0.0156 0.01247,0.0437 0.0094,0.0249 0.0094,0.0281 v 0.025 q 0,0.006 -0.0031,0.009 0,0 0,0.006 v 0.009 q -0.0031,0.006 -0.01559,0.0156 -0.0094,0.009 -0.01247,0.009 -0.0031,0.003 -0.0062,0.006 -0.0031,0 -0.0062,0.006 l -0.0062,0.0125 q 0,0.003 -0.0031,0.0156 0,0.009 0,0.0156 v 0.0249 q 0,0.003 0.0062,0.009 0.0062,0.003 0.0094,0.003 0.0031,0 0.01247,-0.003 0.0094,-0.006 0.01559,-0.006 h 0.0343 q 0,0.006 -0.01247,0.0437 -0.0094,0.0374 -0.01247,0.0499 0,0.003 -0.01247,0.0125 -0.01247,0.006 -0.02807,0.0156 -0.01559,0.009 -0.02807,0.0187 -0.01247,0.009 -0.01559,0.009 l -0.0094,0.009 q -0.0031,0.003 -0.0031,0.006 -0.0031,0.006 -0.0094,0.0343 -0.0031,0.0281 -0.0031,0.0374 -0.0031,0 -0.0031,0 0,-0.003 -0.0062,-0.003 -0.0031,-0.003 -0.01247,-0.009 -0.0094,-0.009 -0.01247,-0.009 h -0.0094 -0.0062 q -0.0031,0.003 -0.0062,0.009 -0.0031,0.006 -0.0031,0.0187 -0.0031,0.006 -0.0094,0.0281 -0.0062,0.0218 -0.0094,0.0187 -0.0031,0.006 -0.01871,0.0156 -0.01559,0.009 -0.02183,0.0125 -0.0062,0.003 -0.01559,0.003 -0.0094,-0.003 -0.0094,-0.006 -0.0031,0.006 -0.0094,0.0281 -0.0062,0.0187 -0.01247,0.025 0,0.0125 -0.01247,0.0125 l -0.0062,-0.006 q -0.0062,-0.006 -0.0062,-0.009 -0.0031,0 -0.0062,-0.009 -0.0031,-0.0125 -0.0062,-0.0125 0,-0.006 -0.01247,-0.0156 -0.0094,-0.0125 -0.0094,-0.0156 -0.0062,0.003 -0.0094,0.009 -0.0031,0.003 -0.0062,0.003 0,0 -0.0062,0.0125 l -0.0062,0.0125 q 0,0.003 0.0031,0.0218 0.0031,0.0156 0.0062,0.0218 0.0062,0.0125 0.01559,0.0125 0.0031,0.003 0.0062,0.003 h 0.0062 l -0.0031,0.0218 q -0.0062,0 -0.02183,0 -0.01247,-0.003 -0.01871,-0.003 -0.0031,0 -0.01559,0.009 -0.0094,0.006 -0.01247,0.006 -0.0062,-0.003 -0.01247,-0.009 -0.0031,0 -0.0094,-0.006 l -0.0031,-0.003 q -0.0062,0 -0.01247,0.006 -0.0031,0.006 -0.0031,0.009 l -0.0062,0.0935 q -0.0031,-0.003 -0.0062,-0.009 0,-0.006 -0.0031,-0.006 -0.0031,-0.003 -0.0062,-0.003 -0.0062,0 -0.0062,-0.003 -0.0031,0 -0.0062,0 0,0.003 -0.0031,0.003 h -0.0031 q -0.0031,0 -0.0094,0.006 -0.0062,0.006 -0.0062,0.009 0,0.003 0.0062,0.0125 0.0062,0.009 0.0062,0.0156 v 0.0281 q -0.0031,0 -0.01559,-0.003 -0.01247,0 -0.01559,-0.003 0,-0.003 -0.0031,-0.006 -0.0062,-0.006 -0.0062,-0.006 -0.0031,0 -0.0094,-0.0156 -0.0031,-0.0125 -0.0031,-0.0156 h -0.01247 -0.01559 q -0.0094,0.009 -0.0094,0.0187 0,0.003 0.0031,0.006 0.0062,0.006 0.0062,0.006 v 0.006 l -0.0031,0.003 q -0.0031,0.006 -0.01871,0.0187 -0.01247,0.0156 -0.01871,0.0218 -0.0031,-0.006 -0.01559,-0.0218 -0.0094,-0.0156 -0.0094,-0.0218 l -0.0062,-0.003 h -0.0062 q -0.0062,0.006 -0.01247,0.0218 -0.0031,0.0156 -0.0031,0.0218 -0.0031,0.006 -0.0094,0.0156 -0.0062,0.009 -0.0094,0.009 -0.0062,0.006 -0.02807,0.0249 -0.01871,0.0218 -0.02495,0.0281 -0.0062,0 -0.02183,0.003 -0.01559,0.003 -0.02183,0.006 -0.0031,0 -0.01871,-0.003 -0.01247,0 -0.01871,0 h -0.02807 q -0.0062,-0.003 -0.02495,-0.0281 -0.01871,-0.0218 -0.02495,-0.0312 -0.0062,-0.006 -0.0094,-0.0343 -0.0031,-0.025 0,-0.0312 l -0.01559,-0.003 q 0.0031,0.006 -0.0031,0.0249 -0.0062,0.0218 -0.01247,0.0281 0,0.003 -0.01871,0.006 -0.01559,0.003 -0.02183,0.003 -0.0031,0 -0.02495,-0.003 -0.02183,0 -0.02495,0 -0.01247,0 -0.01247,0.0156 -0.0031,0 -0.0094,0.009 -0.0062,0.0125 -0.0094,0.0187 l -0.0062,0.006 -0.0062,0.006 q -0.0031,-0.003 -0.0062,-0.0156 -0.0031,-0.0125 -0.0062,-0.0156 -0.0031,-0.006 -0.0062,-0.0125 0,-0.006 -0.0062,-0.0125 -0.0062,-0.009 -0.01247,-0.0156 -0.0031,0 -0.01871,-0.009 -0.01559,-0.006 -0.01871,-0.006 -0.0062,-0.006 -0.01247,-0.009 -0.0062,-0.003 -0.01247,-0.003 -0.0031,-0.006 -0.01559,-0.0187 -0.0094,-0.009 -0.01247,-0.0125 z m 0.40852,0.1185 q -0.0094,0 -0.01247,0.0125 0,0.0156 0.0094,0.0156 0.0094,0 0.0094,-0.0156 0.0031,-0.0125 -0.0062,-0.0125 z m 0.05613,-0.009 0.0094,-0.0156 h -0.0094 z m -0.290018,-0.0873 q -0.0094,0 -0.0094,0.0125 0,0.0156 0.0094,0.0156 0.0062,0.003 0.0062,-0.0125 0,-0.0125 -0.0062,-0.0156 z m 0.02495,0.003 0.01559,-0.0281 h -0.01247 z m 0.130976,-0.006 0.01871,0.003 v -0.0156 q -0.0031,-0.003 -0.0094,-0.0156 -0.0031,-0.009 -0.0062,-0.009 z m 0.121621,-0.006 h 0.01871 v -0.009 q -0.0031,0 -0.0094,-0.006 -0.0031,-0.006 -0.0094,-0.006 z m -0.140331,-0.0998 q -0.0094,0 -0.0094,0.0125 0,0.0125 0.0094,0.0125 0.01247,0 0.01247,-0.0125 0,-0.0125 -0.01247,-0.0125 z m -0.314967,-0.0468 q -0.01247,0 -0.01559,0.0156 0,0.0125 0.01247,0.0125 0.0062,0 0.0062,-0.0125 0.0031,-0.0156 -0.0031,-0.0156 z m 0.146569,0.0281 q 0,-0.003 0.0062,-0.006 0.0062,-0.006 0.0062,-0.0125 0,-0.003 0,-0.009 0.0031,-0.009 0.0031,-0.0156 h -0.01559 z m 0.436587,-0.0187 h 0.01559 l 0.0031,-0.0249 h -0.01559 z m -0.919951,-0.15592 h 0.01559 q 0,-0.006 -0.0031,-0.0156 0,-0.0125 0,-0.0156 l -0.01247,-0.0125 z m 0.439705,-0.48337 h 0.04054 v -0.0125 q -0.0031,-0.003 -0.0062,-0.006 -0.0031,-0.006 -0.0062,-0.006 h -0.0062 q -0.0031,0 -0.0062,0 0,-0.003 -0.0031,-0.003 -0.0031,0 -0.0062,0.003 -0.0031,0 -0.0062,0 z m 0.8326338,0.0468 0.0062,-0.006 0.0062,-0.006 q 0.0031,-0.003 0.0062,-0.0125 0.0031,-0.009 0.0031,-0.0156 h -0.01871 z m -0.7858568,-0.16604 q -0.01559,0 -0.02807,0.0125 -0.0031,0.003 -0.0062,0.009 -0.0031,0.006 -0.0062,0.009 -0.0031,0.003 -0.0031,0.006 -0.0031,0.003 -0.0031,0.006 v 0.009 h 0.03119 z m -0.106028,-0.003 q -0.0062,0 -0.01559,0.009 -0.0031,0.003 -0.0094,0.0125 -0.0031,0.009 -0.0062,0.0125 l 0.02807,0.003 z m 0.486483,0.0405 q 0,0.003 0.0062,0.009 0.0062,0.003 0.0094,0.006 h 0.0094 v -0.0156 z m 0.3648608,-0.009 q -0.0062,-0.003 -0.0094,0.009 0,0.009 0.0062,0.006 0.01559,-0.009 0.0031,-0.0156 z m 0.02183,-0.0218 h 0.01559 l 0.0031,-0.0281 h -0.01559 z m -0.4459418,-0.0405 0.03118,0.003 q 0,-0.0125 -0.0031,-0.0156 -0.0031,-0.006 -0.01559,-0.0156 -0.0094,-0.009 -0.01247,-0.0125 z m -0.04678,-0.14969 q 0,0.003 0.0031,0.0156 0.0062,0.009 0.0094,0.0125 l 0.01559,0.0156 v -0.0187 -0.0218 q 0,-0.0125 -0.01247,-0.0125 -0.0031,0 -0.0062,-0.003 h -0.0062 q -0.0031,0 -0.0031,-0.003 z m -0.436587,-0.0374 q -0.0062,0 -0.0094,0.0125 0,0.0125 0.0062,0.0125 0.01559,0.003 0.01559,-0.009 0.0031,-0.0125 -0.01247,-0.0156 z m 0.333678,-0.0218 q 0,0.003 -0.0062,0.006 -0.0062,0.003 -0.0062,0.006 -0.0031,0.006 -0.0062,0.0218 -0.0031,0.0125 -0.0031,0.0187 h 0.01871 z m -0.171517,0.0156 q -0.01247,0 -0.01559,0.0156 0,0.0125 0.01247,0.0125 0.0094,0.003 0.0094,-0.009 0.0031,-0.0156 -0.0062,-0.0187 z m 0.162161,-0.0748 0.01559,-0.006 q 0.0031,-0.003 0.0062,-0.0125 0.0062,-0.009 0.0062,-0.0125 l -0.02495,-0.003 z m 0.255715,-0.0281 h 0.02495 v -0.0187 h -0.02495 z m -0.07484,-0.0873 q -0.0062,-0.006 -0.0094,0.003 0,0.009 0.0062,0.0125 0.0094,-0.006 0.0094,-0.009 0,-0.006 -0.0062,-0.006 z m 0.08108,-0.0374 q 0,0.003 -0.0031,0.009 0,0.006 0,0.0125 v 0.009 0.006 q 0,0.003 0.0031,0.003 0.0094,0 0.0094,-0.0125 0,-0.003 0,-0.009 0.0031,-0.006 0.0031,-0.0125 v -0.0187 z m 0.05613,-0.0187 q 0,0.006 0.0031,0.0125 0.0031,0.009 0.0062,0.009 0.0031,0 0.01247,-0.003 0.01247,-0.003 0.01871,-0.006 l 0.0094,-0.009 -0.03742,-0.0343 q -0.0031,0.003 -0.0094,0.0156 -0.0031,0.009 -0.0031,0.0156 z m 0.093549,-0.0374 q 0.0031,-0.006 -0.0062,-0.006 -0.0094,-0.003 -0.0062,0.003 0,0.009 0.0031,0.009 0.0062,0 0.0094,-0.006 z m 0.09667,-0.0904 q -0.0062,0 -0.0062,0.009 0,0.006 0.0062,0.006 0.0062,0 0.0062,-0.006 0,-0.006 -0.0062,-0.009 z m -0.2992625,-0.0935 q -0.0094,0 -0.01247,0.0125 0,0.0125 0.0094,0.0125 0.01247,0 0.01247,-0.0125 0.0031,-0.0125 -0.0094,-0.0125 z m 0,-0.0281 q -0.0094,0 -0.0094,0.0156 0,0.0125 0.0094,0.0125 0.01247,0 0.01247,-0.0125 0,-0.0156 -0.01247,-0.0156 z m -0.767145,-0.0436 h 0.01559 v -0.025 h -0.01559 z m 0.823278,-0.006 q -0.0062,0 -0.0062,0.0156 0,0.0125 0.0062,0.0125 0.01247,0 0.01247,-0.0125 0,-0.0156 -0.01247,-0.0156 z m -0.0094,-0.009 q -0.01559,-0.003 -0.01559,0.009 0,0.009 0.01559,0.0125 0.0062,0 0.0062,-0.009 0,-0.0125 -0.0062,-0.0125 z m -0.417876,-0.17151 0.0031,-0.0187 h -0.01247 z m 0.290019,0.0156 0.01871,-0.0156 -0.01559,-0.003 z m -0.289966,-0.1261 q 0,0.0156 0.0062,0.0281 l 0.0062,0.006 0.0062,0.006 q 0,0.006 0.0031,0.025 0.0062,0.0187 0.0062,0.0249 l 0.01559,0.003 0.0062,-0.10291 q -0.0062,0.003 -0.01871,0.006 -0.0094,0 -0.01247,0.003 z m -0.04054,0.0624 0.01871,0.003 -0.01871,-0.0156 z m 0.483364,-0.0249 h 0.01559 v -0.0125 h -0.01559 z"
         style="font-style:normal;font-variant:normal;font-weight:normal;font-stretch:normal;font-size:2.82222px;font-family:Chalkduster;-inkscape-font-specification:'Chalkduster, Normal';font-variant-ligatures:normal;font-variant-caps:normal;font-variant-numeric:normal;font-feature-settings:normal;text-align:start;writing-mode:lr-tb;text-anchor:start;fill:#ff0000;fill-opacity:1;stroke-width:0.264583"
         id="path2000"
         inkscape:connector-curvature="0"
         inkscape:label="path2000" />
    </g>
    <g
       inkscape:label="Layer 1"
       id="layer1-2"
       transform="translate(-86.729468,163.22784)">
      <path
         inkscape:connector-curvature="0"
         id="path7261"
         d="m 91.773153,127.33454 c -1.609548,0 -2.918685,-1.30916 -2.918685,-2.91871 0,-1.60954 1.309137,-2.91867 2.918685,-2.91867 1.609549,0 2.918682,1.30913 2.918682,2.91867 0,1.60955 -1.309133,2.91871 -2.918682,2.91871"
         style="fill:#c7c7db;fill-opacity:1;fill-rule:nonzero;stroke:#4b4b77;stroke-width:0.45;stroke-miterlimit:4;stroke-dasharray:none;stroke-opacity:1" />
      <path
         inkscape:connector-curvature="0"
         id="path7265"
         d="m 93.57287,124.41583 c 0,0.99357 -0.806153,1.79974 -1.799717,1.79974 -0.993567,0 -1.79972,-0.80617 -1.79972,-1.79974 0,-0.99356 0.806153,-1.79969 1.79972,-1.79969 0.993564,0 1.799717,0.80613 1.799717,1.79969"
         style="fill:#000000;fill-opacity:1;fill-rule:nonzero;stroke:none;stroke-width:0.352778" />
    </g>
    <g
       inkscape:label="Layer 1"
       id="layer1-4"
       transform="translate(-182.03776,103.15139)">
      <path
         inkscape:connector-curvature="0"
         style="fill:#d8d8d8;fill-opacity:1;fill-rule:nonzero;stroke:#beb5d5;stroke-width:0.601155;stroke-miterlimit:4;stroke-dasharray:none;stroke-opacity:1"
         d="m 184.23834,80.487097 c 0,1.567469 1.26958,2.837083 2.83701,2.837083 1.5662,0 2.83579,-1.269614 2.83579,-2.837083 0,-1.566228 -1.26959,-2.837081 -2.83579,-2.837081 -1.56743,0 -2.83701,1.270853 -2.83701,2.837081"
         id="path108214" />
      <path
         inkscape:connector-curvature="0"
         style="fill:#2431a5;fill-opacity:1;fill-rule:nonzero;stroke:none;stroke-width:0.352778"
         d="m 187.29109,77.359619 c -0.0675,-0.0055 -0.13508,-0.01101 -0.20398,-0.01101 -0.0689,0 -0.13779,0.0055 -0.20531,0.01101 v 3.139172 h 0.40929 z m 0,0"
         id="path108216" />
    </g>
    <g
       inkscape:label="Layer 1"
       id="g11202"
       transform="translate(-86.729468,151.22784)">
      <path
         inkscape:connector-curvature="0"
         id="path11198"
         d="m 91.773153,127.33454 c -1.609548,0 -2.918685,-1.30916 -2.918685,-2.91871 0,-1.60954 1.309137,-2.91867 2.918685,-2.91867 1.609549,0 2.918682,1.30913 2.918682,2.91867 0,1.60955 -1.309133,2.91871 -2.918682,2.91871"
         style="fill:#c7c7db;fill-opacity:1;fill-rule:nonzero;stroke:#4b4b77;stroke-width:0.45;stroke-miterlimit:4;stroke-dasharray:none;stroke-opacity:1" />
      <path
         inkscape:connector-curvature="0"
         id="path11200"
         d="m 93.57287,124.41583 c 0,0.99357 -0.806153,1.79974 -1.799717,1.79974 -0.993567,0 -1.79972,-0.80617 -1.79972,-1.79974 0,-0.99356 0.806153,-1.79969 1.79972,-1.79969 0.993564,0 1.799717,0.80613 1.799717,1.79969"
         style="fill:#000000;fill-opacity:1;fill-rule:nonzero;stroke:none;stroke-width:0.352778" />
    </g>
    <g
       inkscape:label="Layer 1"
       id="g11214"
       transform="translate(-86.729468,102.22784)">
      <path
         inkscape:connector-curvature="0"
         id="path11210"
         d="m 91.773153,127.33454 c -1.609548,0 -2.918685,-1.30916 -2.918685,-2.91871 0,-1.60954 1.309137,-2.91867 2.918685,-2.91867 1.609549,0 2.918682,1.30913 2.918682,2.91867 0,1.60955 -1.309133,2.91871 -2.918682,2.91871"
         style="fill:#c7c7db;fill-opacity:1;fill-rule:nonzero;stroke:#4b4b77;stroke-width:0.45;stroke-miterlimit:4;stroke-dasharray:none;stroke-opacity:1" />
      <path
         inkscape:connector-curvature="0"
         id="path11212"
         d="m 93.57287,124.41583 c 0,0.99357 -0.806153,1.79974 -1.799717,1.79974 -0.993567,0 -1.79972,-0.80617 -1.79972,-1.79974 0,-0.99356 0.806153,-1.79969 1.79972,-1.79969 0.993564,0 1.799717,0.80613 1.799717,1.79969"
         style="fill:#000000;fill-opacity:1;fill-rule:nonzero;stroke:none;stroke-width:0.352778" />
    </g>
    <g
       inkscape:label="Layer 1"
       id="g11220"
       transform="translate(-182.03776,138.15139)">
      <path
         inkscape:connector-curvature="0"
         style="fill:#d8d8d8;fill-opacity:1;fill-rule:nonzero;stroke:#beb5d5;stroke-width:0.601155;stroke-miterlimit:4;stroke-dasharray:none;stroke-opacity:1"
         d="m 184.23834,80.487097 c 0,1.567469 1.26958,2.837083 2.83701,2.837083 1.5662,0 2.83579,-1.269614 2.83579,-2.837083 0,-1.566228 -1.26959,-2.837081 -2.83579,-2.837081 -1.56743,0 -2.83701,1.270853 -2.83701,2.837081"
         id="path11216" />
      <path
         inkscape:connector-curvature="0"
         style="fill:#2431a5;fill-opacity:1;fill-rule:nonzero;stroke:none;stroke-width:0.352778"
         d="m 187.29109,77.359619 c -0.0675,-0.0055 -0.13508,-0.01101 -0.20398,-0.01101 -0.0689,0 -0.13779,0.0055 -0.20531,0.01101 v 3.139172 h 0.40929 z m 0,0"
         id="path11218" />
    </g>
    <g
       aria-label="Out"
       id="text8485"
       style="font-weight:bold;font-size:2.82223px;line-height:1.25;font-family:FreeMono;-inkscape-font-specification:'FreeMono, Bold';letter-spacing:0px;word-spacing:0px;fill:#ffffff;stroke-width:0.264583">
      <path
         d="m 3.4741345,281.33921 c -0.4346234,0 -0.7874022,0.38664 -0.7874022,0.86078 0,0.47695 0.3527788,0.8636 0.7874022,0.8636 0.428979,0 0.7874022,-0.38665 0.7874022,-0.84949 0,-0.74225 -0.6208906,-0.87489 -0.7874022,-0.87489 z m 0,0.28222 c 0.2794008,0 0.5051792,0.26247 0.5051792,0.58702 0,0.31045 -0.2314229,0.57292 -0.5051792,0.57292 -0.2765785,0 -0.5051792,-0.26247 -0.5051792,-0.58138 0,-0.31609 0.2286007,-0.57856 0.5051792,-0.57856 z"
         id="path17042" />
      <path
         d="m 5.3509132,282.07299 h 0.028222 0.098778 v 0.51364 c -0.146756,0.15523 -0.2173117,0.19191 -0.3584232,0.19191 -0.1693339,0 -0.2483563,-0.0649 -0.2483563,-0.2032 v -0.78458 H 4.5437554 c -0.110067,0 -0.1862672,0.0254 -0.1862672,0.14112 0,0.0818 0.062089,0.14111 0.1552227,0.14111 h 0.0762 v 0.51082 c 0,0.31045 0.2173117,0.47696 0.5023569,0.47696 0.1552227,0 0.2455341,-0.0395 0.3866456,-0.17216 v 0.13547 h 0.2681118 c 0.098778,0 0.1862672,-0.0254 0.1862672,-0.14111 0,-0.0903 -0.062089,-0.14111 -0.172156,-0.14111 v -0.9511 H 5.3791355 c -0.1044225,0 -0.1862672,0.0254 -0.1862672,0.14112 0,0.0536 0.031045,0.14111 0.1580449,0.14111 z"
         id="path17044" />
      <path
         d="m 6.6180902,282.62614 v -0.55315 h 0.5108237 c 0.1044225,0 0.1862672,-0.0282 0.1862672,-0.14111 0,-0.11572 -0.079022,-0.14112 -0.1862672,-0.14112 H 6.6180902 v -0.24835 c 0,-0.11007 -0.0254,-0.18627 -0.1411115,-0.18627 -0.1185337,0 -0.1411115,0.0875 -0.1411115,0.18627 v 0.24835 h -0.098778 c -0.110067,0 -0.1862672,0.0254 -0.1862672,0.14112 0,0.11288 0.081845,0.14111 0.1862672,0.14111 h 0.098778 v 0.60678 c 0,0.23989 0.2003783,0.38946 0.5221126,0.38946 0.2144895,0 0.6491129,-0.096 0.6491129,-0.26529 0,-0.079 -0.059267,-0.14393 -0.135467,-0.14393 -0.098778,0 -0.1890895,0.127 -0.5108237,0.127 -0.208845,0 -0.2427118,-0.0536 -0.2427118,-0.16087 z"
         id="path17046" />
    </g>
    <g
       aria-label="SL"
       id="text1124"
       style="font-weight:bold;font-size:3.88056px;font-family:FreeMono;-inkscape-font-specification:'FreeMono, Bold';fill:#ffffff;stroke-width:0.171;stroke-linecap:round;stroke-linejoin:round"
       transform="translate(0,0.36923)">
      <path
         d="m 4.5825992,169.1308 q 0.1164168,0 0.1513418,0.066 0.038806,0.066 0.038806,0.19015 v 0.34149 q 0,0.25999 -0.1901474,0.25999 -0.031045,0 -0.058208,-0.004 -0.023283,-0.008 -0.042686,-0.0155 -0.015522,-0.0116 -0.031044,-0.0272 -0.015522,-0.0194 -0.023283,-0.0311 -0.00776,-0.0116 -0.015522,-0.0349 -0.00776,-0.0233 -0.011642,-0.031 0,-0.0116 -0.00776,-0.0349 -0.00388,-0.0272 -0.00388,-0.031 -0.027164,-0.11641 -0.1552224,-0.18626 -0.1241779,-0.0737 -0.3065642,-0.0737 -0.1823864,0 -0.3104448,0.0854 -0.1280585,0.0854 -0.1280585,0.20955 0,0.13194 0.1280585,0.20567 0.1280584,0.0699 0.2988031,0.0931 0.1707446,0.0194 0.3802948,0.0776 0.2095503,0.0543 0.3298476,0.15134 0.2289531,0.18239 0.2289531,0.48507 0,0.30269 -0.2444753,0.48896 -0.2444753,0.18626 -0.6441729,0.18626 -0.3220865,0 -0.6053674,-0.15134 -0.077611,0.0931 -0.1552224,0.0931 -0.1979085,0 -0.1979085,-0.25611 v -0.25612 q 0,-0.12806 0.042686,-0.19015 0.042686,-0.066 0.1513418,-0.066 0.034925,0 0.062089,0.008 0.031044,0.008 0.050447,0.0233 0.019403,0.0155 0.031044,0.031 0.015522,0.0116 0.023283,0.0349 0.011642,0.0233 0.015522,0.0349 0.00388,0.0116 0.00776,0.031 0.00776,0.0194 0.00776,0.0233 0.027164,0.10478 0.1862669,0.17851 0.1591029,0.0737 0.3531309,0.0737 0.2173114,0 0.3647727,-0.0854 0.1474612,-0.0854 0.1474612,-0.20955 0,-0.11641 -0.1164168,-0.18626 -0.1125362,-0.0699 -0.263878,-0.0931 -0.1474613,-0.0233 -0.3492504,-0.0699 -0.1979086,-0.0466 -0.3182059,-0.11253 -0.1474613,-0.0854 -0.2328336,-0.22896 -0.085372,-0.14358 -0.085372,-0.31044 0,-0.29492 0.2405948,-0.48895 0.2405947,-0.19791 0.6014868,-0.19791 0.2988031,0 0.5044727,0.12806 0.031044,-0.0737 0.062089,-0.1009 0.031045,-0.0272 0.089253,-0.0272 z"
         id="path1959" />
      <path
         d="m 7.1166063,170.44243 q 0.1125362,0 0.1513418,0.066 0.042686,0.066 0.042686,0.19403 v 0.74506 H 5.47901 q -0.256117,0 -0.256117,-0.19402 0,-0.11254 0.06597,-0.15135 0.06597,-0.0427 0.1901474,-0.0427 h 0.2211919 v -1.48626 H 5.47901 q -0.256117,0 -0.256117,-0.19402 0,-0.11254 0.06597,-0.15135 0.06597,-0.0427 0.1901474,-0.0427 h 0.8304398 q 0.256117,0 0.256117,0.19403 0,0.19402 -0.256117,0.19402 H 6.0882579 v 1.48626 h 0.8343204 v -0.35701 q 0,-0.26 0.194028,-0.26 z"
         id="path1961" />
    </g>
    <g
       aria-label="In"
       id="text1946"
       style="font-weight:bold;font-size:3.175px;font-family:FreeMono;-inkscape-font-specification:'FreeMono, Bold';fill:#ffffff;stroke-width:0.171;stroke-linecap:round;stroke-linejoin:round">
      <path
         d="m 4.6570033,270.68384 q 0.1016,0 0.155575,0.0349 0.053975,0.0317 0.053975,0.12382 0,0.15875 -0.20955,0.15875 h -0.95885 q -0.20955,0 -0.20955,-0.15875 0,-0.0921 0.053975,-0.12382 0.053975,-0.0349 0.155575,-0.0349 h 0.320675 v -1.21602 h -0.320675 q -0.20955,0 -0.20955,-0.15875 0,-0.0921 0.053975,-0.12383 0.053975,-0.0349 0.155575,-0.0349 h 0.95885 q 0.1016,0 0.155575,0.0349 0.053975,0.0317 0.053975,0.12383 0,0.15875 -0.20955,0.15875 h -0.320675 v 1.21602 z"
         id="path1142" />
      <path
         d="m 5.4126545,271.00134 q -0.20955,0 -0.20955,-0.15875 0,-0.15875 0.20955,-0.15875 h 0.01905 v -0.75247 q -0.193675,-0.006 -0.193675,-0.15875 0,-0.15875 0.212725,-0.15875 h 0.29845 v 0.1524 q 0.1143,-0.10795 0.20955,-0.14923 0.09525,-0.0444 0.225425,-0.0444 0.24765,0 0.4064,0.1397 0.15875,0.1397 0.15875,0.3937 v 0.57785 q 0.193675,0 0.193675,0.15875 0,0.15875 -0.20955,0.15875 h -0.282575 q -0.212725,0 -0.212725,-0.15875 0,-0.15875 0.193675,-0.15875 v -0.56515 q 0,-0.2286 -0.28575,-0.2286 -0.111125,0 -0.200025,0.0476 -0.085725,0.0476 -0.19685,0.16827 v 0.57785 h 0.01905 q 0.20955,0 0.20955,0.15875 0,0.15875 -0.20955,0.15875 z"
         id="path1144" />
    </g>
    <g
       inkscape:label="Layer 1"
       id="g722"
       transform="translate(-86.729468,67.22784)">
      <path
         inkscape:connector-curvature="0"
         id="path718"
         d="m 91.773153,127.33454 c -1.609548,0 -2.918685,-1.30916 -2.918685,-2.91871 0,-1.60954 1.309137,-2.91867 2.918685,-2.91867 1.609549,0 2.918682,1.30913 2.918682,2.91867 0,1.60955 -1.309133,2.91871 -2.918682,2.91871"
         style="fill:#c7c7db;fill-opacity:1;fill-rule:nonzero;stroke:#4b4b77;stroke-width:0.45;stroke-miterlimit:4;stroke-dasharray:none;stroke-opacity:1" />
      <path
         inkscape:connector-curvature="0"
         id="path720"
         d="m 93.57287,124.41583 c 0,0.99357 -0.806153,1.79974 -1.799717,1.79974 -0.993567,0 -1.79972,-0.80617 -1.79972,-1.79974 0,-0.99356 0.806153,-1.79969 1.79972,-1.79969 0.993564,0 1.799717,0.80613 1.799717,1.79969"
         style="fill:#000000;fill-opacity:1;fill-rule:nonzero;stroke:none;stroke-width:0.352778" />
    </g>
  </g>
  <g
     inkscape:groupmode="layer"
     id="layer5"
     inkscape:label="components"
     style="display:none" />
</svg>
