<?xml version="1.0" encoding="UTF-8" standalone="no"?>
<!-- Created with Inkscape (http://www.inkscape.org/) -->

<svg
   xmlns:dc="http://purl.org/dc/elements/1.1/"
   xmlns:cc="http://creativecommons.org/ns#"
   xmlns:rdf="http://www.w3.org/1999/02/22-rdf-syntax-ns#"
   xmlns:svg="http://www.w3.org/2000/svg"
   xmlns="http://www.w3.org/2000/svg"
   xmlns:sodipodi="http://sodipodi.sourceforge.net/DTD/sodipodi-0.dtd"
   xmlns:inkscape="http://www.inkscape.org/namespaces/inkscape"
   width="10.16mm"
   height="128.5mm"
   viewBox="0 0 10.16 128.5"
   version="1.1"
   id="svg4352"
   inkscape:version="0.92.3 (2405546, 2018-03-11)"
   sodipodi:docname="STrig.svg">
  <defs
     id="defs4346" />
  <sodipodi:namedview
     id="base"
     pagecolor="#ffffff"
     bordercolor="#666666"
     borderopacity="1.0"
     inkscape:pageopacity="0.0"
     inkscape:pageshadow="2"
     inkscape:zoom="2.8284271"
     inkscape:cx="-182.03557"
     inkscape:cy="319.38831"
     inkscape:document-units="mm"
     inkscape:current-layer="layer1"
     showgrid="false"
     inkscape:snap-bbox="false"
     inkscape:snap-nodes="false"
     inkscape:snap-bbox-midpoints="true"
     inkscape:snap-others="false"
     inkscape:snap-page="true"
     inkscape:window-width="1920"
     inkscape:window-height="1020"
     inkscape:window-x="0"
     inkscape:window-y="31"
     inkscape:window-maximized="1"
     inkscape:bbox-nodes="false"
     inkscape:snap-grids="false"
     inkscape:snap-global="false" />
  <metadata
     id="metadata4349">
    <rdf:RDF>
      <cc:Work
         rdf:about="">
        <dc:format>image/svg+xml</dc:format>
        <dc:type
           rdf:resource="http://purl.org/dc/dcmitype/StillImage" />
        <dc:title></dc:title>
      </cc:Work>
    </rdf:RDF>
  </metadata>
  <g
     inkscape:label="Layer 1"
     inkscape:groupmode="layer"
     id="layer1"
     transform="translate(0,-168.5)">
    <path
       inkscape:connector-curvature="0"
       style="fill:#000000;fill-opacity:1;fill-rule:nonzero;stroke:none;stroke-width:0.28965792"
       d="M 10.173126,168.59302 H 0.0253395 V 296.90629 H 10.173126 Z m 0,0"
       id="path30841"
       sodipodi:insensitive="true" />
    <path
       inkscape:connector-curvature="0"
       style="fill:#ababab;fill-opacity:1;fill-rule:nonzero;stroke:none;stroke-width:0.28858876"
       d="M 10.198466,168.5 H 0 V 296.99931 H 10.198466 Z M 10.073954,296.81328 H 0.12451149 V 168.68741 H 10.073954 Z m 0,0"
       id="path30843" />
    <g
       aria-label="docB"
       inkscape:transform-center-x="-0.18898811"
       inkscape:transform-center-y="1.3229168"
       style="font-style:normal;font-variant:normal;font-weight:normal;font-stretch:normal;font-size:2.82222223px;line-height:1.25;font-family:Chalkduster;-inkscape-font-specification:'Chalkduster, Normal';font-variant-ligatures:normal;font-variant-caps:normal;font-variant-numeric:normal;font-feature-settings:normal;text-align:start;letter-spacing:0px;word-spacing:0px;writing-mode:lr-tb;text-anchor:start;fill:#000000;fill-opacity:1;stroke:none;stroke-width:0.26458332"
       id="text1992"
       transform="translate(-2.1774356,0.26818349)">
      <path
         d="m 5.4781167,289.65322 q 0,0.003 0.00312,0.009 0.00624,0.003 0.00936,0.006 h 0.00624 q 0.018711,0 0.021829,-0.0218 0.00624,-0.0218 0.00624,-0.0374 0.00936,0.0312 0.00936,0.053 0,0.0218 0,0.0468 0,0.0218 0.00312,0.0561 0.00312,0.0312 0.018711,0.0873 -0.018711,-0.006 -0.021829,0.0156 0,0.0187 0.00624,0.0468 0.00624,0.0281 0.012474,0.0561 0.00936,0.0281 0.00936,0.0374 v 0.0125 q 0.00312,0.0125 0.00936,0.0374 0.00936,0.0218 0.018711,0.0468 0.00936,0.025 0.015592,0.0468 0.00936,0.0218 0.012474,0.0281 0.00936,0.0187 0.04054,0.0686 0.034303,0.0499 0.074844,0.10603 0.04054,0.053 0.08108,0.0967 0.04054,0.0405 0.065488,0.0405 h 0.00624 q 0.00624,-0.003 0.021829,-0.0156 0.015592,-0.0125 0.021829,-0.0125 h 0.00624 q 0.00312,0 0.00312,0 0.00312,-0.003 0.00936,-0.003 0,0 0.00624,0.003 h 0.00624 q 0.00312,0 0.00624,0.0125 0.00312,0.0125 0.00624,0.0156 0.012474,0.006 0.021829,0 0.012474,-0.009 0.018711,0.0125 v 0.0218 0.0187 q 0.00312,0.006 0.018711,0.009 0.018711,0.003 0.024948,0.006 v 0.0125 q -0.00312,0.003 -0.015592,0.0156 -0.012474,0.0125 -0.012474,0.0156 -0.00312,0.006 0,0.0437 0.00312,0.0343 0,0.0405 -0.00312,0.006 -0.021829,0.0218 -0.018711,0.0156 -0.018711,0.0218 -0.00312,0.006 -0.00936,0.0249 -0.00312,0.0156 -0.00312,0.0218 -0.018711,0 -0.034303,-0.0156 -0.015592,-0.0187 -0.034303,-0.0187 -0.00312,0 -0.00624,0.003 -0.00312,0.003 -0.00936,0.0187 -0.00312,0.0187 -0.00624,0.0218 h -0.012512 q -0.00312,-0.003 -0.021829,-0.0218 -0.015592,-0.0187 -0.018711,-0.0187 -0.024948,-0.009 -0.053014,-0.006 -0.024948,0 -0.049896,-0.003 -0.021829,-0.006 -0.037422,-0.0249 -0.012474,-0.0187 -0.015592,-0.0655 -0.00624,0 -0.018711,0.006 -0.00936,0.006 -0.012474,0.006 -0.00312,0 -0.00312,0.003 0,-0.0686 -0.018711,-0.0811 -0.018711,-0.0156 -0.04054,-0.0156 -0.021829,0 -0.04054,-0.003 -0.018711,-0.003 -0.018711,-0.0561 -0.024948,0 -0.024948,-0.003 0.00312,-0.003 -0.021829,0.0156 v -0.0748 q 0,-0.003 -0.00624,-0.006 -0.00624,-0.006 -0.00936,-0.006 l -0.028066,0.0593 q -0.00312,-0.006 -0.00936,-0.0281 -0.00312,-0.0249 -0.00312,-0.0312 v -0.0125 q -0.00312,0 -0.00936,0 -0.00312,-0.003 -0.00624,-0.003 l -0.043659,0.0156 v -0.0156 q 0,-0.0156 0.00624,-0.0218 0.00624,-0.009 0.00624,-0.0249 0,-0.0218 -0.028066,-0.053 -0.024948,-0.0312 -0.04054,-0.0405 -0.00624,0.0187 -0.024948,0.0437 -0.018711,0.0218 -0.034303,0.0281 -0.00312,0 -0.021829,0.006 -0.015592,0.003 -0.037422,0.009 -0.021829,0.003 -0.043659,0.009 -0.018711,0.003 -0.024948,0.003 -0.015592,0.003 -0.021829,0.0156 -0.00312,0.009 -0.00936,0.0218 -0.00624,0.0125 -0.015592,0.0218 -0.00936,0.009 -0.034303,0.009 -0.015592,0 -0.015592,-0.0125 -0.015592,0.0249 -0.012474,0.0312 0.00312,0.003 0.00312,0.0281 h 0.015592 q 0,0.0125 -0.028066,0.0312 -0.024948,0.0187 -0.059251,0.0374 -0.034303,0.0187 -0.068606,0.0312 -0.034303,0.0125 -0.049896,0.0125 -0.00624,0 -0.015592,-0.003 -0.00936,-0.006 -0.012474,-0.009 0,0.006 -0.00624,0.0218 -0.00312,0.0125 -0.00624,0.0187 l -0.00624,0.003 -0.00936,-0.003 q -0.00312,0 -0.015592,-0.003 -0.012474,-0.006 -0.018711,-0.009 v 0.0561 h -0.00624 q -0.012474,0 -0.015592,-0.003 -0.018711,-0.003 -0.04054,-0.009 -0.018711,-0.006 -0.018711,-0.0312 0,-0.0156 0.00936,-0.0218 0.00936,-0.006 0.00936,-0.0249 0,-0.0156 -0.00312,-0.0281 -0.00312,-0.0125 -0.018711,-0.0125 -0.018711,0 -0.028066,0.0218 -0.00624,0.0187 -0.00936,0.0437 -0.00312,0.0218 -0.00312,0.0468 0,0.0218 0,0.0249 -0.00936,0 -0.028066,0 -0.018711,0 -0.04054,0.003 -0.021829,0 -0.04054,0.003 -0.018711,0 -0.028066,0 -0.00624,0 -0.018711,0.006 -0.00936,0.003 -0.012474,0.006 0.012474,-0.0343 -0.012474,-0.078 -0.021829,-0.0437 -0.053014,-0.0437 0,0.0468 0.018711,0.0811 0.021829,0.0343 0.021829,0.078 0,0.003 -0.00312,0.0125 0,0.006 0,0.009 -0.034303,-0.0437 -0.053014,-0.0561 -0.018711,-0.0125 -0.043659,-0.0561 0,-0.003 -0.00624,-0.006 -0.00624,-0.006 -0.00936,-0.009 h -0.00936 q -0.00936,0 -0.015592,0.0125 -0.00312,0.009 -0.00624,0.0218 -0.00312,0.0125 -0.00312,0.0249 0,0.0125 0,0.0156 -0.031185,0 -0.04054,-0.0187 -0.00624,-0.0187 -0.012474,-0.0374 -0.00312,-0.0218 -0.015592,-0.0343 -0.00936,-0.0125 -0.04054,0.003 -0.00936,0.0218 -0.015592,0.0468 -0.00624,0.0249 -0.012474,0.0499 h -0.012474 q -0.00624,-0.006 -0.021829,-0.0312 -0.012474,-0.025 -0.028066,-0.025 h -0.00624 q -0.00312,0.006 -0.00936,0.0218 -0.00312,0.0125 -0.00312,0.0187 -0.034303,-0.003 -0.068606,-0.0437 -0.034303,-0.0437 -0.034303,-0.078 0.015592,0 0.028066,-0.006 0.015592,-0.006 0.015592,-0.0249 0,-0.0343 -0.021829,-0.0624 -0.018711,-0.0312 -0.018711,-0.0593 0,-0.0156 0.00624,-0.0249 0.00624,-0.009 0.00624,-0.0249 0,-0.0281 -0.028066,-0.0281 -0.018711,0 -0.024948,0.0156 -0.00624,0.0156 -0.024948,0.0156 -0.00312,0 -0.00624,0 0,-0.003 -0.00312,-0.003 -0.021829,-0.053 -0.031185,-0.0967 -0.00936,-0.0437 -0.00936,-0.0967 0,-0.0561 0.00312,-0.0904 0.00312,-0.0374 0.024948,-0.0998 0.00312,-0.0125 0.012474,-0.0125 0.00936,-0.003 0.018711,-0.003 0.00936,0 0.015592,-0.003 0.00936,-0.003 0.00936,-0.0218 h -0.031185 q 0,-0.0374 0.012474,-0.0468 0.015592,-0.0125 0.031185,-0.0187 0.015592,-0.006 0.028066,-0.0156 0.015592,-0.009 0.015592,-0.0405 v -0.006 q 0,-0.003 -0.00624,-0.006 -0.00312,-0.006 -0.00624,-0.009 0.012474,-0.0249 0.021829,-0.053 0.012474,-0.0281 0.024948,-0.053 0.012474,-0.0249 0.031185,-0.0468 0.018711,-0.0218 0.049896,-0.0312 0.00312,-0.003 0.018711,0 0.018711,0 0.021829,0 0.012474,-0.009 0.015592,-0.0218 0.00312,-0.0156 0.00624,-0.0281 0.00624,-0.0156 0.021829,-0.0249 0.015592,-0.0125 0.049896,-0.0125 0.00312,0 0.00624,0.003 0.00312,0 0.00624,0.006 0.00624,0.006 0.00936,0.006 l 0.00624,0.003 q 0.00312,0 0.00624,-0.003 0.00312,0 0.00624,-0.006 0.00624,-0.006 0.00936,-0.006 l 0.00624,-0.003 q 0.015592,0 0.021829,0.009 0.00624,0.009 0.031185,0.009 0.031185,0 0.043659,-0.0281 0.015592,-0.0312 0.031185,-0.0312 l 0.00624,0.003 q 0.00312,0 0.012474,0.006 0.012474,0.006 0.015592,0.006 0.00312,0 0.015592,-0.006 0.012474,-0.006 0.015592,-0.006 h 0.00312 q 0.00312,0 0.00312,0 0,-0.003 0.00312,-0.003 l 0.00312,0.003 0.028066,0.0686 q 0.031185,0 0.031185,-0.0281 0,-0.0249 -0.018711,-0.0374 -0.018711,-0.0125 -0.018711,-0.0468 0.024948,0 0.04054,-0.009 0.015592,-0.009 0.04054,-0.009 0.034303,0 0.071725,0.0218 0.04054,0.0218 0.074843,0.0218 h 0.00624 q -0.012474,-0.0249 0,-0.0374 0.015592,-0.0156 0.037422,-0.0218 0.024948,-0.006 0.049896,-0.006 0.028066,-0.003 0.04054,-0.003 0.00624,0 0.015592,0.006 0.00936,0.003 0.012474,0.006 -0.00936,-0.0312 0.00312,-0.0343 0.015592,-0.006 0.031185,-0.006 0.034303,0 0.049896,0.0187 0.018711,0.0187 0.049896,0.0187 0,-0.0374 -0.00624,-0.0624 -0.00312,-0.0281 0.015592,-0.0624 0,-0.003 0.012474,-0.0125 0.012474,-0.009 0.015592,-0.0156 v -0.0125 q 0,-0.0405 -0.00936,-0.0717 -0.00624,-0.0343 -0.00624,-0.078 v -0.0936 l 0.015592,-0.0249 v -0.0156 l -0.015592,-0.0312 v -0.006 q 0,-0.0218 0.00624,-0.0499 0.00936,-0.0312 0.018711,-0.0593 0.00936,-0.0312 0.018711,-0.0593 0.00936,-0.0312 0.012474,-0.0499 0,-0.003 -0.00624,-0.0125 -0.00624,-0.0125 -0.00624,-0.0156 -0.00312,-0.009 -0.00312,-0.0187 v -0.0249 q 0,-0.0811 0.028066,-0.14657 0.031185,-0.0655 0.059251,-0.13721 0.024948,0.0312 0.056133,0.0437 0.00624,-0.0249 0.018711,-0.0468 0.015592,-0.025 0.046777,-0.025 h 0.00624 q 0.046777,0.0437 0.087317,0.0998 0.043659,0.053 0.068607,0.11539 l 0.015592,0.0561 q 0.00624,0.006 0.012474,0.0405 0.00936,0.0343 0.015592,0.0405 0.00312,0.003 -0.00936,0.0218 -0.00936,0.0187 -0.018711,0.0218 -0.034303,0.006 -0.031185,0.0312 0.00624,0.0218 0.021829,0.0593 0.015592,0.0343 0.028066,0.078 0.015592,0.0405 0.00624,0.0873 -0.00624,-0.006 -0.024948,-0.0125 -0.00624,-0.006 -0.012474,-0.0156 -0.00312,-0.0125 -0.00312,-0.0156 0,-0.003 0.00624,-0.0187 0.00624,-0.0187 0.00936,-0.0218 v -0.0156 q 0,-0.0156 -0.00624,-0.0281 -0.00624,-0.0156 -0.021829,-0.0156 -0.00936,0 -0.018711,0.0156 -0.00936,0.0156 -0.018711,0.0343 -0.00936,0.0187 -0.015592,0.0374 -0.00624,0.0187 -0.00624,0.0218 0,0.0218 0.021829,0.025 0.024948,0 0.037422,-0.003 l 0.012474,0.0842 -0.028066,0.0125 q 0.00624,0.006 0.015592,0.0249 0.00936,0.0156 0.012474,0.0218 0,0.003 0.00312,0.006 0.00312,0.003 0.00624,0.009 0.00312,0.006 0.00624,0.009 0,0.003 -0.00624,0.009 -0.00624,0.003 -0.00936,0.006 0,0 -0.00312,0.003 0,0.0281 -0.00624,0.0499 -0.00624,0.0187 -0.015592,0.0374 -0.00936,0.0156 -0.015592,0.0343 -0.00624,0.0156 -0.00624,0.0405 -0.021829,0 -0.043659,-0.009 -0.021829,-0.009 -0.021829,0.0281 0,0.0281 0.012474,0.0437 0.012474,0.0125 0.028066,0.0218 0.018711,0.009 0.034303,0.0187 0.018711,0.009 0.024948,0.0281 0,0.006 0.00312,0.0218 0.00624,0.0156 0.00936,0.0374 0.00624,0.0187 0.00936,0.0374 0.00312,0.0156 0.00624,0.0187 0,0.0125 0.012474,0.0125 0.012474,-0.003 0.021829,-0.0125 l 0.00936,0.0312 q -0.043659,0.003 -0.043659,0.053 z m -1.3503008,0.54885 q 0,0.0281 0.034303,0.0499 0.037422,0.0218 0.053014,0.0374 l 0.056133,0.0748 q 0.018711,0.0187 0.059251,0.0312 0.043659,0.009 0.068606,0.0218 0.00936,0 0.04054,0.003 0.034303,0 0.043659,0 0.056133,0 0.096673,-0.006 0.04054,-0.006 0.077962,-0.0187 0.04054,-0.0125 0.08108,-0.0312 0.043659,-0.0187 0.099791,-0.0437 0.012474,-0.006 0.034303,-0.0218 0.024948,-0.0156 0.049896,-0.0281 0.024948,-0.0156 0.043659,-0.025 0.021829,-0.0125 0.028066,-0.009 l 0.099791,-0.0998 h 0.037422 v 0.0717 h 0.037422 q 0,-0.003 -0.00312,-0.006 0,-0.006 0,-0.009 l -0.015592,-0.0312 v -0.006 q 0,-0.0125 0.00936,-0.0312 0.00936,-0.0187 0.024948,-0.0187 0,0 0.00624,0.003 h 0.00312 l 0.012474,0.0125 0.04054,0.0281 q 0.034303,-0.0156 0.034303,-0.0499 0,-0.0156 -0.024948,-0.0281 -0.021829,-0.0125 -0.034303,-0.0187 0.00312,-0.006 0.012474,-0.0218 0.012474,-0.0156 0.012474,-0.0218 v -0.009 q 0,-0.006 -0.00312,-0.0249 0,-0.0187 -0.00624,-0.0374 -0.00312,-0.0187 -0.012474,-0.0312 -0.00624,-0.0156 -0.018711,-0.0125 -0.00312,0 -0.012474,0.0156 -0.00936,0.0125 -0.015592,0.0156 h -0.028066 q -0.00312,-0.0218 -0.012474,-0.0624 -0.00936,-0.0405 -0.043659,-0.0405 -0.028066,0 -0.043659,0.0312 l -0.04054,-0.0561 q 0,-0.003 0.00312,-0.006 0.00624,-0.006 0.00936,-0.009 0.015592,-0.009 0.024948,-0.0125 0.00936,-0.006 0.012474,-0.0125 0.00624,-0.006 0.00624,-0.0156 0.00312,-0.0125 0.00312,-0.0374 -0.034303,0 -0.046777,0.0281 -0.00936,0.0249 -0.028066,0.0499 -0.00312,-0.0405 -0.021829,-0.0592 -0.015592,-0.0218 -0.034303,-0.0312 -0.018711,-0.0125 -0.034303,-0.0187 -0.012474,-0.006 -0.00936,-0.0218 -0.012474,0.0249 -0.012474,0.0312 0,0.003 0.00624,0.0156 0.00624,0.009 0.00624,0.0125 v 0.006 q 0,0.003 -0.00312,0.006 -0.018711,0 -0.04054,-0.006 -0.018711,-0.006 -0.04054,-0.006 h -0.015592 q -0.00312,0.003 -0.015592,0.009 -0.00936,0.006 -0.012474,0.006 l -0.028066,-0.0281 q 0,0 -0.00624,-0.003 l -0.00624,0.003 -0.059251,0.0281 q -0.053014,0.009 -0.1216206,0.0125 -0.065488,0.003 -0.1340945,0.0156 -0.068607,0.009 -0.1247392,0.0405 -0.056132,0.0281 -0.084199,0.0873 -0.00312,0.003 -0.00312,0.0218 0.00312,0.0187 0.00312,0.0218 -0.015592,0.0343 -0.046777,0.0624 -0.028066,0.0281 -0.028066,0.0717 0,0.0218 0.00624,0.0405 0.00936,0.0156 0.00936,0.0374 0,0.0187 -0.00936,0.0343 -0.00624,0.0125 -0.00624,0.0312 z m 1.5779497,0.43971 q 0,0.0281 0.021829,0.0405 0.024948,0.009 0.046777,0.009 0.021829,0 0.031185,-0.006 0.012474,-0.006 0.012474,-0.0312 0,-0.0218 -0.012474,-0.0343 -0.012474,-0.0125 -0.028066,-0.0187 -0.015592,-0.006 -0.034303,-0.0125 -0.015592,-0.009 -0.024948,-0.0281 -0.00312,0.006 -0.00936,0.0374 -0.00312,0.0281 -0.00312,0.0343 z M 5.291008,288.95156 q 0,0.0156 0.015592,0.0405 0.018711,0.0249 0.034303,0.0249 h 0.00624 q 0.00312,0 0.00312,-0.003 l 0.00624,-0.0125 q 0.00624,-0.0125 0.00624,-0.0125 v -0.0156 q 0,-0.006 -0.00624,-0.0343 -0.00624,-0.0312 -0.00624,-0.0374 -0.00312,0 -0.00624,0 0,-0.003 -0.00312,-0.003 l -0.00624,0.003 -0.04054,0.0405 z m -0.1434499,0.31497 q 0,0.009 0,0.0249 0.00312,0.0156 0.018711,0.0218 l 0.028066,-0.0281 q -0.00624,-0.0156 -0.021829,-0.0156 -0.015592,-0.003 -0.024948,-0.003 z m -0.4833641,0.3555 q 0,0.0343 0.034303,0.0343 0,-0.0343 -0.034303,-0.0343 z m 0.090436,0.0187 q 0.012474,-0.006 0.015592,-0.0187 0.00312,-0.0156 0.00312,-0.0249 H 4.754631 Z m 0.6954205,-0.0998 q -0.015592,0.006 -0.018711,0.0187 0,0.0125 0,0.0218 h 0.018711 z m -0.015592,0.76403 q -0.00936,0 -0.00936,0.0156 0,0.0156 0.00936,0.0156 0.012474,0 0.012474,-0.0156 0,-0.0156 -0.012474,-0.0156 z m 0.015592,-0.69542 q -0.012474,0 -0.012474,0.0156 0,0.0156 0.012474,0.0156 0.00936,0 0.00936,-0.0156 0,-0.0156 -0.00936,-0.0156 z m -0.5394966,-0.1684 q -0.012474,0 -0.012474,0.0156 0,0.0125 0.012474,0.0125 0.00936,0 0.00936,-0.0125 0,-0.0156 -0.00936,-0.0156 z m 0.04054,1.05093 q -0.00936,0 -0.00936,0.0156 0,0.0125 0.00936,0.0125 0.012474,0 0.012474,-0.0125 0,-0.0156 -0.012474,-0.0156 z m 0.2276488,-0.17152 q -0.00936,0 -0.00936,0.0156 0,0.0125 0.00936,0.0125 0.012474,0 0.012474,-0.0125 0,-0.0156 -0.012474,-0.0156 z m -1.2068508,-0.33991 h 0.015592 v -0.0281 h -0.015592 z m 0.9511357,-0.38357 q 0.018711,-0.009 0.018711,-0.0281 h -0.018711 z m -0.2120565,-0.0437 h 0.015592 v -0.0125 h -0.015592 z m 0.4677716,-0.14033 v -0.0281 l -0.012474,0.0125 z m 0.3118478,0.48024 h 0.012474 v -0.0125 h -0.012474 z m -1.5717127,0.35551 h 0.012474 v -0.0125 h -0.012474 z m 0.1559239,-0.49584 q 0,-0.006 -0.00936,-0.006 -0.00624,0 -0.00624,0.006 0.00624,0.0156 0.015592,0 z m 1.247391,-1.31912 q -0.00624,-0.003 -0.00624,0.006 0,0.009 0.00624,0.009 0.015592,-0.006 0,-0.0156 z m -0.2432412,1.80248 h 0.015592 l -0.015592,-0.0156 z m -0.2681891,0.28379 q -0.00624,-0.003 -0.00624,0.006 0,0.006 0.00624,0.006 0.00624,-0.003 0.00624,-0.006 0,-0.006 -0.00624,-0.006 z m 0.8669368,0.0842 v -0.0125 h -0.018711 z m -0.3835728,-1.19125 0.012474,-0.0156 h -0.012474 z m -1.2785758,1.23491 h 0.012474 l -0.012474,-0.0156 z m 0.7234868,-0.0748 v -0.0125 h -0.012474 z m 0.7858564,-0.97296 v 0.009 q -0.00312,-0.003 -0.00312,-0.009 z"
         style="font-style:normal;font-variant:normal;font-weight:normal;font-stretch:normal;font-size:2.82222223px;font-family:Chalkduster;-inkscape-font-specification:'Chalkduster, Normal';font-variant-ligatures:normal;font-variant-caps:normal;font-variant-numeric:normal;font-feature-settings:normal;text-align:start;writing-mode:lr-tb;text-anchor:start;fill:#13ba65;fill-opacity:1;stroke-width:0.26458332"
         id="path1994"
         inkscape:connector-curvature="0" />
      <path
         d="m 6.3779424,290.73845 q -0.00624,0 -0.024948,0.003 -0.015592,0 -0.021829,0 0,0.003 -0.00624,0.009 -0.00624,0.006 -0.00936,0.006 h -0.068607 l -0.012474,0.0281 q 0,-0.0499 -0.049896,-0.0624 -0.046777,-0.0125 -0.084199,-0.0125 -0.012474,0 -0.024948,0.003 -0.00936,0 -0.021829,0.0125 v -0.0936 l -0.00624,-0.006 q -0.00624,-0.006 -0.00624,-0.009 -0.00624,0 -0.021829,-0.006 -0.015592,-0.009 -0.034303,-0.0187 -0.018711,-0.009 -0.034303,-0.0187 -0.015592,-0.009 -0.018711,-0.0125 -0.021829,-0.009 -0.021829,-0.0312 0,-0.0249 -0.021829,-0.0374 -0.015592,0.003 -0.015592,0.0156 0,0.0125 0.00312,0.0281 0.00312,0.0156 0,0.0281 0,0.0125 -0.015592,0.0125 -0.00936,0 -0.04054,-0.009 -0.031185,-0.009 -0.031185,-0.0249 v -0.006 q 0.00624,-0.0125 0.018711,-0.0156 -0.00624,-0.006 -0.021829,-0.0156 -0.012474,-0.0125 -0.021829,-0.0125 -0.018711,0 -0.024948,0.009 -0.00312,0.009 -0.00624,0.0187 0,0.009 -0.00312,0.0187 -0.00312,0.009 -0.012474,0.009 -0.012474,0 -0.028066,-0.006 -0.012474,-0.006 -0.018711,-0.0218 0.015592,-0.003 0.015592,-0.0187 0,-0.0156 0,-0.0218 0,-0.0405 -0.024948,-0.0686 -0.024948,-0.0281 -0.049896,-0.0561 -0.00312,0 -0.00312,-0.003 -0.00312,-0.003 -0.00312,-0.009 0.034303,0 0.046777,-0.0281 0.012474,-0.0312 0.018711,-0.0593 0,-0.003 0,-0.0249 0,-0.0249 0,-0.053 0,-0.0281 0,-0.053 0,-0.0249 0,-0.0312 0,-0.0312 0.012474,-0.0561 0.015592,-0.0249 0.015592,-0.053 0,-0.003 -0.00312,-0.003 0,-0.003 0,-0.006 v -0.006 q 0,-0.003 -0.012474,-0.0187 -0.012474,-0.0187 -0.012474,-0.0218 l -0.00312,-0.003 v -0.006 l 0.00312,-0.003 q 0.012474,-0.0249 0.024948,-0.0624 0.012474,-0.0405 0.031185,-0.0655 0,-0.003 0.00312,-0.006 0,-0.003 0,-0.003 0.00312,0 0.00312,-0.003 0.04054,-0.0249 0.056133,-0.0592 0.015592,-0.0343 0.031185,-0.078 0.00312,0.0125 0.012474,0.0156 0.00936,0 0.015592,0 h 0.012474 l -0.034303,-0.0655 0.1465684,-0.0374 q 0,-0.0468 0.018711,-0.0624 0.021829,-0.0187 0.049896,-0.0249 0.028066,-0.006 0.059251,-0.0125 0.031185,-0.006 0.053014,-0.0343 h 0.1216369 v -0.0436 l -0.015592,0.003 q -0.00312,0 -0.012474,-0.006 -0.00936,-0.006 -0.012474,-0.009 l 0.012474,-0.0125 h 0.137213 l 0.015592,-0.0281 q -0.00624,0.0468 0,0.078 0.00624,0.0312 0.015592,0.0593 0.00936,0.0281 0.015592,0.0561 0.00936,0.0249 0.00936,0.0624 v 0.0218 l -0.096673,0.0842 -0.00624,0.003 q -0.015592,0 -0.015592,-0.0156 0,-0.0156 -0.024948,-0.0156 -0.037422,0 -0.04054,0.0218 -0.00312,0.0187 -0.00312,0.0499 -0.021829,0 -0.034303,0.009 -0.00936,0.006 -0.015592,0.0187 -0.00624,0.0125 -0.015592,0.0281 -0.00624,0.0125 -0.024948,0.0249 l -0.037422,0.009 q -0.00312,0.003 -0.018711,0.0312 -0.015592,0.0249 -0.021829,0.0374 -0.00936,0.0187 -0.024948,0.0218 -0.015592,0.003 -0.031185,0.006 -0.012474,0.003 -0.021829,0.009 -0.00936,0.003 -0.00936,0.0218 0,0.0187 0.00624,0.0374 0.00936,0.0187 0.00936,0.0437 0,0.0499 -0.015592,0.0655 -0.012474,0.0156 -0.04054,0.0437 v 0.009 q 0,0.0499 0.00624,0.0717 0.00936,0.0218 0.021829,0.0343 0.012474,0.009 0.028066,0.0187 0.015592,0.009 0.028066,0.0312 0.00936,0.0249 0.018711,0.0655 0.00936,0.0405 0.037422,0.0468 0.049896,0.0156 0.099791,0.0343 0.053014,0.0187 0.1060283,0.0343 0.077962,0.0218 0.1715162,0.0249 0.093554,0.003 0.1746348,0.003 0.04054,0 0.065488,-0.006 0.024948,-0.006 0.04054,-0.0187 0.015592,-0.0156 0.028066,-0.0374 0.012474,-0.0218 0.028066,-0.0499 0.021829,0.0343 0.024948,0.0312 0.00312,-0.003 0.028066,-0.003 0,-0.0156 0.00312,-0.0405 0.00312,-0.0281 0.00936,-0.053 0.00936,-0.0281 0.024948,-0.0468 0.018711,-0.0187 0.046777,-0.0187 0,0.025 0.012474,0.0312 0.012474,0.003 0.028066,0.003 0,-0.0405 0.00312,-0.0499 0.00312,-0.0125 -0.00936,-0.0468 h 0.00624 q 0.034303,0 0.049896,0.0156 0.015592,0.0156 0.021829,0.0343 0.00936,0.0187 0.015592,0.0343 0.00624,0.0156 0.021829,0.0156 l 0.00624,-0.003 q 0.00624,-0.0343 0.00936,-0.0561 0.00624,-0.0218 0.00624,-0.053 0,-0.0187 -0.00936,-0.0281 -0.00936,-0.0125 -0.018711,-0.0218 -0.00936,-0.009 -0.018711,-0.0187 -0.00936,-0.0125 -0.00936,-0.0281 0,-0.0125 0.015592,-0.0405 0.015592,-0.0281 0.015592,-0.053 0,-0.0343 -0.015592,-0.053 -0.015592,-0.0187 -0.043659,-0.0624 -0.00936,0.006 -0.028066,-0.006 -0.015592,-0.0156 -0.037422,-0.0343 -0.018711,-0.0218 -0.04054,-0.0405 -0.021829,-0.0218 -0.043659,-0.0281 -0.015592,-0.003 -0.059251,-0.006 -0.04054,-0.006 -0.087317,-0.0156 -0.046777,-0.009 -0.084199,-0.0218 -0.034303,-0.0156 -0.034303,-0.0374 v -0.11227 q 0,-0.006 -0.012474,-0.0156 -0.012474,-0.009 -0.018711,-0.0156 l -0.00624,0.006 q -0.00312,0.003 -0.00624,0.003 -0.00312,0 -0.00312,0.003 0,0.003 -0.00624,0.0156 -0.00624,0.0125 -0.00312,0.0187 0,0.003 0.012474,0.0187 0.012474,0.0156 0.012474,0.0218 0,0.003 -0.00936,0.0187 -0.00936,0.0156 -0.015592,0.0249 l -0.012474,0.0125 q 0.00312,-0.009 0,-0.0218 -0.00312,-0.0156 -0.018711,-0.0187 0,0.009 -0.00624,0.0281 -0.00624,0.0156 -0.015592,0.0249 -0.018711,-0.009 -0.031185,-0.0468 -0.012474,-0.0405 -0.018711,-0.0842 -0.00312,-0.0437 -0.00624,-0.0811 0,-0.0405 0,-0.0468 0.049896,0 0.059251,-0.0125 0.012474,-0.0125 0.037422,-0.0593 0.012474,0.006 0.012474,0.0218 0,0.0218 -0.00936,0.0405 -0.00624,0.0156 -0.00624,0.0343 0,0.0125 0.00312,0.0218 0.00624,0.009 0.024948,0.0156 0.021829,-0.0125 0.028066,-0.0312 0.00936,-0.0218 0.024948,-0.0374 0.00936,0.0156 0.012474,0.0249 0.00624,0.006 0.00624,0.0156 0,0.006 -0.00312,0.0156 0,0.006 0,0.0218 0.024948,0 0.034303,0 0.00936,-0.003 0.053014,-0.003 0,-0.0218 -0.00624,-0.0468 -0.00312,-0.0249 -0.037422,-0.0249 v -0.003 q 0.00936,0 0.021829,-0.003 0.00936,0 0.015592,0 0.00936,-0.003 0.015592,-0.003 h 0.012474 0.00312 q 0.00312,0.003 0.015592,0.0343 0.012474,0.0312 0.034303,0.0312 0.015592,0 0.018711,-0.0187 0.00624,-0.0187 0.012474,-0.0281 l 0.00936,-0.003 q 0.024948,0 0.04054,0.0218 0.015592,0.0187 0.021829,0.0374 l 0.04054,-0.0405 q 0.024948,0.0156 0.034303,0.0468 0.00936,0.0281 0.034303,0.0343 0.021829,0.009 0.059251,0.0249 0.04054,0.0125 0.077962,0.0343 0.04054,0.0218 0.068607,0.0499 0.031185,0.0249 0.031185,0.0592 v 0.22453 h 0.00936 l 0.087317,-0.0811 q -0.015592,-0.0125 -0.037422,-0.0437 -0.018711,-0.0343 -0.018711,-0.0499 v -0.009 q 0.00312,-0.006 0.00624,-0.0125 0.00624,-0.009 0.00936,-0.0156 0,0 0.00624,-0.003 0.00936,0 0.015592,0.0156 0.00936,0.0125 0.015592,0.0312 0.00936,0.0187 0.012474,0.0374 0.00312,0.0156 0.00312,0.0187 0,0.003 0.00312,0.003 h 0.00624 q 0.015592,0 0.018711,-0.0156 0.00312,-0.0156 0.00312,-0.0312 h 0.04054 q 0.012474,0.0624 0.024948,0.10603 0.015592,0.0405 0.015592,0.0967 0,0.0343 -0.00312,0.0561 -0.00312,0.0187 -0.012474,0.0343 -0.00624,0.0156 -0.018711,0.0343 -0.012474,0.0187 -0.034303,0.0468 0.00936,0.0156 0.024948,0.0187 0.018711,0.003 0.018711,0.0218 0,0.0187 -0.018711,0.0218 -0.018711,0.003 -0.043659,0.009 -0.021829,0.003 -0.04054,0.0187 -0.018711,0.0156 -0.018711,0.0561 0,0.0125 0.00624,0.0156 0.00936,0.003 0.018711,0.006 0.012474,0 0.018711,0.003 0.00936,0.003 0.00936,0.0156 0,0.003 -0.00312,0.006 -0.031185,0.009 -0.046777,0.0125 -0.012474,0.003 -0.024948,0.003 -0.00936,0 -0.021829,0 -0.012474,-0.003 -0.04054,-0.003 0,0.009 0.00312,0.0468 0.00624,0.0374 0.00624,0.0499 0,0.003 -0.00936,0.0156 -0.00624,0.009 -0.00624,0.0125 -0.00312,0.003 -0.00624,0.0218 -0.00312,0.0156 -0.00624,0.0218 0,-0.0156 -0.012474,-0.0405 -0.012474,-0.0249 -0.028066,-0.0312 -0.018711,-0.006 -0.024948,0.006 -0.00312,0.009 -0.00312,0.0218 0,0.0218 0.015592,0.0374 0.015592,0.0125 0.015592,0.0312 0,0.0218 -0.012474,0.0343 -0.012474,0.0125 -0.028066,0.0218 -0.015592,0.006 -0.031185,0.0156 -0.012474,0.009 -0.015592,0.0281 l -0.028066,-0.0561 v 0.0873 q -0.00624,0 -0.012474,0.003 -0.012474,0.006 -0.015592,0.006 H 7.026587 v -0.0842 H 7.004758 q 0,0.009 -0.00936,0.0312 -0.00936,0.0218 -0.024948,0.0468 -0.012474,0.0249 -0.028066,0.0437 -0.015592,0.0187 -0.031185,0.0187 -0.021829,0 -0.031185,-0.0156 -0.00624,-0.0156 -0.012474,-0.0405 H 6.86442 q -0.028066,0 -0.04054,0.009 -0.012474,0.009 -0.021829,0.0218 -0.00936,0.0125 -0.018711,0.0281 -0.00936,0.0125 -0.024948,0.0249 h -0.00312 q -0.015592,0 -0.018711,-0.0218 -0.00312,-0.0218 -0.00936,-0.0468 -0.00312,-0.0249 -0.015592,-0.0468 -0.00936,-0.0218 -0.04054,-0.0218 0,0.0125 0.00312,0.0343 0.00312,0.0218 0.00312,0.0499 0.00312,0.0249 0,0.0499 -0.00312,0.0249 -0.015592,0.0437 -0.012474,0 -0.012474,-0.0125 0,-0.006 0.00312,-0.0249 0.00624,-0.0156 0.00936,-0.0218 v -0.003 -0.006 q -0.00624,-0.0187 -0.015592,-0.0499 -0.00936,-0.0343 -0.015592,-0.0343 h -0.00936 q -0.00312,0 -0.037422,0.0343 -0.031185,0.0312 -0.049896,0.0499 -0.00936,0.0218 -0.018711,0.0343 -0.018711,0.0343 -0.024948,0.0343 -0.018711,0 -0.024948,-0.0156 -0.00312,-0.0125 -0.00936,-0.0281 -0.00312,-0.0156 -0.018711,-0.0281 -0.015592,-0.0156 -0.059251,-0.0156 z m 0.3929282,-0.0125 q -0.00936,0 -0.00936,0.0156 0,0.0156 0.00936,0.0156 0.012474,0 0.012474,-0.0156 0,-0.0156 -0.012474,-0.0156 z m -0.3586249,-0.106 q -0.031185,0 -0.037422,0.0249 -0.00312,0.0249 -0.00312,0.0499 v 0.0156 q 0.031185,0 0.034303,-0.0343 0.00624,-0.0343 0.00624,-0.0561 z m 0.1091467,0.053 q 0,0.006 0.00624,0.009 0.00624,0.003 0.00624,0.009 h 0.012474 q 0.04054,0 0.065488,-0.0312 0.024948,-0.0343 0.024948,-0.0717 -0.034303,0 -0.074843,0.0187 -0.04054,0.0156 -0.04054,0.0624 z m -0.2463597,0 0.012474,-0.0125 -0.012474,-0.0125 q 0,0 -0.00624,-0.003 -0.00312,0 -0.00312,0.003 0,0 -0.00312,0 h -0.00312 z m -0.2214119,-0.0967 h 0.012474 l -0.012474,-0.0156 z m 1.1600736,-0.14969 q -0.00624,0 -0.00624,0.0125 0,0.009 0.00624,0.009 0.012474,0 0.012474,-0.009 0,-0.0125 -0.012474,-0.0125 z m -0.053014,0 h 0.043659 q -0.00624,-0.0156 -0.015592,-0.0156 -0.00936,-0.003 -0.015592,-0.003 -0.00312,0 -0.00312,0.003 0,0 -0.00312,0 h -0.00624 z m 0.077962,-0.29937 q 0,0.003 0.00312,0.006 0.00312,0.006 0.00624,0.009 0.00624,0.006 0.00936,0.006 v -0.006 -0.009 q -0.00312,0 -0.00624,-0.006 -0.00312,-0.006 -0.00936,-0.006 0,0 -0.00312,0.006 z m -0.1060283,-0.0343 0.012474,-0.0125 h -0.012474 z m 0.012474,-0.10914 q -0.00312,0.003 -0.00624,0.0187 -0.00312,0.0156 -0.00624,0.0218 l -0.00312,0.0218 q 0.015592,0 0.021829,-0.0187 0.00936,-0.0218 0.00936,-0.0312 0,-0.0125 -0.015592,-0.0125 z m -0.012474,-0.0281 q -0.012474,0 -0.012474,0.0156 0,0.0125 0.012474,0.0125 0.00936,0 0.00936,-0.0125 0,-0.0156 -0.00936,-0.0156 z m 0.096673,0 q -0.012474,0 -0.012474,0.0156 0,0.0125 0.012474,0.0125 0.00936,0 0.00936,-0.0125 0,-0.0156 -0.00936,-0.0156 z m 0.137213,0.0125 h 0.015592 v -0.0125 h -0.015592 z m -0.2494782,-0.0405 q -0.00936,0 -0.00936,0.0156 0,0.0125 0.00936,0.0125 0.012474,0 0.012474,-0.0125 0,-0.0156 -0.012474,-0.0156 z m 0.087317,-0.0125 h 0.00936 v -0.0125 h -0.00936 z m -1.4937508,-0.0437 q -0.00624,0 -0.00624,0.009 0,0.006 0.00624,0.003 0.00624,0 0.00624,-0.003 0,-0.006 -0.00624,-0.009 z m 1.4344997,-0.009 h 0.015592 v -0.0156 h -0.015592 z m -1.3658932,-0.053 q 0,0.0374 0.028066,0.0374 h 0.012474 q 0.021829,-0.0312 0.04054,-0.0655 0.018711,-0.0343 0.018711,-0.0717 -0.00624,0 -0.021829,0.0156 -0.015592,0.0156 -0.034303,0.0343 -0.015592,0.0187 -0.031185,0.0343 -0.012474,0.0156 -0.012474,0.0156 z m 1.4095519,-0.0624 q -0.012474,0 -0.012474,0.0156 0,0.0125 0.012474,0.0125 0.012474,0 0.012474,-0.0125 0,-0.0156 -0.012474,-0.0156 z m 0,-0.0405 q -0.012474,0 -0.012474,0.0125 0,0.0125 0.012474,0.0125 0.012474,0 0.012474,-0.0125 0,-0.0125 -0.012474,-0.0125 z m -0.6673542,-0.0811 h 0.021829 q 0,-0.0125 -0.00624,-0.0249 -0.00312,-0.0125 -0.015592,-0.0187 z m -0.028066,-0.0842 q 0,0.003 0.00624,0.0125 0.00624,0.009 0.012474,0.0156 v -0.0405 h -0.018711 z m -0.00936,-0.0312 0.00936,-0.0125 h -0.00936 z m -0.3305586,-0.0125 h 0.00936 v -0.0561 h -0.00936 z m 0.056133,0 h 0.024948 q 0,-0.009 -0.00624,-0.0187 -0.00312,-0.009 -0.012474,-0.009 h -0.00624 z"
         style="font-style:normal;font-variant:normal;font-weight:normal;font-stretch:normal;font-size:2.82222223px;font-family:Chalkduster;-inkscape-font-specification:'Chalkduster, Normal';font-variant-ligatures:normal;font-variant-caps:normal;font-variant-numeric:normal;font-feature-settings:normal;text-align:start;writing-mode:lr-tb;text-anchor:start;fill:#fcde3f;fill-opacity:1;stroke-width:0.26458332"
         id="path1996"
         inkscape:connector-curvature="0" />
      <path
         d="m 8.3102203,290.81641 q -0.00312,-0.006 -0.00624,-0.0312 -0.00312,-0.0218 -0.00624,-0.0281 -0.00312,-0.0125 -0.015592,-0.0125 -0.012474,-0.003 -0.024948,-0.006 -0.012474,-0.003 -0.021829,-0.006 -0.00936,-0.006 -0.00624,-0.0218 -0.015592,0.0156 -0.034303,0.0312 -0.018711,0.0125 -0.034303,0.0249 v -0.0405 q -0.015592,0 -0.028066,0.0125 -0.00936,0.0125 -0.015592,0.0281 -0.00624,0.0156 -0.012474,0.0281 -0.00312,0.0125 -0.00624,0.0125 -0.018711,0 -0.018711,-0.0281 0,-0.0218 0.00936,-0.0374 0.012474,-0.0156 0.012474,-0.0405 0,-0.0499 -0.04054,-0.0499 -0.00312,0 -0.00624,0.003 -0.00312,0 -0.012474,0.009 -0.00624,0.009 -0.00936,0.0125 -0.00624,0 -0.037422,0 -0.028066,-0.003 -0.034303,0 -0.00312,0 -0.012474,0.0125 -0.00624,0.009 -0.00936,0.0125 l -0.043659,0.0218 -0.015592,-0.0218 h -0.00936 q -0.00624,0 -0.012474,0 -0.00312,-0.003 -0.00624,-0.003 -0.021829,0 -0.037422,0.009 -0.015592,0.006 -0.037422,0.006 -0.015592,0 -0.021829,-0.006 -0.00312,-0.006 -0.021829,-0.006 h -0.012474 q -0.00624,0.003 -0.021829,0.0218 -0.012474,0.0156 -0.015592,0.0218 -0.00312,-0.003 -0.00936,-0.0156 -0.00312,-0.0125 -0.00312,-0.0187 0.00312,-0.003 0.012474,-0.0218 0.00936,-0.0187 0.00936,-0.0249 l 0.00312,-0.009 q 0,-0.0249 -0.018711,-0.0249 -0.015592,0 -0.018711,0.0156 0,0.0125 0,0.0249 -0.021829,0 -0.018711,-0.0281 0.00624,-0.0281 0,-0.0343 -0.00312,-0.003 -0.012474,-0.003 -0.00936,-0.003 -0.021829,-0.003 -0.00936,-0.003 -0.018711,-0.006 -0.00624,-0.006 -0.00624,-0.0187 0,-0.0156 0.00312,-0.0249 0.00624,-0.0125 0.00624,-0.0249 v -0.0156 q 0,-0.003 -0.00936,-0.006 -0.00936,-0.003 -0.012474,-0.003 -0.021829,0 -0.028066,0.009 -0.00624,0.006 -0.00936,0.0156 -0.00312,0.009 -0.00936,0.0187 -0.00312,0.006 -0.021829,0.006 v -0.0249 q 0,-0.003 -0.00624,-0.0125 -0.00624,-0.009 -0.00624,-0.0125 0,-0.0125 0.012474,-0.0249 l 0.00936,-0.009 q 0.00312,-0.006 0,-0.0187 -0.00312,-0.0156 -0.00312,-0.0218 -0.00624,0 -0.015592,0.006 -0.00936,0.003 -0.015592,0.003 0,-0.003 -0.00936,-0.0156 -0.00936,-0.0125 -0.012474,-0.0125 h -0.012474 -0.012474 q -0.00312,0.003 -0.00936,0.0125 -0.00312,0.009 0,0.0156 0.00312,0.0156 0.012474,0.0187 0.00936,0.003 0.018711,0.003 0.012474,0 0.018711,0.003 0.00624,0 0.00624,0.0156 h -0.077917 q 0,-0.0343 -0.00936,-0.0499 -0.00936,-0.0187 -0.021829,-0.0281 -0.012474,-0.009 -0.021829,-0.0156 -0.00936,-0.009 -0.00936,-0.0249 v -0.006 q 0.00312,0 0.00624,-0.003 0.00624,-0.006 0.00936,-0.006 v -0.009 q 0,-0.0156 -0.015592,-0.0218 -0.012474,-0.006 -0.012474,-0.0218 0,-0.006 0,-0.009 0.00312,-0.006 0.00312,-0.009 0,-0.003 0.00312,-0.009 0.00624,-0.009 0.00624,-0.0125 0,-0.006 -0.015592,-0.0125 -0.015592,-0.009 -0.015592,-0.0156 -0.00312,0 -0.00312,-0.003 v -0.006 q 0,-0.0218 0.015592,-0.0281 0.015592,-0.009 0.034303,-0.0125 0.021829,-0.003 0.04054,-0.006 0.021829,-0.006 0.028066,-0.0218 -0.00624,-0.0156 -0.021829,-0.0156 -0.00312,0 -0.00624,0.003 0,0 -0.00312,0 h -0.00312 q -0.00312,0 -0.018711,0.0125 -0.012474,0.009 -0.015592,0.009 h -0.00936 -0.00624 l -0.00936,-0.009 q -0.00312,0 -0.012474,0.003 -0.00936,0.003 -0.00936,0.006 -0.00312,-0.003 -0.00312,-0.0125 0,-0.0125 0,-0.0156 0,-0.0187 0.012474,-0.0374 0.012474,-0.0218 0.028066,-0.0405 0.018711,-0.0187 0.031185,-0.0343 0.012474,-0.0156 0.012474,-0.0249 0,-0.0249 -0.012474,-0.0405 -0.012474,-0.0187 -0.012474,-0.0405 0,-0.0249 0.018711,-0.0437 0.021829,-0.0218 0.028066,-0.0561 v -0.0468 q 0.00312,-0.009 0.00936,-0.009 0.00624,0 0.012474,-0.003 0.00936,-0.003 0.012474,-0.0125 0.00624,-0.009 0.00624,-0.0343 h 0.021829 v 0.0593 q 0.00624,-0.006 0.018711,-0.0187 0.015592,-0.0125 0.021829,-0.0125 0,0 0.012474,0.003 0.012474,0.003 0.024948,0.009 0.015592,0.006 0.028066,0.0125 0.012474,0.006 0.015592,0.006 0.00312,0 0.00624,-0.003 l 0.00312,-0.003 q 0.00312,-0.003 0.00312,-0.006 -0.012474,-0.009 -0.037422,-0.0281 -0.021829,-0.0218 -0.043659,-0.0218 v -0.0405 q 0.00624,0.003 0.012474,0.006 0.00936,0.003 0.012474,0.006 h 0.00624 0.00624 q 0,-0.003 0.00312,-0.0125 0.00624,-0.009 0.00624,-0.0125 h 0.00624 0.00624 q 0,0.0187 0.00624,0.0405 0.00936,0.0187 0.031185,0.0312 0.00312,0 0.00936,-0.003 0.00936,-0.003 0.012474,-0.003 v -0.10291 q -0.00936,-0.003 -0.04054,-0.0218 -0.031185,-0.0218 -0.031185,-0.0281 v -0.006 q 0.015592,-0.0312 0.028066,-0.0499 0.015592,-0.0187 0.056133,-0.0187 h 0.018711 q 0.00624,0.003 0.00936,0.0125 0.00312,0.006 0.00312,0.009 0.00624,-0.003 0.015592,-0.0218 0.012474,-0.0218 0.024948,-0.0437 0.012474,-0.0249 0.024948,-0.0405 0.012474,-0.0187 0.021829,-0.0187 0,0.003 -0.00312,0.0312 0,0.0249 -0.00312,0.0561 0,0.0281 -0.00312,0.0561 0,0.0249 0,0.0281 0,0.006 -0.015592,0 -0.012474,-0.009 -0.015592,-0.009 -0.00624,0.006 -0.012474,0.0187 -0.00624,0.0125 -0.00936,0.0156 -0.00624,0.006 0,0.009 0,0.003 0.00312,0.006 h 0.065488 q 0,0.003 -0.00624,0.009 -0.00312,0.006 -0.00624,0.006 -0.00624,0.006 0.00312,0.0125 0.00936,0.003 -0.00312,0.003 l 0.04054,0.009 v -0.0187 -0.0748 h 0.04054 l 0.031185,0.0187 q 0.012474,0.006 0.021829,0.0156 0.00936,0.006 0.00936,0.003 -0.00312,-0.003 -0.012474,-0.0125 -0.00936,-0.0125 -0.021829,-0.0249 -0.00936,-0.0156 -0.018711,-0.0249 -0.00936,-0.0125 -0.012474,-0.0125 0.00312,-0.0125 0.012474,-0.006 0.00936,0.006 0.015592,0.0125 0.00936,0.003 0.015592,-0.003 0.00624,-0.006 0.00624,-0.0405 0,-0.0218 -0.00936,-0.0374 -0.00624,-0.0156 -0.00624,-0.0468 0,-0.003 0.018711,0.006 0.021829,0.006 0.021829,0.003 0.00312,0.003 0.00936,0.006 0.00936,0.003 0.012474,0.006 h 0.00624 0.00312 q 0.00624,-0.003 0.00624,-0.0125 0.00312,-0.009 0.00624,-0.009 0.00312,-0.003 0.024948,-0.0218 0.024948,-0.0218 0.037422,-0.0249 0.015592,-0.003 0.028066,-0.009 0.012474,-0.003 0.018711,-0.006 0.00936,-0.003 0.012474,-0.003 0.00312,0 0.012474,0.003 0.018711,0.006 0.031185,0.006 0.018711,0.006 0.043659,0.009 0.00312,0 -0.00312,0.009 -0.00624,0.006 -0.015592,0.0156 -0.00624,0.009 -0.012474,0.0156 -0.00624,0.006 -0.00312,0.006 0.021829,0 0.037422,-0.0125 0.018711,-0.0125 0.028066,-0.0281 0.012474,-0.0156 0.021829,-0.0281 0.012474,-0.0125 0.028066,-0.0125 0.00936,0 0.018711,0.0125 0.012474,0.009 0.024948,0.0249 0.012474,0.0125 0.024948,0.0249 0.012474,0.009 0.021829,0.009 0.00312,0 0.00624,-0.003 0.00312,-0.006 0.00624,-0.0187 0.00624,-0.0125 0.00624,-0.0187 0,-0.006 -0.00624,-0.006 -0.00624,-0.003 -0.015592,-0.003 -0.00624,-0.003 -0.012474,-0.006 -0.00624,-0.006 -0.00624,-0.0218 0,-0.009 0.012474,-0.009 0.015592,0 0.028066,0.003 0.015592,0.003 0.021829,0.006 0.00624,0.003 -0.00936,-0.003 l 0.065488,0.0655 q 0.00312,0.006 0.00936,0 0.00936,-0.006 0.012474,-0.0125 0.00312,-0.006 0.00624,-0.0187 0.00312,-0.0125 0.00312,-0.0156 h 0.015592 q 0.00624,0.003 0.028066,0.006 0.024948,0.003 0.031185,0.006 0,0.006 0.00312,0.0343 0.00312,0.0281 0.00624,0.0343 0,0.003 0.00312,0.006 0.00624,0.003 0.00936,0.006 0.00312,-0.003 0.00624,-0.009 0.00624,-0.009 0.00624,-0.0125 v -0.1185 l 0.00936,0.0125 0.037422,0.16217 0.068606,-0.0561 0.00312,-0.006 q 0,-0.0156 -0.021829,-0.0156 -0.021829,0 -0.028066,-0.0156 0.00312,-0.0156 0.024948,-0.0125 0.024948,0 0.028066,0 h 0.028066 q 0.00312,0.003 0.00936,0.0218 0.00936,0.0156 0.012474,0.0281 v 0.003 q 0,0.0156 -0.012474,0.0312 -0.00936,0.0125 -0.021829,0.0218 0.012474,-0.009 0.018711,-0.003 0.00624,0.003 0.00936,0.0125 0.00624,0.009 0.00936,0.0187 0.00312,0.009 0.00936,0.009 0.00312,0 0.012474,-0.003 0.012474,-0.006 0.012474,-0.009 -0.00624,0.006 -0.00312,0.0125 0.00624,0.003 0.015592,0.009 0.012474,0.006 0.021829,0.0125 0.00936,0.003 0.012474,0.009 0,0.006 0.00312,0.0312 0.00624,0.0218 0.00624,0.0281 v 0.0936 q 0,0.0156 0.00624,0.0187 0.00936,0.003 0.018711,0.006 0.00936,0.003 0.018711,0.006 0.00936,0.003 0.015592,0.0125 0,0.003 -0.00624,0.009 -0.00312,0.003 -0.00624,0.006 h -0.00312 -0.00624 q -0.015592,-0.006 -0.049896,-0.0218 -0.034303,-0.0187 -0.043659,-0.0249 -0.015592,0.003 -0.018711,0.0187 0,0.0125 0,0.0218 -0.021829,0 -0.046777,-0.0125 -0.024948,-0.0125 -0.04054,-0.0281 0.015592,-0.006 0.015592,-0.0187 0,-0.0125 0,-0.0187 0,-0.006 -0.00312,-0.0125 0,-0.009 0,-0.0125 0,-0.003 -0.015592,-0.0125 -0.015592,-0.0125 -0.021829,-0.0187 h -0.00312 q -0.024948,0 -0.04054,0.0156 -0.015592,0.0156 -0.034303,0.0312 l -0.00624,0.003 q -0.00312,0 -0.00624,-0.003 -0.00312,-0.003 -0.012474,-0.0125 -0.00624,-0.0125 -0.00936,-0.0125 -0.00624,-0.003 -0.031185,0 -0.021829,0 -0.028066,0 -0.00312,-0.003 -0.012474,-0.0125 -0.00936,-0.009 -0.012474,-0.009 h -0.00312 q -0.00936,0 -0.018711,0.0125 -0.00936,0.009 -0.021829,0.0249 -0.00936,0.0125 -0.021829,0.0281 -0.00936,0.0125 -0.024948,0.0156 -0.00624,0 -0.028066,0.006 -0.021829,0.003 -0.049896,0.006 -0.024948,0.003 -0.046777,0.006 -0.021829,0.003 -0.028066,0.003 -0.00312,0 -0.021829,0.006 -0.018711,0.006 -0.021829,0.006 h -0.08108 q -0.00624,0.0156 -0.015592,0.0218 -0.00624,0.003 -0.021829,0.003 -0.024948,0 -0.024948,-0.0187 0,-0.0187 -0.024948,-0.0187 -0.015592,0 -0.021829,0.006 -0.00624,0.006 -0.021829,0.006 -0.015592,0 -0.021829,-0.009 -0.00624,-0.009 -0.021829,-0.009 0,0.0312 0.00624,0.0468 0.00936,0.0156 0.024948,0.0405 0.00312,0.003 0.00312,0.006 0.00312,0.003 0.00624,0.006 0.00312,0.006 0.00312,0.009 0,0.0156 -0.012474,0.0249 -0.00936,0.009 -0.024948,0.0156 -0.015592,0.003 -0.031185,0.006 -0.012474,0.003 -0.021829,0.003 l -0.00312,0.009 q 0,0.009 0.00312,0.0187 0.00624,0.006 0.024948,0.003 -0.015592,0.0343 -0.031185,0.053 -0.012474,0.0187 -0.018711,0.053 v 0.0686 q 0,0.009 -0.00624,0.0343 -0.00624,0.0218 -0.012474,0.0468 -0.00312,0.0249 -0.00936,0.0437 -0.00624,0.0156 -0.00624,0.0156 l -0.08108,-0.0593 q -0.00312,-0.003 -0.00624,0.003 -0.00312,0.006 -0.00312,0.009 0,0.003 0.00312,0.0187 0.00624,0.0156 0.00624,0.0187 v 0.006 0.006 q 0,0.003 -0.00624,0.0218 -0.00312,0.0156 -0.00312,0.0187 0,0.006 0.00936,0.0218 0.00936,0.0156 0.012474,0.0156 v 0.006 q 0,0.003 -0.00312,0.003 0.021829,0 0.037422,-0.009 0.015592,-0.009 0.04054,-0.009 h 0.018711 l -0.021829,0.0561 h 0.021829 v 0.0624 q 0.034303,0 0.031185,0.003 -0.00312,0.003 -0.00312,0.0374 h 0.015592 q 0.00624,0 0.028066,0.0249 0.021829,0.0218 0.031185,0.0343 0.00312,0.003 0.00936,0.0187 0.00936,0.0156 0.012474,0.0156 0.00624,0.003 0.028066,0.003 0.024948,-0.003 0.031185,-0.003 0.00312,0 0.015592,0.0125 0.015592,0.0125 0.018711,0.0125 0.00312,0.003 0.021829,0.003 0.021829,-0.003 0.024948,-0.003 0.00624,0.003 0.031185,0.009 0.024948,0.003 0.028066,0.003 0.012474,0 0.046777,0 0.034303,0 0.071725,0.003 0.037422,0 0.071725,0 0.034303,0 0.046777,0 v 0.0405 q 0.024948,-0.006 0.024948,-0.0312 0.00312,-0.0249 0.028066,-0.0405 0.053014,-0.0249 0.1029098,-0.0312 0.049896,-0.006 0.1029097,-0.0218 0.00624,-0.003 0.024948,-0.0125 0.021829,-0.009 0.024948,-0.009 h 0.00624 q 0.00312,0 0.00312,0 0.00312,-0.003 0.00624,-0.003 0,0.003 0.00312,0.003 h 0.00624 0.00936 q 0.00312,0.003 0.00936,0.006 0.00624,0.003 0.012474,0.003 h 0.046777 q 0.012474,0.003 0.037422,0.0156 0.028066,0.0125 0.034303,0.0156 0.00624,0.006 0.012474,0.0312 0.00936,0.0249 0.00936,0.0312 h 0.015592 q -0.00312,0.003 -0.00312,0.006 0,0.003 -0.00312,0.003 0,0.003 -0.00936,0.0125 -0.00936,0.006 -0.012474,0.009 0,0.003 0,0.0125 0.00312,0.009 0,0.0125 -0.00624,0.0156 -0.024948,0.0249 -0.015592,0.009 -0.031185,0.009 l -0.00312,-0.003 q 0,-0.003 0.00312,-0.006 0.00312,-0.003 0.015592,-0.0187 0.012474,-0.0156 0.018711,-0.0187 v -0.0125 q 0,-0.0187 -0.024948,-0.0312 -0.012474,0.006 -0.015592,0.0218 -0.00312,0.0125 -0.00624,0.0218 -0.00936,0.003 -0.046777,0.006 -0.037422,0.003 -0.046777,0.006 -0.00624,0 -0.018711,0.006 -0.012474,0.006 -0.015592,0.006 v 0.0218 q 0,0.0156 0.00312,0.0281 0.00312,0.0125 0.018711,0.0187 -0.00624,-0.003 -0.024948,0.003 -0.015592,0.003 -0.021829,0.009 -0.00312,0 0,0.0218 0.00312,0.0187 0,0.0218 -0.00624,0.0156 -0.028066,0.0218 -0.021829,0.006 -0.021829,0.0405 h -0.00312 q 0,-0.009 -0.00624,-0.0312 -0.00312,-0.0249 -0.00624,-0.0312 -0.015592,0 -0.024948,-0.009 -0.00312,0 -0.00936,0.003 -0.00312,0 -0.00624,0 l 0.00312,0.006 q -0.00312,0.006 -0.00624,0.0249 -0.00312,0.0156 -0.00624,0.0218 h -0.00936 q -0.00312,0.003 -0.024948,0.0125 -0.018711,0.0125 -0.024948,0.0125 -0.00312,0.003 -0.015592,0 -0.012474,0 -0.018711,0 -0.00312,0.003 -0.028066,0.0125 -0.024948,0.009 -0.031185,0.009 -0.00312,0.003 -0.00624,0.003 h -0.00624 q -0.021829,0 -0.04054,-0.009 -0.015592,-0.006 -0.037422,-0.003 z m 0.024948,-0.0218 q 0.024948,0 0.046777,-0.009 0.021829,-0.009 0.046777,-0.009 0,-0.003 -0.00312,-0.0156 -0.00312,-0.0156 -0.00936,-0.0312 -0.00312,-0.0156 -0.00936,-0.0281 -0.00624,-0.0156 -0.00936,-0.0156 l -0.00624,0.003 q 0,0 -0.00624,0.0125 -0.00312,0.006 -0.00312,0.009 -0.00312,0.003 -0.00624,0.009 -0.00312,0.003 -0.00624,0.003 -0.00624,0.003 -0.018711,0.006 -0.00936,0.003 -0.015592,0.003 z m 0.1590423,-0.0499 q -0.00312,-0.003 -0.00312,0.0125 0,0.0156 0.00312,0.009 0.00624,-0.003 0.00624,-0.009 0,-0.009 -0.00624,-0.0125 z m 0.1746348,-0.2183 q -0.00312,0 -0.00936,0.0187 -0.00624,0.0156 -0.012474,0.0249 0,0.006 -0.00312,0.0156 0,0.006 0,0.009 0.024948,0 0.021829,-0.0125 -0.00312,-0.0156 0.00312,-0.0343 l 0.012474,-0.009 q 0,-0.003 0,-0.006 0.00312,-0.003 0.00312,-0.006 z m -0.985439,0.0343 q -0.00312,0 -0.00624,0.006 -0.00312,0.003 -0.00624,0.003 v 0.006 0.006 q 0.00312,-0.003 0.00624,-0.006 0.00624,-0.003 0.00624,-0.006 v -0.003 z m 1.116415,-0.0842 q -0.00936,0 -0.00936,0.0125 0,0.0125 0.00936,0.0125 0.00624,0 0.00624,-0.0125 0,-0.0125 -0.00624,-0.0125 z m -1.2193247,-0.0187 q -0.00936,0 -0.00936,0.009 0,0.009 0.00936,0.009 0.00624,0 0.00624,-0.009 0,-0.009 -0.00624,-0.009 z m -0.046777,-0.14345 q 0.00312,-0.003 -0.00624,-0.003 -0.00624,0 -0.00624,0.003 0,0.006 0.00624,0.006 0.00624,0 0.00624,-0.006 z m -0.046777,-0.0936 q -0.018711,0 -0.021829,0.0125 h 0.00312 0.00624 q 0.012474,0 0.024948,-0.0125 z m -0.137213,-0.0312 q -0.012474,0 -0.012474,0.0125 0,0.009 0.012474,0.009 0.00936,0 0.00936,-0.009 0,-0.0125 -0.00936,-0.0125 z m 0.068606,0.003 q 0.015592,0 0.021829,-0.0125 h -0.021829 z m 0.1621609,-0.0842 q -0.015592,0 -0.034303,0.0187 -0.015592,0.0156 -0.015592,0.0312 0.015592,0 0.043659,-0.006 0.028066,-0.006 0.028066,-0.0281 v -0.006 q -0.00936,-0.009 -0.021829,-0.009 z m -0.2307674,-0.0218 q -0.00624,-0.003 -0.00624,0.006 0,0.006 0.00624,0.003 0.00624,0 0.00624,-0.003 0,-0.006 -0.00624,-0.006 z m 0.3087293,-0.13722 q 0,0.003 0,0.009 0.00312,0.006 0.00312,0.009 0,0.003 0.00936,0.0125 0.00936,0.009 0.012474,0.0125 0.00312,0.003 0.00936,0.0218 0.00936,0.0187 0.015592,0.0218 0.00312,0.003 0.012474,0.006 0.00936,0.003 0.00936,0.006 0.00312,0 0.00624,0.0125 0.00624,0.009 0.00624,0.0125 0.018711,-0.003 0.024948,-0.0156 0.00936,-0.0156 0.00936,-0.0312 0,-0.0281 -0.012474,-0.0655 -0.00936,-0.0405 -0.046777,-0.0405 -0.021829,0 -0.04054,0.003 -0.018711,0.003 -0.018711,0.0249 z m -0.056133,0.078 h 0.015592 v -0.0125 h -0.015592 z m -0.056133,-0.0249 q 0.00312,0 0.00624,-0.006 0.00624,-0.009 0.00624,-0.0156 0,-0.0125 -0.012474,-0.0125 z m 0.056133,-0.0343 q -0.00936,0 -0.00936,0.0125 0,0.0125 0.00936,0.0125 0.012474,0 0.012474,-0.0125 0,-0.0125 -0.012474,-0.0125 z m 0.1590424,-0.10603 q 0,0.006 0.00312,0.0187 0.00312,0.0125 0.012474,0.0187 0.00936,-0.006 0.012474,-0.0187 0.00624,-0.0125 0.00624,-0.0187 z m -0.2619521,0.0125 h 0.00936 v -0.0218 h -0.00936 z m 0.1528054,-0.0343 q 0,0.006 -0.00624,0.0187 -0.00312,0.0125 -0.00624,0.0156 h 0.00624 0.00624 q 0,-0.003 0.00312,-0.006 0.00624,-0.003 0.00624,-0.006 0,-0.006 0,-0.0281 0.00312,-0.0218 0.00312,-0.0281 -0.00936,0 -0.018711,0.003 -0.00936,0.003 -0.00936,0.0156 l 0.00312,0.006 z m -0.1590424,-0.078 q 0,0.0156 0.00312,0.0312 0.00624,0.0156 0.024948,0.0156 0.00624,0 0.015592,0 0.00936,-0.003 0.00936,-0.0156 0,-0.0218 -0.018711,-0.0249 -0.018711,-0.006 -0.034303,-0.006 z m 0.1683978,-0.003 q -0.00312,-0.006 -0.00936,0.003 -0.00624,0.006 0,0.006 0.00312,0.006 0.00624,0.003 0.00624,-0.006 0.00312,-0.0125 z m 0.068606,-0.0904 -0.00936,0.009 h 0.034303 q -0.00312,0 -0.00624,-0.003 l -0.00624,-0.006 q 0,0 -0.00624,-0.003 z m 0.4740086,0 v -0.0125 h -0.00936 z m 0.5363781,-0.0249 q 0,-0.006 -0.00624,-0.006 -0.00624,0 -0.00624,0.006 0.00312,0.006 0.00624,0.006 0.00624,0 0.00624,-0.006 z m -0.4864825,-0.009 q 0.012474,-0.009 0.012474,-0.0281 h -0.012474 z m -0.093554,-0.0125 0.012474,-0.0156 h -0.012473 z m -0.059251,-0.17463 q 0,0.003 -0.00624,0.0125 -0.00312,0.006 -0.00312,0.0125 -0.00312,0.0156 -0.00936,0.0686 -0.00312,0.0499 -0.00312,0.0655 h 0.012474 q 0.012474,-0.0281 0.021829,-0.053 0.012474,-0.0249 0.012474,-0.0593 0,-0.0156 -0.00312,-0.0281 0,-0.0125 -0.021829,-0.0187 z m 0.2681891,0.10291 q 0,0.0187 0.00624,0.0312 0.00624,0.009 0.015592,0.025 0.00936,0 0.00936,-0.009 0.00312,-0.006 0.00312,-0.0343 0.00312,-0.0281 0.00312,-0.0374 -0.012474,0 -0.024948,0.006 -0.012474,0.003 -0.012474,0.0187 z m -0.021829,0.0343 q -0.00936,0 -0.00936,0.0125 0,0.009 0.00936,0.009 0.00936,0 0.00936,-0.009 0,-0.0125 -0.00936,-0.0125 z m -0.2120565,-0.0218 q 0,0.003 0.00312,0.006 0.00624,0.003 0.00936,0.006 h 0.00936 0.00312 q 0.00312,-0.006 0.00624,-0.0187 0.00312,-0.0156 0.00624,-0.0156 0.00624,-0.006 0.028066,-0.0156 0.021829,-0.009 0.028066,-0.0125 v -0.003 -0.006 q -0.00624,-0.006 -0.018711,-0.0156 -0.00936,-0.0125 -0.015592,-0.0156 -0.00936,0.0218 -0.034303,0.0437 -0.024948,0.0218 -0.024948,0.0468 z m 0.5956292,-0.0249 q -0.024948,0 -0.024948,0.0312 v 0.006 q 0.024948,-0.0156 0.024948,-0.0374 z m -0.5363781,0.0125 q -0.00936,0 -0.00936,0.0125 0,0.0125 0.00936,0.0125 0.00624,0 0.00624,-0.0125 0,-0.0125 -0.00624,-0.0125 z m -0.567563,-0.009 h 0.012474 v -0.0156 z m 0.3492695,-0.009 q 0.024948,0 0.024948,-0.0281 H 7.976543 Z m 0.4365869,-0.14345 q -0.00312,0.003 -0.00624,0.0125 -0.00312,0.009 -0.00624,0.0125 -0.00624,0.003 -0.00936,0.009 -0.00624,0.006 -0.00624,0.009 l -0.00312,0.003 q -0.00312,0.009 -0.00936,0.0374 -0.00312,0.0249 -0.00312,0.0312 h 0.00624 0.00624 l 0.00312,-0.003 q 0,-0.003 0.00624,-0.009 0.00312,-0.006 0.00936,-0.009 0.00624,-0.003 0.024948,-0.006 0.021829,-0.003 0.024948,-0.003 0.00624,-0.003 0.018711,-0.006 0.012474,-0.003 0.015592,-0.006 -0.015592,-0.0156 -0.031185,-0.0343 -0.015592,-0.0218 -0.024948,-0.0374 h -0.00936 z m -0.2775445,0.0281 q 0,0.0343 0.024948,0.0561 0.015592,-0.0125 0.021829,-0.0374 l 0.046777,0.0249 q 0.00936,0 0.00936,-0.0125 0,-0.0187 -0.00936,-0.0374 -0.00936,-0.0218 -0.024948,-0.0218 -0.021829,0 -0.046777,0.003 -0.021829,0 -0.021829,0.0249 z m 0.1340945,0.0125 q -0.00312,0.003 -0.00312,0.006 -0.00312,0 -0.00312,0.003 v 0.006 l 0.00312,0.003 0.00936,-0.0125 0.00312,-0.006 q 0,-0.003 -0.00312,-0.006 z m -0.2370043,-0.006 q 0,0.0125 0.00936,0.0125 0.00624,0 0.015592,-0.003 0.00936,-0.006 0.012474,-0.009 z m 0.3149663,-0.009 q -0.012474,0.003 -0.012474,0.0218 h 0.012474 z m 0.1465684,0.0218 h 0.012474 l -0.012474,-0.0125 z m 0.2120565,-0.0218 q -0.00936,0 -0.00936,0.0125 0,0.009 0.00936,0.009 0.00624,0 0.00624,-0.009 0,-0.0125 -0.00624,-0.0125 z m -0.4303499,-0.0343 q 0.00312,-0.006 -0.00624,-0.006 -0.00624,0 -0.00312,0.006 0,0.006 0.00312,0.006 0.00624,0 0.00624,-0.006 z m 0.2307673,-0.0249 h 0.015592 v -0.025 z"
         style="font-style:normal;font-variant:normal;font-weight:normal;font-stretch:normal;font-size:2.82222223px;font-family:Chalkduster;-inkscape-font-specification:'Chalkduster, Normal';font-variant-ligatures:normal;font-variant-caps:normal;font-variant-numeric:normal;font-feature-settings:normal;text-align:start;writing-mode:lr-tb;text-anchor:start;fill:#3f5afc;fill-opacity:1;stroke-width:0.26458332"
         id="path1998"
         inkscape:connector-curvature="0" />
      <path
         d="m 9.2525352,290.77275 q -0.0031,0.006 -0.01247,0.0156 -0.0094,0.009 -0.01559,0.0125 -0.0031,0 -0.0062,0.003 -0.0031,0.003 -0.0062,0.003 0,-0.006 -0.0031,-0.0312 -0.0031,-0.0249 -0.0062,-0.0312 -0.0031,0 -0.01559,-0.006 -0.0094,-0.006 -0.01247,-0.006 0,-0.006 0.0031,-0.0156 0.0031,-0.009 0,-0.0125 0,-0.003 -0.01247,-0.009 -0.01247,-0.006 -0.01247,-0.009 -0.0031,-0.003 0,-0.0249 0.0031,-0.0218 0.0031,-0.0281 0,-0.003 -0.0062,-0.009 -0.0062,-0.009 -0.0062,-0.0156 0,-0.003 -0.01247,-0.0125 -0.01247,-0.009 -0.01247,-0.0125 v -0.0218 -0.009 q 0,-0.006 0,-0.006 0.0031,-0.003 0.0031,-0.006 0.0062,0.006 0.01871,0.0156 0.01247,0.009 0.01871,0.0125 l 0.0062,0.003 h 0.0094 l 0.01247,-0.006 q 0.0062,-0.003 0.0094,-0.003 0.0031,0 0.0062,-0.003 h 0.0094 q 0.0031,-0.003 0.01247,-0.006 0.01247,-0.003 0.01559,-0.006 0.0031,0.006 0.0062,0.0156 0.0031,0.009 0.0062,0.0125 h 0.0062 0.0031 q 0.0062,0 0.01559,0 0.01247,-0.003 0.01559,-0.009 0,0.006 0.0031,0.0156 0.0062,0.006 0.0094,0.0125 0.0031,0.006 0.0031,0.0468 0,0.0374 0.0031,0.0436 0.0031,0.003 0.0062,0.0156 0.0031,0.009 0.0062,0.0156 0.0094,0.009 0.01559,0.009 0,-0.006 0,-0.0343 0.0031,-0.0312 0.0031,-0.0437 0,-0.003 0.0031,-0.0125 0.0062,-0.009 0.0094,-0.0125 0,-0.003 0.0062,-0.0187 0.0094,-0.0187 0.0094,-0.0218 h 0.0062 q 0.0031,0.003 0.0062,0.003 0.0062,0 0.03118,0.009 0.02807,0.006 0.0343,0.009 h 0.01247 0.0031 q 0,-0.003 0.0031,-0.009 0.0062,-0.006 0.0094,-0.006 h 0.0062 q 0.0031,0 0.0062,0.003 0.0062,0 0.01559,0.0156 0,0.003 0.0031,0.0125 0.0062,0.009 0.0062,0.0125 0.0031,-0.003 0.01247,-0.0125 0.01247,-0.0125 0.01559,-0.0125 h 0.0094 l 0.0062,0.003 q 0.0031,0 0.01247,0.006 0.0094,0.003 0.01559,0.003 h 0.0031 0.0062 l 0.03119,-0.0499 q -0.0031,0.003 0,0.009 0.0062,0.003 0.0094,0.006 l 0.0062,0.003 h 0.0062 q 0.0031,0 0.0031,-0.003 0.01247,-0.003 0.05301,-0.0187 0.04366,-0.0187 0.05613,-0.0249 0.0062,0.003 0.01871,0.009 0.01559,0.003 0.02183,0.003 l 0.0062,0.006 q 0.0062,0.006 0.0062,0.006 0.0031,0 0.0062,-0.003 0.0062,-0.006 0.0062,-0.006 l 0.0062,-0.0125 q 0.0031,-0.006 0.0031,-0.009 0,-0.003 0.0031,-0.006 0.0031,0 0.0094,-0.003 0.0062,-0.006 0.0094,-0.009 0.0062,0 0.02495,-0.003 0.01871,-0.006 0.02495,-0.006 0.0031,-0.003 0.01247,-0.006 0.012469,-0.003 0.015589,-0.006 0.0031,0 0.01871,-0.003 0.01871,-0.006 0.02183,-0.006 0.0094,0 0.01559,-0.003 0.0062,-0.003 0.0094,-0.006 0.0062,-0.006 0.01559,-0.0218 0.01247,-0.0156 0.01559,-0.0187 0.0094,-0.009 0.04054,-0.0374 0.0343,-0.0312 0.04678,-0.0405 l 0.02183,-0.009 q 0.0031,0 0.0062,-0.003 0.0062,-0.006 0.0094,-0.006 0.0062,-0.009 0.02183,-0.0281 0.01871,-0.0218 0.02495,-0.0281 0,-0.006 0.0031,-0.009 0.0062,-0.006 0.0062,-0.009 0.0062,-0.006 0.0094,-0.0187 0.0031,-0.0125 0.0094,-0.025 0.0062,-0.0125 0.01247,-0.0249 0.0031,-0.006 0,-0.0187 -0.0031,-0.0156 -0.0031,-0.0218 -0.0031,0 -0.0031,0 0.0031,-0.003 0,-0.003 -0.0062,0.003 -0.01871,0.0125 -0.0094,0.006 -0.0094,0.003 -0.0094,-0.006 -0.02183,-0.0218 -0.01247,-0.0156 -0.01871,-0.0218 l -0.02495,0.0218 q -0.0062,0 -0.02183,-0.0156 -0.01247,-0.0156 -0.01871,-0.0187 -0.0031,-0.006 -0.0062,-0.0156 -0.0031,-0.0125 -0.0031,-0.0156 0.0031,0 0.01247,-0.003 0.0094,-0.003 0.01247,-0.009 l 0.0031,-0.009 q -0.0031,0 -0.0031,-0.003 v -0.006 -0.006 q 0,-0.006 -0.0062,-0.0312 -0.0031,-0.0125 -0.0031,-0.0218 l -0.02495,-0.003 q 0.0031,-0.006 0,-0.0249 0,-0.0218 0,-0.0281 0.0031,-0.009 -0.0031,-0.0405 -0.0031,-0.0312 -0.0031,-0.0405 0,0 -0.0062,-0.003 l -0.0062,0.003 q -0.0094,0.009 -0.01559,0.009 -0.0062,0.009 -0.0094,0.0343 -0.0031,0.025 -0.0094,0.0343 0,0.009 -0.0031,0.0468 0,0.0343 0,0.0468 l -0.01247,0.0125 q -0.0062,-0.006 -0.01559,-0.0281 -0.0094,-0.0218 -0.0094,-0.0281 0,-0.003 -0.0062,-0.009 -0.0031,-0.006 -0.0062,-0.006 0,0.003 -0.0062,0.0156 -0.0062,0.009 -0.0094,0.0125 -0.0031,0.006 -0.0094,0.0281 -0.0062,0.0187 -0.0062,0.0249 -0.0062,-0.003 -0.02183,-0.0187 -0.01247,-0.0187 -0.01247,-0.0249 -0.0062,-0.009 0.0031,-0.0374 0.0094,-0.0281 0.0094,-0.0374 -0.0031,0 -0.01247,-0.003 -0.0062,-0.003 -0.01247,0 -0.0062,0.003 -0.02183,0.0187 -0.01559,0.0125 -0.01871,0.0156 l -0.01247,0.006 q -0.0031,0.003 -0.0062,0.003 0,0 -0.0031,0.003 l -0.0031,0.003 q -0.0062,0.003 -0.01871,0.0218 -0.0094,0.0187 -0.01559,0.0281 v 0.006 l -0.0031,0.006 q 0.0031,0.003 0.0094,0.0281 0.0062,0.0218 0.0031,0.0281 0.0031,0 0.0031,0.009 0.0031,0.009 0.0031,0.0125 h -0.03742 q 0,-0.003 -0.0031,-0.0125 -0.0031,-0.0125 -0.0062,-0.0125 0,-0.006 -0.0062,-0.0125 -0.0062,-0.006 -0.0094,-0.006 l -0.0031,0.0405 q -0.0062,0 -0.01871,-0.003 -0.0094,-0.006 -0.01559,-0.0125 -0.0031,0 -0.0062,-0.003 -0.0031,-0.006 -0.0062,-0.006 0.0031,-0.006 -0.0031,-0.0218 -0.0031,-0.0156 -0.0062,-0.0218 -0.0031,-0.003 -0.01871,-0.0249 -0.01247,-0.0218 -0.01871,-0.0312 l -0.01247,-0.0125 h -0.0062 -0.0094 q -0.0062,0 -0.02183,0.006 -0.01247,0.003 -0.01559,0.003 -0.0062,0.006 -0.01559,0.0156 -0.0094,0.006 -0.01247,0.0125 0,0.003 -0.0094,0.0187 -0.0062,0.0125 -0.0062,0.0187 0,0.003 -0.0062,0.0125 -0.0062,0.009 -0.0062,0.0156 -0.0031,0 -0.0094,0.006 -0.0031,0.003 -0.0094,0.003 v -0.009 q 0,-0.003 0,-0.003 0.0031,-0.003 0.0031,-0.006 v -0.0187 q 0,-0.003 0.0062,-0.0125 0.0094,-0.0125 0.01247,-0.0156 -0.0031,-0.006 -0.01247,-0.0187 -0.0094,-0.0156 -0.01559,-0.0218 -0.0062,0.003 -0.02183,0.0187 -0.01247,0.0125 -0.01559,0.0187 -0.0031,0.003 -0.0094,0.0156 -0.0062,0.009 -0.0062,0.0125 -0.0062,0 -0.02183,0.009 -0.01559,0.009 -0.02183,0.0156 -0.0031,0 -0.0062,0.003 -0.0031,0.003 -0.0094,0.006 -0.0062,0.006 -0.01247,0.009 0,0 -0.0062,0 h -0.0062 q -0.0062,0.003 -0.02807,0.006 -0.02183,0.003 -0.02495,0.003 h -0.0062 -0.0062 q -0.0062,0 -0.02807,-0.0125 -0.02183,-0.0125 -0.02807,-0.0156 -0.0031,0 -0.01871,-0.006 -0.01247,-0.006 -0.01871,-0.006 -0.0031,-0.006 -0.0062,-0.0218 -0.0031,-0.0156 -0.0031,-0.0218 0,-0.003 -0.01871,-0.025 -0.01559,-0.0249 -0.01871,-0.0312 -0.0031,-0.003 -0.0094,-0.009 -0.0031,-0.009 -0.0031,-0.0156 -0.0031,-0.006 -0.0062,-0.0249 0,-0.0218 -0.0031,-0.0281 v -0.0281 q -0.0031,0 -0.0062,-0.0125 -0.0031,-0.0125 -0.0062,-0.0125 -0.0031,-0.006 -0.0062,-0.0343 0,-0.0281 0,-0.0343 v -0.0249 -0.009 q 0,-0.003 0.0031,-0.006 0.0031,-0.003 0.01871,-0.0125 0.01559,-0.009 0.01871,-0.0125 0.0062,-0.006 0.01559,-0.0125 0.01247,-0.006 0.01247,-0.009 0.0031,-0.006 0.01559,-0.0343 0.01559,-0.0281 0.01871,-0.0312 0,-0.009 0.0094,-0.0187 l 0.0062,0.003 h 0.01247 q 0,0.003 0.0094,0.009 0.01247,0.006 0.01247,0.009 h 0.01247 q 0.0031,0 0.0031,0.003 0.0031,0 0.0062,0 h 0.0062 q 0.0062,-0.003 0.02495,-0.0125 0.02183,-0.009 0.02807,-0.0125 0.0031,-0.003 0.01247,0 0.0094,0.003 0.01247,0 0.0062,-0.003 0.02183,-0.0125 0.01559,-0.009 0.02183,-0.0125 0.0031,0 0.01247,0.006 0.01247,0.003 0.01559,0.006 h 0.0062 q 0.0031,0.003 0.0062,0.003 0.0031,-0.003 0.0062,-0.0187 0.0031,-0.0156 0.0094,-0.0156 0,-0.006 0.02183,0 0.02183,0.003 0.02807,0.003 0,-0.003 0.0031,-0.006 0.0031,-0.003 0.0031,-0.003 0,-0.003 0.0031,-0.006 l 0.0062,-0.0125 0.02807,-0.0281 q 0.0031,0 0.01871,-0.003 0.01559,-0.006 0.02183,-0.006 h 0.0062 l 0.0062,0.003 q 0.0031,0 0.0062,0.0125 0.0031,0.009 0.0094,0.0125 0,0.009 0.0094,0 0.0031,-0.003 0.0094,-0.006 l 0.0031,-0.0405 q 0.0031,0 0.01247,0.003 0.01247,0 0.01871,-0.006 0.0062,-0.003 0.01559,-0.0125 0.0094,-0.0125 0.01247,-0.0156 0.0031,0 0.01871,-0.003 0.01871,-0.003 0.02495,-0.006 0.0031,0 0.02495,-0.0156 0.02183,-0.0187 0.02807,-0.0218 0.0062,-0.003 0.02807,-0.0125 0.02183,-0.009 0.02807,-0.0125 0.0031,0 0.01871,0.003 0.01871,0.003 0.02183,0 0.0031,0 0.012469,-0.0218 0.01247,-0.0218 0.01871,-0.0281 0,-0.006 0.0031,-0.009 0.0031,-0.003 0.0062,0 h 0.01247 q 0,0 0.0094,-0.009 l 0.0062,-0.006 0.0062,-0.10603 -0.0062,-0.006 q -0.0031,-0.003 -0.0062,-0.003 0,0 -0.0031,-0.003 0,-0.003 -0.01247,0 -0.0094,0 -0.0094,-0.003 -0.0062,-0.003 -0.01559,-0.0125 -0.0094,-0.009 -0.0094,-0.0156 -0.0062,0.006 -0.024949,0.0187 -0.01559,0.0125 -0.01871,0.0187 -0.0062,0.003 -0.01559,0.0187 -0.0062,0.0156 -0.01247,0.0187 -0.0062,0.006 -0.01559,0.009 -0.0094,0.003 -0.01247,0.003 0,-0.003 -0.0062,-0.0125 -0.0031,-0.009 -0.0062,-0.0125 h -0.0031 -0.0062 q -0.0062,0.003 -0.01247,0.0125 -0.0031,0.009 -0.0094,0.009 -0.0031,0.003 -0.0062,0.003 h -0.0094 q -0.0062,0 -0.01247,0 -0.0062,-0.003 -0.0094,-0.003 -0.0062,-0.003 -0.01871,-0.0125 -0.01247,-0.009 -0.01871,-0.0156 -0.0031,0 -0.0094,-0.0125 -0.0031,-0.0125 -0.0031,-0.0156 h -0.0031 -0.0062 q -0.0031,0 -0.0031,-0.003 -0.0062,0.006 -0.01247,0.009 l -0.01247,0.006 h -0.02807 q -0.0031,0 -0.0062,0 -0.0031,-0.003 -0.0094,-0.003 h -0.01247 q -0.0031,0 -0.01871,-0.009 -0.01559,-0.009 -0.02183,-0.009 -0.01247,0 -0.05302,0 -0.04054,-0.003 -0.05301,-0.006 0,-0.003 -0.0031,-0.0125 -0.0031,-0.009 -0.0062,-0.0125 -0.0031,0 -0.0031,-0.003 0,-0.003 -0.0031,-0.003 0,0 0,-0.003 l -0.0062,-0.006 h -0.01247 -0.0094 q -0.0031,0 -0.0062,-0.003 -0.0062,0.006 -0.02183,0.0218 -0.01559,0.0125 -0.01871,0.0187 0.0031,-0.006 -0.0094,-0.0156 -0.01247,-0.0125 -0.01871,-0.0125 0,0 -0.0031,-0.003 l -0.0062,0.003 q -0.0062,0 -0.01559,0.009 -0.0094,0.006 -0.01247,0.0125 l -0.09043,-0.003 q 0,0.003 -0.0094,0.009 -0.0062,0.006 -0.0094,0.003 h -0.0343 -0.01559 q -0.0062,0 -0.01247,-0.003 -0.0031,0 -0.0094,-0.006 -0.0031,-0.006 -0.0062,-0.009 -0.0031,0 -0.01247,-0.003 -0.0062,-0.006 -0.01247,-0.009 -0.0031,-0.003 -0.01247,-0.003 -0.0062,0 -0.0094,0.003 0,0.003 0.0031,0.0187 0.0062,0.0125 0,0.0187 0,0.003 -0.01559,0.0125 -0.01559,0.009 -0.02183,0.0125 -0.0062,0.006 -0.01871,0.0218 -0.0094,0.0125 -0.0094,0.0156 -0.0031,0.003 -0.0031,0.009 v 0.0156 q 0,0 0,0.0156 v 0.0125 q 0,0.006 0,0.0249 0.0031,0.0187 0.0094,0.0281 0,0.006 0.0031,0.0218 0.0062,0.0156 0.0062,0.0218 l 0.0031,0.009 q 0,0.003 -0.0031,0.003 0,0 0,0.003 v 0.006 q -0.0031,0.006 -0.01559,0.0218 -0.0094,0.0156 -0.01247,0.0187 l 0.02807,0.21517 q 0,0.006 0.0031,0.0156 0.0062,0.006 0.0094,0.0125 v 0.14657 q 0,0.006 -0.0031,0.0249 -0.0031,0.0187 -0.0062,0.0405 0,0.0218 -0.0031,0.0437 -0.0031,0.0187 -0.0031,0.0218 -0.0031,0 -0.0031,0.003 v 0.006 0.006 q 0,0.009 0.0031,0.0187 l 0.0062,0.0187 q 0,0.006 -0.0031,0.0281 0,0.0218 0,0.0249 0,0.006 0,0.0343 0,0.0281 0,0.0624 0,0.0312 0,0.0592 0.0031,0.0249 0.0031,0.0312 0,0.003 -0.0031,0.0187 0,0.0125 0,0.0281 0,0.0156 -0.0031,0.0312 0,0.0125 0,0.0156 0,0.003 0.0031,0.0187 0.0062,0.0125 0.0094,0.0218 0.0031,0.003 0.0062,0.0125 0.0031,0.009 0.0031,0.0125 0.0062,0.009 0.0094,0.0312 0.0062,0.0218 0.0062,0.0249 0,0.003 -0.0094,0.0125 -0.0062,0.009 -0.0094,0.009 0,0.006 -0.01247,0.0343 -0.0094,0.0281 -0.01559,0.0343 -0.0062,0.006 -0.02807,0.0249 -0.02183,0.0187 -0.02807,0.0249 -0.0062,0.006 -0.01247,0.0281 -0.0031,0.0187 -0.0031,0.0249 l -0.02807,-0.003 q 0,-0.0125 -0.0031,-0.053 -0.0031,-0.0405 -0.0031,-0.053 0,-0.003 -0.01871,-0.0187 -0.01559,-0.0156 -0.03742,-0.0312 -0.02183,-0.0187 -0.04054,-0.0312 -0.01559,-0.0156 -0.01559,-0.0187 -0.0031,-0.006 -0.0062,-0.0249 -0.0031,-0.0218 -0.0031,-0.0281 0,-0.006 0,-0.0281 0.0031,-0.0218 0.0031,-0.0249 0,-0.006 -0.0062,-0.0343 -0.0031,-0.0281 0,-0.0343 0,-0.003 0,-0.0218 0,-0.0187 0,-0.0374 0.0031,-0.0218 0.0031,-0.0374 0.0031,-0.0187 0.0031,-0.0218 0,-0.003 -0.0031,-0.0156 0,-0.0156 -0.0031,-0.0312 0,-0.0156 -0.0031,-0.0281 -0.0031,-0.0156 -0.0031,-0.0218 l 0.0031,-0.0125 v -0.009 q 0.0031,-0.006 0.01559,-0.0125 0.01247,-0.009 0.01247,-0.0125 v -0.0156 l -0.02183,-0.003 q 0,-0.006 0,-0.0374 0.0031,-0.0343 0,-0.0405 0,-0.003 -0.0062,-0.006 -0.0031,-0.006 -0.0062,-0.009 -0.0031,0 -0.01247,-0.003 -0.0094,-0.006 -0.01247,-0.006 v -0.009 -0.006 q 0.0031,-0.003 0.0094,-0.0156 0.0062,-0.0125 0.01247,-0.0249 0.0094,-0.0125 0.01559,-0.025 0.0062,-0.0125 0.0062,-0.0156 0,-0.003 0.0031,-0.006 0,-0.003 0,-0.003 0.0031,0 0.0031,-0.003 0,0 -0.0031,-0.006 v -0.006 q -0.0031,0.003 -0.01247,0.006 -0.0094,0.003 -0.01247,0.006 -0.0031,0.003 -0.0062,0.003 h -0.0094 l -0.01247,-0.006 q 0.0062,-0.006 0.01559,-0.0343 0.01247,-0.0312 0.01559,-0.0405 0,-0.006 -0.0031,-0.0156 0,-0.009 0.0031,-0.0125 l -0.02807,-0.003 v -0.006 q 0,-0.006 0.0031,-0.006 0.0031,-0.006 0.01871,-0.0374 0.01871,-0.0312 0.02495,-0.0374 0.0031,-0.006 0,-0.009 -0.0031,-0.006 0,-0.009 h -0.03119 q 0,-0.006 0,-0.025 0.0031,-0.0218 0.0062,-0.0436 0.0031,-0.0249 0.0031,-0.0437 0.0031,-0.0218 0.0031,-0.0312 0,-0.003 0.0094,-0.0187 0.0094,-0.0156 0.0094,-0.0218 v -0.025 q 0.0031,-0.006 0.0031,-0.0156 0,-0.009 0,-0.0125 -0.0031,-0.003 -0.01559,-0.0312 -0.0094,-0.0281 -0.0094,-0.0343 -0.0031,-0.003 -0.0031,-0.009 0,-0.009 0.0031,-0.0125 0.0031,0 0.01559,0 0.01247,-0.003 0.01559,-0.003 0,-0.003 0.0031,-0.006 0.0062,-0.006 0.0094,-0.009 v -0.006 q 0,-0.003 0,-0.003 0.0031,0 0.0031,-0.003 0,0 -0.0031,-0.006 v -0.006 q 0,-0.003 -0.0031,-0.0156 -0.0031,-0.0125 -0.0094,-0.0249 -0.0031,-0.0156 -0.0062,-0.0249 -0.0031,-0.0125 -0.0031,-0.0156 0,-0.006 0.0031,-0.0249 0.0062,-0.0218 0.0062,-0.0281 h -0.02807 q -0.0031,-0.006 -0.0062,-0.0281 -0.0031,-0.0218 -0.0094,-0.0281 l -0.0062,-0.0187 q -0.0031,-0.009 -0.0031,-0.0187 v -0.0312 -0.0156 q 0,-0.006 0.0031,-0.009 0.0031,-0.003 0.03742,-0.003 0.0343,-0.003 0.03742,-0.003 0.0031,0 0.01559,0.003 0.01247,0 0.02495,0 0.01559,0 0.02495,0.003 0.01247,0 0.01559,0 0.0031,-0.006 0.01559,-0.0281 0.01247,-0.0249 0.01559,-0.0249 0.0031,-0.003 0.0094,-0.006 0.01247,-0.006 0.01559,-0.006 l 0.0094,-0.003 0.0031,0.003 q 0.0062,0.006 0.01871,0.0218 0.01247,0.0156 0.01871,0.0218 l 0.09979,-0.0873 q 0.0062,0.003 0.01247,0.006 0.0094,0.003 0.0094,0.006 0.0062,0 0.02183,0 0.01871,0 0.02183,0.003 0,0.003 0.0031,0.006 0.0062,0.006 0.0062,0.006 0.0031,0.006 0.0062,0.0156 0.0062,0.009 0.0094,0.0125 0.0031,0.003 0.0062,0.003 h 0.01247 0.01871 q 0.0031,-0.003 0.0062,-0.006 0.0062,-0.006 0.0094,-0.006 0,-0.006 0,-0.0187 0,-0.0156 0.0031,-0.0218 0.0031,-0.009 0.0094,-0.0218 0.0094,-0.0125 0.01559,-0.0156 0.0062,-0.006 0.02807,-0.006 0.02183,0 0.02807,0 l -0.0062,0.0624 q 0.0062,-0.006 0.02807,-0.0187 0.02183,-0.0125 0.03119,-0.0156 0.0062,-0.006 0.03119,-0.0125 0.02495,-0.009 0.03742,-0.0125 0,-0.003 0.0094,-0.003 -0.0031,0.006 -0.0031,0.0218 0.0031,0.0125 0.0031,0.0187 0,0.006 0.0031,0.0156 0.0031,0.009 0.0062,0.0125 l 0.0062,0.003 h 0.0094 q 0.0031,-0.003 0.01871,-0.0125 0.01871,-0.009 0.02495,-0.0125 l 0.0094,-0.009 q 0.0031,-0.006 0.0031,-0.0218 0.0031,-0.0156 0,-0.0218 0.0062,0.003 0.01247,0.009 0.0062,0.003 0.01247,0.006 0,0.003 0.0031,0.003 h 0.0062 l 0.0031,-0.003 q 0.0062,-0.003 0.01247,-0.0125 0.0062,-0.009 0.0062,-0.0125 0.0031,0.003 0.01247,0.0187 0.0094,0.0156 0.0094,0.0218 0.0031,0.006 -0.0031,0.0249 -0.0062,0.0187 -0.0062,0.025 0,0.003 0.0031,0.003 h 0.0062 0.0094 q 0.0031,-0.003 0.0062,-0.003 0.0062,-0.003 0.0094,-0.006 0.0062,-0.006 0.01559,-0.0249 0.0094,-0.0218 0.01559,-0.0281 h 0.0094 q 0,0.006 0,0.0281 0,0.0187 -0.0031,0.0249 0,0.006 0.0062,0.0281 0.0062,0.0218 0.0062,0.0281 0.0062,-0.006 0.02183,-0.0125 0.01559,-0.009 0.02183,-0.0156 0.0062,0.003 0.01247,0.003 0.01247,0 0.01247,0 0.0031,0 0.0062,-0.003 0.0031,-0.006 0.0062,-0.009 0.0031,-0.003 0.0094,-0.0125 0.0062,-0.0125 0.0094,-0.0156 0.0031,-0.003 0.01559,-0.009 0.01559,-0.009 0.02183,-0.0125 h 0.0094 0.0062 q 0.0031,0.003 0.0094,0.0156 0.0094,0.0125 0.01559,0.0125 h 0.02807 q 0.0031,0 0.0094,0.0156 0.0094,0.0125 0.012469,0.0156 0.0062,0 0.02495,0.006 0.02183,0.003 0.02807,0.003 l -0.0031,0.0281 q 0.0062,0 0.02183,-0.003 0.01559,-0.006 0.01871,-0.003 0.0031,0.003 0.01247,0.0156 0.0094,0.0125 0.01559,0.0125 0,0.003 0.0094,0.006 0.01247,0.003 0.01559,0.006 0,0.006 0.0031,0.009 0,0.003 0,0.003 0.0031,0 0.0031,0.003 0,0.003 0.0031,0.003 0.0031,0.006 0.0094,0.0125 0.0094,0.006 0.01559,0.0156 0.0094,0.0125 0.01559,0.0218 l -0.0031,0.0125 v 0.0156 q 0,0.006 -0.0094,0.0218 -0.0062,0.0156 -0.0062,0.0187 v 0.0125 0.0156 l 0.0062,0.006 q 0.0031,0.003 0.0062,0.003 l 0.01247,0.003 q 0.0062,0.006 0.02495,0.0281 0.02183,0.0218 0.02807,0.0312 0.0031,-0.003 0.01559,-0.006 0.01559,-0.006 0.02183,-0.009 h 0.0094 0.0031 q 0.0062,0.006 0.01559,0.0125 0.01247,0.003 0.01247,0.006 0,0.003 0.0094,0.0187 0.01247,0.0156 0.01559,0.0218 l 0.0062,0.0156 q 0.0031,0.006 0,0.0281 0,0.0187 0,0.0249 -0.0031,0.003 0.0031,0.0218 0.0062,0.0156 0.0094,0.0187 v 0.003 q 0,0.003 0,0.006 0.0031,0 0.0031,0.003 -0.0031,0.003 -0.0031,0.006 0,0.003 -0.0031,0.006 -0.0031,0.006 -0.0094,0.0156 -0.0031,0.006 -0.0062,0.0125 l -0.0094,0.006 q -0.0031,0.006 -0.01247,0.0156 -0.0062,0.009 -0.0062,0.0125 0,0.006 -0.0062,0.0281 -0.0062,0.0218 -0.0062,0.0249 -0.0062,0.009 -0.0343,0.0343 -0.02495,0.0218 -0.03118,0.0281 l 0.0031,-0.0437 q -0.0062,-0.003 -0.0094,-0.006 -0.0031,0 -0.0031,0 0,-0.003 -0.0031,-0.003 -0.0031,0 -0.0031,-0.003 -0.0062,0.003 -0.0094,0.0156 -0.0031,0.0125 -0.0094,0.0125 -0.0031,0.003 -0.02183,0.006 -0.01559,0.003 -0.01871,0.006 -0.0031,0 -0.0094,0.006 l -0.0031,0.003 0.02495,0.0437 q -0.0031,0 -0.01871,0 -0.01559,-0.003 -0.02183,-0.003 -0.0062,0.003 -0.02183,0.006 -0.01559,0.003 -0.01871,0.009 -0.0062,0 -0.01559,0.009 -0.0094,0.006 -0.0094,0.0125 -0.0031,0 -0.0031,0.003 -0.0031,0.003 -0.0031,0.006 l 0.0031,0.003 0.0062,0.006 q 0,0.003 0,0.003 0.0031,0 0.0031,0.003 0,0.003 0.0031,0.003 v 0.006 0.003 q 0,0.003 -0.0031,0.009 -0.0031,0.003 -0.0062,0.009 l -0.0062,0.0125 q -0.0031,0 -0.0031,0.0125 0.0031,0.0125 0.0031,0.0156 0.0062,0 0.01247,0 0.0062,-0.003 0.01247,-0.003 0.0062,0.003 0.0343,0.0156 0.03119,0.009 0.04366,0.0187 0.0031,0 0.01247,0.003 0.0094,0.003 0.01247,0.009 0.0062,0 0.02183,0.0125 0.01559,0.0125 0.01559,0.0156 0.0062,0.003 0.02807,0.0156 0.02183,0.0125 0.02807,0.0156 0,0.003 0.01247,0.0281 0.01559,0.0218 0.01871,0.025 0.0062,0.006 0.03118,0.0343 0.02495,0.0281 0.0343,0.0374 h 0.01559 q 0,0.003 0.0094,0.0156 0.0094,0.009 0.01559,0.0125 0,0.003 0.01559,0.009 0.01559,0.003 0.01871,0.006 0.0031,0.003 0.0062,0.009 0.0062,0.0125 0.0094,0.0156 0.0062,0.0156 0.01247,0.0437 0.0094,0.0249 0.0094,0.0281 v 0.025 q 0,0.006 -0.0031,0.009 0,0 0,0.006 v 0.009 q -0.0031,0.006 -0.01559,0.0156 -0.0094,0.009 -0.01247,0.009 -0.0031,0.003 -0.0062,0.006 -0.0031,0 -0.0062,0.006 l -0.0062,0.0125 q 0,0.003 -0.0031,0.0156 0,0.009 0,0.0156 v 0.0249 q 0,0.003 0.0062,0.009 0.0062,0.003 0.0094,0.003 0.0031,0 0.01247,-0.003 0.0094,-0.006 0.01559,-0.006 h 0.0343 q 0,0.006 -0.01247,0.0437 -0.0094,0.0374 -0.01247,0.0499 0,0.003 -0.01247,0.0125 -0.01247,0.006 -0.02807,0.0156 -0.01559,0.009 -0.02807,0.0187 -0.01247,0.009 -0.01559,0.009 l -0.0094,0.009 q -0.0031,0.003 -0.0031,0.006 -0.0031,0.006 -0.0094,0.0343 -0.0031,0.0281 -0.0031,0.0374 -0.0031,0 -0.0031,0 0,-0.003 -0.0062,-0.003 -0.0031,-0.003 -0.01247,-0.009 -0.0094,-0.009 -0.01247,-0.009 h -0.0094 -0.0062 q -0.0031,0.003 -0.0062,0.009 -0.0031,0.006 -0.0031,0.0187 -0.0031,0.006 -0.0094,0.0281 -0.0062,0.0218 -0.0094,0.0187 -0.0031,0.006 -0.01871,0.0156 -0.01559,0.009 -0.02183,0.0125 -0.0062,0.003 -0.01559,0.003 -0.0094,-0.003 -0.0094,-0.006 -0.0031,0.006 -0.0094,0.0281 -0.0062,0.0187 -0.01247,0.025 0,0.0125 -0.01247,0.0125 l -0.0062,-0.006 q -0.0062,-0.006 -0.0062,-0.009 -0.0031,0 -0.0062,-0.009 -0.0031,-0.0125 -0.0062,-0.0125 0,-0.006 -0.01247,-0.0156 -0.0094,-0.0125 -0.0094,-0.0156 -0.0062,0.003 -0.0094,0.009 -0.0031,0.003 -0.0062,0.003 0,0 -0.0062,0.0125 l -0.0062,0.0125 q 0,0.003 0.0031,0.0218 0.0031,0.0156 0.0062,0.0218 0.0062,0.0125 0.01559,0.0125 0.0031,0.003 0.0062,0.003 h 0.0062 l -0.0031,0.0218 q -0.0062,0 -0.02183,0 -0.01247,-0.003 -0.01871,-0.003 -0.0031,0 -0.01559,0.009 -0.0094,0.006 -0.01247,0.006 -0.0062,-0.003 -0.01247,-0.009 -0.0031,0 -0.0094,-0.006 l -0.0031,-0.003 q -0.0062,0 -0.01247,0.006 -0.0031,0.006 -0.0031,0.009 l -0.0062,0.0935 q -0.0031,-0.003 -0.0062,-0.009 0,-0.006 -0.0031,-0.006 -0.0031,-0.003 -0.0062,-0.003 -0.0062,0 -0.0062,-0.003 -0.0031,0 -0.0062,0 0,0.003 -0.0031,0.003 h -0.0031 q -0.0031,0 -0.0094,0.006 -0.0062,0.006 -0.0062,0.009 0,0.003 0.0062,0.0125 0.0062,0.009 0.0062,0.0156 v 0.0281 q -0.0031,0 -0.01559,-0.003 -0.01247,0 -0.01559,-0.003 0,-0.003 -0.0031,-0.006 -0.0062,-0.006 -0.0062,-0.006 -0.0031,0 -0.0094,-0.0156 -0.0031,-0.0125 -0.0031,-0.0156 h -0.01247 -0.01559 q -0.0094,0.009 -0.0094,0.0187 0,0.003 0.0031,0.006 0.0062,0.006 0.0062,0.006 v 0.006 l -0.0031,0.003 q -0.0031,0.006 -0.01871,0.0187 -0.01247,0.0156 -0.01871,0.0218 -0.0031,-0.006 -0.01559,-0.0218 -0.0094,-0.0156 -0.0094,-0.0218 l -0.0062,-0.003 h -0.0062 q -0.0062,0.006 -0.01247,0.0218 -0.0031,0.0156 -0.0031,0.0218 -0.0031,0.006 -0.0094,0.0156 -0.0062,0.009 -0.0094,0.009 -0.0062,0.006 -0.02807,0.0249 -0.01871,0.0218 -0.02495,0.0281 -0.0062,0 -0.02183,0.003 -0.01559,0.003 -0.02183,0.006 -0.0031,0 -0.01871,-0.003 -0.01247,0 -0.01871,0 h -0.02807 q -0.0062,-0.003 -0.02495,-0.0281 -0.01871,-0.0218 -0.02495,-0.0312 -0.0062,-0.006 -0.0094,-0.0343 -0.0031,-0.025 0,-0.0312 l -0.01559,-0.003 q 0.0031,0.006 -0.0031,0.0249 -0.0062,0.0218 -0.01247,0.0281 0,0.003 -0.01871,0.006 -0.01559,0.003 -0.02183,0.003 -0.0031,0 -0.02495,-0.003 -0.02183,0 -0.02495,0 -0.01247,0 -0.01247,0.0156 -0.0031,0 -0.0094,0.009 -0.0062,0.0125 -0.0094,0.0187 l -0.0062,0.006 -0.0062,0.006 q -0.0031,-0.003 -0.0062,-0.0156 -0.0031,-0.0125 -0.0062,-0.0156 -0.0031,-0.006 -0.0062,-0.0125 0,-0.006 -0.0062,-0.0125 -0.0062,-0.009 -0.01247,-0.0156 -0.0031,0 -0.01871,-0.009 -0.01559,-0.006 -0.01871,-0.006 -0.0062,-0.006 -0.01247,-0.009 -0.0062,-0.003 -0.01247,-0.003 -0.0031,-0.006 -0.01559,-0.0187 -0.0094,-0.009 -0.01247,-0.0125 z m 0.40852,0.1185 q -0.0094,0 -0.01247,0.0125 0,0.0156 0.0094,0.0156 0.0094,0 0.0094,-0.0156 0.0031,-0.0125 -0.0062,-0.0125 z m 0.05613,-0.009 0.0094,-0.0156 h -0.0094 z m -0.290018,-0.0873 q -0.0094,0 -0.0094,0.0125 0,0.0156 0.0094,0.0156 0.0062,0.003 0.0062,-0.0125 0,-0.0125 -0.0062,-0.0156 z m 0.02495,0.003 0.01559,-0.0281 h -0.01247 z m 0.130976,-0.006 0.01871,0.003 v -0.0156 q -0.0031,-0.003 -0.0094,-0.0156 -0.0031,-0.009 -0.0062,-0.009 z m 0.121621,-0.006 h 0.01871 v -0.009 q -0.0031,0 -0.0094,-0.006 -0.0031,-0.006 -0.0094,-0.006 z m -0.140331,-0.0998 q -0.0094,0 -0.0094,0.0125 0,0.0125 0.0094,0.0125 0.01247,0 0.01247,-0.0125 0,-0.0125 -0.01247,-0.0125 z m -0.314967,-0.0468 q -0.01247,0 -0.01559,0.0156 0,0.0125 0.01247,0.0125 0.0062,0 0.0062,-0.0125 0.0031,-0.0156 -0.0031,-0.0156 z m 0.146569,0.0281 q 0,-0.003 0.0062,-0.006 0.0062,-0.006 0.0062,-0.0125 0,-0.003 0,-0.009 0.0031,-0.009 0.0031,-0.0156 h -0.01559 z m 0.436587,-0.0187 h 0.01559 l 0.0031,-0.0249 h -0.01559 z m -0.919951,-0.15592 h 0.01559 q 0,-0.006 -0.0031,-0.0156 0,-0.0125 0,-0.0156 l -0.01247,-0.0125 z m 0.439705,-0.48337 h 0.04054 v -0.0125 q -0.0031,-0.003 -0.0062,-0.006 -0.0031,-0.006 -0.0062,-0.006 h -0.0062 q -0.0031,0 -0.0062,0 0,-0.003 -0.0031,-0.003 -0.0031,0 -0.0062,0.003 -0.0031,0 -0.0062,0 z m 0.8326338,0.0468 0.0062,-0.006 0.0062,-0.006 q 0.0031,-0.003 0.0062,-0.0125 0.0031,-0.009 0.0031,-0.0156 h -0.01871 z m -0.7858568,-0.16604 q -0.01559,0 -0.02807,0.0125 -0.0031,0.003 -0.0062,0.009 -0.0031,0.006 -0.0062,0.009 -0.0031,0.003 -0.0031,0.006 -0.0031,0.003 -0.0031,0.006 v 0.009 h 0.03119 z m -0.106028,-0.003 q -0.0062,0 -0.01559,0.009 -0.0031,0.003 -0.0094,0.0125 -0.0031,0.009 -0.0062,0.0125 l 0.02807,0.003 z m 0.486483,0.0405 q 0,0.003 0.0062,0.009 0.0062,0.003 0.0094,0.006 h 0.0094 v -0.0156 z m 0.3648608,-0.009 q -0.0062,-0.003 -0.0094,0.009 0,0.009 0.0062,0.006 0.01559,-0.009 0.0031,-0.0156 z m 0.02183,-0.0218 h 0.01559 l 0.0031,-0.0281 h -0.01559 z m -0.4459418,-0.0405 0.03118,0.003 q 0,-0.0125 -0.0031,-0.0156 -0.0031,-0.006 -0.01559,-0.0156 -0.0094,-0.009 -0.01247,-0.0125 z m -0.04678,-0.14969 q 0,0.003 0.0031,0.0156 0.0062,0.009 0.0094,0.0125 l 0.01559,0.0156 v -0.0187 -0.0218 q 0,-0.0125 -0.01247,-0.0125 -0.0031,0 -0.0062,-0.003 h -0.0062 q -0.0031,0 -0.0031,-0.003 z m -0.436587,-0.0374 q -0.0062,0 -0.0094,0.0125 0,0.0125 0.0062,0.0125 0.01559,0.003 0.01559,-0.009 0.0031,-0.0125 -0.01247,-0.0156 z m 0.333678,-0.0218 q 0,0.003 -0.0062,0.006 -0.0062,0.003 -0.0062,0.006 -0.0031,0.006 -0.0062,0.0218 -0.0031,0.0125 -0.0031,0.0187 h 0.01871 z m -0.171517,0.0156 q -0.01247,0 -0.01559,0.0156 0,0.0125 0.01247,0.0125 0.0094,0.003 0.0094,-0.009 0.0031,-0.0156 -0.0062,-0.0187 z m 0.162161,-0.0748 0.01559,-0.006 q 0.0031,-0.003 0.0062,-0.0125 0.0062,-0.009 0.0062,-0.0125 l -0.02495,-0.003 z m 0.255715,-0.0281 h 0.02495 v -0.0187 h -0.02495 z m -0.07484,-0.0873 q -0.0062,-0.006 -0.0094,0.003 0,0.009 0.0062,0.0125 0.0094,-0.006 0.0094,-0.009 0,-0.006 -0.0062,-0.006 z m 0.08108,-0.0374 q 0,0.003 -0.0031,0.009 0,0.006 0,0.0125 v 0.009 0.006 q 0,0.003 0.0031,0.003 0.0094,0 0.0094,-0.0125 0,-0.003 0,-0.009 0.0031,-0.006 0.0031,-0.0125 v -0.0187 z m 0.05613,-0.0187 q 0,0.006 0.0031,0.0125 0.0031,0.009 0.0062,0.009 0.0031,0 0.01247,-0.003 0.01247,-0.003 0.01871,-0.006 l 0.0094,-0.009 -0.03742,-0.0343 q -0.0031,0.003 -0.0094,0.0156 -0.0031,0.009 -0.0031,0.0156 z m 0.093549,-0.0374 q 0.0031,-0.006 -0.0062,-0.006 -0.0094,-0.003 -0.0062,0.003 0,0.009 0.0031,0.009 0.0062,0 0.0094,-0.006 z m 0.09667,-0.0904 q -0.0062,0 -0.0062,0.009 0,0.006 0.0062,0.006 0.0062,0 0.0062,-0.006 0,-0.006 -0.0062,-0.009 z m -0.2992819,-0.0935 q -0.0094,0 -0.01247,0.0125 0,0.0125 0.0094,0.0125 0.01247,0 0.01247,-0.0125 0.0031,-0.0125 -0.0094,-0.0125 z m 0,-0.0281 q -0.0094,0 -0.0094,0.0156 0,0.0125 0.0094,0.0125 0.01247,0 0.01247,-0.0125 0,-0.0156 -0.01247,-0.0156 z m -0.767145,-0.0436 h 0.01559 v -0.025 h -0.01559 z m 0.823278,-0.006 q -0.0062,0 -0.0062,0.0156 0,0.0125 0.0062,0.0125 0.01247,0 0.01247,-0.0125 0,-0.0156 -0.01247,-0.0156 z m -0.0094,-0.009 q -0.01559,-0.003 -0.01559,0.009 0,0.009 0.01559,0.0125 0.0062,0 0.0062,-0.009 0,-0.0125 -0.0062,-0.0125 z m -0.417876,-0.17151 0.0031,-0.0187 h -0.01247 z m 0.290019,0.0156 0.01871,-0.0156 -0.01559,-0.003 z m -0.289966,-0.1261 q 0,0.0156 0.0062,0.0281 l 0.0062,0.006 0.0062,0.006 q 0,0.006 0.0031,0.025 0.0062,0.0187 0.0062,0.0249 l 0.01559,0.003 0.0062,-0.10291 q -0.0062,0.003 -0.01871,0.006 -0.0094,0 -0.01247,0.003 z m -0.04054,0.0624 0.01871,0.003 -0.01871,-0.0156 z m 0.483364,-0.0249 h 0.01559 v -0.0125 h -0.01559 z"
         style="font-style:normal;font-variant:normal;font-weight:normal;font-stretch:normal;font-size:2.82222223px;font-family:Chalkduster;-inkscape-font-specification:'Chalkduster, Normal';font-variant-ligatures:normal;font-variant-caps:normal;font-variant-numeric:normal;font-feature-settings:normal;text-align:start;writing-mode:lr-tb;text-anchor:start;fill:#ff0000;fill-opacity:1;stroke-width:0.26458332"
         id="path2000"
         inkscape:connector-curvature="0"
         inkscape:label="path2000" />
    </g>
    <g
       aria-label="Out"
       style="font-style:normal;font-variant:normal;font-weight:bold;font-stretch:normal;font-size:2.82222223px;line-height:1.25;font-family:FreeMono;-inkscape-font-specification:'FreeMono, Bold';font-variant-ligatures:normal;font-variant-caps:normal;font-variant-numeric:normal;font-feature-settings:normal;text-align:start;letter-spacing:0px;word-spacing:0px;writing-mode:lr-tb;text-anchor:start;fill:#f9f9f9;fill-opacity:1;stroke:none;stroke-width:0.26458332"
       id="text8201-0-3-3"
       transform="translate(0.18708867,24)">
      <path
         d="m 3.3210631,215.26998 q 0.062089,0 0.1467556,0.0198 0.084667,0.0169 0.2003778,0.0762 0.1185333,0.0593 0.2116666,0.14958 0.095956,0.0903 0.1608667,0.25682 0.067733,0.16369 0.067733,0.37253 0,0.34713 -0.2342444,0.59831 -0.2314222,0.25118 -0.5531556,0.25118 -0.3273777,0 -0.5588,-0.25118 -0.2286,-0.254 -0.2286,-0.61242 0,-0.3556 0.2314223,-0.60678 0.2314222,-0.254 0.5559777,-0.254 z m 0,0.28222 q -0.2060222,0 -0.3556,0.17216 -0.1495777,0.16933 -0.1495777,0.4064 0,0.23989 0.1467555,0.41204 0.1495778,0.16934 0.3584222,0.16934 0.2060223,0 0.3556,-0.16934 0.1495778,-0.16933 0.1495778,-0.40357 0,-0.24271 -0.1495778,-0.41487 -0.1467555,-0.17216 -0.3556,-0.17216 z"
         id="path8297"
         inkscape:connector-curvature="0" />
      <path
         d="m 5.1967385,216.00376 q -0.084667,0 -0.1213555,-0.0423 -0.036689,-0.0452 -0.036689,-0.0988 0,-0.14111 0.1862666,-0.14111 h 0.381 v 0.95109 q 0.1721556,0 0.1721556,0.14111 0,0.14111 -0.1862667,0.14111 h -0.268111 v -0.13547 q -0.1044222,0.0988 -0.1890889,0.13547 -0.081844,0.0367 -0.1975555,0.0367 -0.2229556,0 -0.3640667,-0.12418 -0.1382889,-0.127 -0.1382889,-0.35278 v -0.51082 h -0.0762 q -0.070556,0 -0.1128889,-0.0395 -0.042333,-0.0395 -0.042333,-0.1016 0,-0.0819 0.047978,-0.11007 0.047978,-0.031 0.1382889,-0.031 h 0.3273777 v 0.78458 q 0,0.2032 0.2483556,0.2032 0.1072444,0 0.1778,-0.0367 0.070556,-0.0395 0.1806222,-0.15523 v -0.51364 H 5.224961 Z"
         id="path8299"
         inkscape:connector-curvature="0" />
      <path
         d="m 6.4628139,216.55692 q 0,0.0875 0.047978,0.12417 0.047978,0.0367 0.1947333,0.0367 0.1100667,0 0.2003778,-0.0198 0.093133,-0.0198 0.1382889,-0.0423 0.047978,-0.0254 0.093133,-0.0452 0.047978,-0.0198 0.079022,-0.0198 0.056444,0 0.095956,0.0423 0.039511,0.0423 0.039511,0.1016 0,0.079 -0.1213555,0.14393 -0.1185334,0.0621 -0.2652889,0.0903 Q 6.8212361,217 6.7027028,217 q -0.2398889,0 -0.381,-0.10442 -0.1411111,-0.10442 -0.1411111,-0.28504 v -0.60678 h -0.098778 q -0.1862667,0 -0.1862667,-0.14111 0,-0.0819 0.047978,-0.11007 0.047978,-0.031 0.1382889,-0.031 h 0.098778 v -0.24836 q 0,-0.18626 0.1411111,-0.18626 0.081844,0 0.1100667,0.048 0.031044,0.048 0.031044,0.13829 v 0.24836 h 0.5108222 q 0.090311,0 0.1382889,0.031 0.047978,0.0282 0.047978,0.11007 0,0.14111 -0.1862667,0.14111 H 6.4628139 Z"
         id="path8301"
         inkscape:connector-curvature="0" />
    </g>
    <g
       aria-label="STrg"
       style="font-style:normal;font-variant:normal;font-weight:bold;font-stretch:normal;font-size:3.88055563px;line-height:1.25;font-family:FreeMono;-inkscape-font-specification:'FreeMono, Bold';font-variant-ligatures:normal;font-variant-caps:normal;font-variant-numeric:normal;font-feature-settings:normal;text-align:start;letter-spacing:0px;word-spacing:0px;writing-mode:lr-tb;text-anchor:start;fill:#ffffff;fill-opacity:1;stroke:none;stroke-width:0.26458332"
       id="text1856">
      <path
         d="m 2.2838215,173.44985 q 0.1164166,0 0.1513416,0.066 0.038806,0.066 0.038806,0.19015 v 0.34148 q 0,0.26 -0.1901472,0.26 -0.031045,0 -0.058208,-0.004 -0.023283,-0.008 -0.042686,-0.0155 -0.015522,-0.0116 -0.031044,-0.0272 -0.015522,-0.0194 -0.023283,-0.031 -0.00776,-0.0116 -0.015522,-0.0349 -0.00776,-0.0233 -0.011642,-0.031 0,-0.0116 -0.00776,-0.0349 -0.00388,-0.0272 -0.00388,-0.031 -0.027164,-0.11642 -0.1552222,-0.18627 -0.1241778,-0.0737 -0.3065639,-0.0737 -0.1823861,0 -0.3104445,0.0854 -0.1280583,0.0854 -0.1280583,0.20955 0,0.13194 0.1280583,0.20567 0.1280584,0.0699 0.2988028,0.0931 0.1707444,0.0194 0.3802945,0.0776 0.20955,0.0543 0.3298472,0.15134 0.2289528,0.18239 0.2289528,0.48507 0,0.30268 -0.244475,0.48895 -0.244475,0.18627 -0.6441723,0.18627 -0.3220861,0 -0.6053667,-0.15134 -0.0776111,0.0931 -0.15522218,0.0931 -0.19790834,0 -0.19790834,-0.25612 v -0.25611 q 0,-0.12806 0.0426861,-0.19015 0.0426861,-0.066 0.15134167,-0.066 0.034925,0 0.0620889,0.008 0.0310444,0.008 0.0504471,0.0233 0.019403,0.0155 0.031044,0.031 0.015522,0.0116 0.023283,0.0349 0.011642,0.0233 0.015522,0.0349 0.00388,0.0116 0.00776,0.031 0.00776,0.0194 0.00776,0.0233 0.027164,0.10477 0.1862667,0.1785 0.1591028,0.0737 0.3531305,0.0737 0.2173111,0 0.3647723,-0.0854 0.1474611,-0.0854 0.1474611,-0.20955 0,-0.11642 -0.1164167,-0.18627 -0.1125361,-0.0699 -0.2638778,-0.0931 -0.1474611,-0.0233 -0.34925,-0.0699 -0.1979083,-0.0466 -0.3182055,-0.11254 -0.14746026,-0.0854 -0.23283248,-0.22895 -0.0853722,-0.14358 -0.0853722,-0.31044 0,-0.29493 0.24059358,-0.48895 0.2405945,-0.19791 0.6014862,-0.19791 0.2988027,0 0.5044725,0.12806 0.031044,-0.0737 0.062089,-0.1009 0.031044,-0.0272 0.089253,-0.0272 z"
         id="path1904"
         inkscape:connector-curvature="0" />
      <path
         d="m 4.4049695,175.37848 q 0.2561167,0 0.2561167,0.19403 0,0.19403 -0.2561167,0.19403 H 3.5085612 q -0.2561167,0 -0.2561167,-0.19403 0,-0.11253 0.06597,-0.15134 0.065969,-0.0427 0.1901472,-0.0427 h 0.2522361 v -1.48625 h -0.41522 v 0.36089 q 0,0.25612 -0.1940277,0.25612 -0.1940278,0 -0.1940278,-0.25612 v -0.74894 H 4.959889 v 0.74894 q 0,0.12418 -0.042686,0.19015 -0.038806,0.066 -0.1513417,0.066 -0.1940278,0 -0.1940278,-0.25612 v -0.36089 H 4.1488529 v 1.48625 z"
         id="path1906"
         inkscape:connector-curvature="0" />
      <path
         d="m 6.8482037,174.02417 q 0.1629833,0 0.3259667,0.1009 0.1629833,0.10089 0.1629833,0.22895 0,0.0815 -0.058208,0.1397 -0.058208,0.0582 -0.1358195,0.0582 -0.065969,0 -0.1513416,-0.0699 -0.085372,-0.0699 -0.1513417,-0.0699 -0.093133,0 -0.2289528,0.0854 -0.1319389,0.0815 -0.4113389,0.31044 v 0.57044 h 0.5393973 q 0.2599972,0 0.2599972,0.19403 0,0.19403 -0.2599972,0.19403 H 5.5870231 q -0.2561166,0 -0.2561166,-0.19403 0,-0.11253 0.065969,-0.15134 0.065969,-0.0427 0.1901472,-0.0427 H 5.812095 V 174.4587 H 5.6762759 q -0.2561167,0 -0.2561167,-0.19402 0,-0.19403 0.2561167,-0.19403 h 0.523875 v 0.25223 q 0.2328334,-0.17462 0.3686528,-0.23671 0.1358195,-0.0621 0.2794,-0.0621 z"
         id="path1908"
         inkscape:connector-curvature="0" />
      <path
         d="m 7.9953323,176.34862 q 0,-0.11253 0.06597,-0.15522 0.065969,-0.0388 0.1901472,-0.0388 H 8.67443 q 0.1707445,0 0.2677584,-0.0815 0.097014,-0.0815 0.097014,-0.22895 v -0.21343 q -0.2561167,0.19015 -0.5471584,0.19015 -0.3919361,0 -0.6558139,-0.25612 -0.2599972,-0.26 -0.2599972,-0.64417 0,-0.38806 0.2599972,-0.64417 0.2638778,-0.26 0.6558139,-0.26 0.3182056,0 0.5471584,0.19403 v -0.1397 h 0.4501444 q 0.2561167,0 0.2561167,0.19403 0,0.19402 -0.2561167,0.19402 h -0.062089 v 1.38536 q 0,0.30657 -0.2134305,0.50059 -0.20955,0.19791 -0.5277556,0.19791 H 8.251449 q -0.2561167,0 -0.2561167,-0.19403 z m 0.5044722,-1.94415 q -0.2211916,0 -0.3802944,0.15134 -0.1552222,0.14746 -0.1552222,0.36089 0,0.21343 0.1552222,0.36477 0.1591028,0.15134 0.3802944,0.15134 0.2211917,0 0.3802945,-0.14746 0.1591028,-0.15134 0.1591028,-0.36089 0,-0.21731 -0.1591028,-0.36865 -0.1552222,-0.15134 -0.3802945,-0.15134 z"
         id="path1910"
         inkscape:connector-curvature="0" />
    </g>
    <g
       aria-label="In"
       style="font-style:normal;font-variant:normal;font-weight:bold;font-stretch:normal;font-size:2.82222223px;line-height:1.25;font-family:FreeMono;-inkscape-font-specification:'FreeMono, Bold';font-variant-ligatures:normal;font-variant-caps:normal;font-variant-numeric:normal;font-feature-settings:normal;text-align:start;letter-spacing:0px;word-spacing:0px;writing-mode:lr-tb;text-anchor:start;fill:#ffffff;fill-opacity:1;stroke:none;stroke-width:0.26458332"
       id="text1862">
      <path
         d="m 4.3597852,180.71778 q 0.090311,0 0.1382889,0.031 0.047978,0.0282 0.047978,0.11007 0,0.14111 -0.1862666,0.14111 H 3.5074741 q -0.1862667,0 -0.1862667,-0.14111 0,-0.0819 0.047978,-0.11007 0.047978,-0.031 0.1382889,-0.031 h 0.2850444 v -1.08091 H 3.5074741 q -0.1862667,0 -0.1862667,-0.14111 0,-0.0819 0.047978,-0.11007 0.047978,-0.0311 0.1382889,-0.0311 h 0.8523111 q 0.090311,0 0.1382889,0.0311 0.047978,0.0282 0.047978,0.11007 0,0.14111 -0.1862666,0.14111 h -0.285045 v 1.08091 z"
         style="font-style:normal;font-variant:normal;font-weight:bold;font-stretch:normal;font-size:2.82222223px;font-family:FreeMono;-inkscape-font-specification:'FreeMono, Bold';font-variant-ligatures:normal;font-variant-caps:normal;font-variant-numeric:normal;font-feature-settings:normal;text-align:start;writing-mode:lr-tb;text-anchor:start;fill:#ffffff;fill-opacity:1;stroke-width:0.26458332"
         id="path1913"
         inkscape:connector-curvature="0" />
      <path
         d="m 5.0303717,181 q -0.1862667,0 -0.1862667,-0.14111 0,-0.14111 0.1862667,-0.14111 h 0.016933 v -0.66887 q -0.1721556,-0.006 -0.1721556,-0.14111 0,-0.14111 0.1890889,-0.14111 h 0.2652889 v 0.13547 q 0.1016,-0.096 0.1862667,-0.13265 0.084667,-0.0395 0.2003778,-0.0395 0.2201333,0 0.3612444,0.12418 0.1411111,0.12418 0.1411111,0.34995 v 0.51365 q 0.1721556,0 0.1721556,0.14111 0,0.14111 -0.1862667,0.14111 H 5.9532383 q -0.1890889,0 -0.1890889,-0.14111 0,-0.14111 0.1721556,-0.14111 v -0.50236 q 0,-0.2032 -0.254,-0.2032 -0.098778,0 -0.1778,0.0423 -0.0762,0.0423 -0.1749778,0.14957 v 0.51365 h 0.016933 q 0.1862667,0 0.1862667,0.14111 0,0.14111 -0.1862667,0.14111 z"
         style="font-style:normal;font-variant:normal;font-weight:bold;font-stretch:normal;font-size:2.82222223px;font-family:FreeMono;-inkscape-font-specification:'FreeMono, Bold';font-variant-ligatures:normal;font-variant-caps:normal;font-variant-numeric:normal;font-feature-settings:normal;text-align:start;writing-mode:lr-tb;text-anchor:start;fill:#ffffff;fill-opacity:1;stroke-width:0.26458332"
         id="path1915"
         inkscape:connector-curvature="0" />
    </g>
    <g
       aria-label="High"
       style="font-style:normal;font-variant:normal;font-weight:bold;font-stretch:normal;font-size:2.82222223px;line-height:1.25;font-family:FreeMono;-inkscape-font-specification:'FreeMono, Bold';font-variant-ligatures:normal;font-variant-caps:normal;font-variant-numeric:normal;font-feature-settings:normal;text-align:start;letter-spacing:0px;word-spacing:0px;writing-mode:lr-tb;text-anchor:start;fill:#ffffff;fill-opacity:1;stroke:none;stroke-width:0.26458332"
       id="text1862-8">
      <path
         d="m 2.9912024,192.43556 q -0.1862667,0 -0.1862667,-0.14111 0,-0.14111 0.1862667,-0.14111 h 0.042333 v -0.39793 H 2.4295802 v 0.39793 h 0.042333 q 0.1862667,0 0.1862667,0.14111 0,0.14111 -0.1862667,0.14111 H 2.1304246 q -0.1862667,0 -0.1862667,-0.14111 0,-0.0818 0.047978,-0.11007 0.047978,-0.031 0.1382889,-0.031 h 0.016933 v -1.08091 q -0.1467555,-0.0141 -0.1467555,-0.14111 0,-0.0819 0.047978,-0.11007 0.047978,-0.031 0.1382889,-0.031 h 0.2850444 q 0.1862667,0 0.1862667,0.14111 0,0.14111 -0.1862667,0.14111 h -0.042333 v 0.40075 h 0.6039555 v -0.40075 h -0.042333 q -0.1862667,0 -0.1862667,-0.14111 0,-0.0819 0.047978,-0.11007 0.047978,-0.031 0.1382889,-0.031 h 0.2850444 q 0.1862667,0 0.1862667,0.14111 0,0.127 -0.1467556,0.14111 v 1.08091 h 0.016933 q 0.1862666,0 0.1862666,0.14111 0,0.14111 -0.1862666,0.14111 z"
         id="path1918"
         inkscape:connector-curvature="0" />
      <path
         d="m 4.9035667,192.15334 q 0.1862666,0 0.1862666,0.14111 0,0.14111 -0.1862666,0.14111 H 3.9327222 q -0.1862667,0 -0.1862667,-0.14111 0,-0.0818 0.047978,-0.11007 0.047978,-0.031 0.1382889,-0.031 h 0.3443111 v -0.66887 H 4.0569 q -0.1890889,0 -0.1890889,-0.14111 0,-0.0847 0.047978,-0.11289 0.0508,-0.0282 0.1411111,-0.0282 h 0.5023556 v 0.95109 z m -0.3838223,-1.47602 v 0.29633 H 4.1867222 v -0.29633 z"
         id="path1920"
         inkscape:connector-curvature="0" />
      <path
         d="m 5.661642,192.8589 q 0,-0.0819 0.047978,-0.11289 0.047978,-0.0282 0.1382889,-0.0282 h 0.3076222 q 0.1241778,0 0.1947334,-0.0593 0.070556,-0.0593 0.070556,-0.16651 v -0.15523 q -0.1862666,0.13829 -0.3979333,0.13829 -0.2850445,0 -0.4769556,-0.18626 -0.1890889,-0.18909 -0.1890889,-0.46849 0,-0.28222 0.1890889,-0.46849 0.1919111,-0.18909 0.4769556,-0.18909 0.2314222,0 0.3979333,0.14111 v -0.1016 h 0.3273778 q 0.1862667,0 0.1862667,0.14111 0,0.14111 -0.1862667,0.14111 H 6.703042 v 1.00754 q 0,0.22295 -0.1552222,0.36406 Q 6.3954198,193 6.1639976,193 H 5.8479087 Q 5.661642,193 5.661642,192.85889 Z m 0.3668889,-1.41394 q -0.1608666,0 -0.2765777,0.11007 -0.1128889,0.10724 -0.1128889,0.26247 0,0.15522 0.1128889,0.26528 0.1157111,0.11007 0.2765777,0.11007 0.1608667,0 0.2765778,-0.10724 0.1157111,-0.11007 0.1157111,-0.26247 0,-0.15804 -0.1157111,-0.26811 -0.1128889,-0.11007 -0.2765778,-0.11007 z"
         id="path1922"
         inkscape:connector-curvature="0" />
      <path
         d="m 6.9926283,190.81843 q 0,-0.14111 0.1862667,-0.14111 h 0.3273777 v 0.6604 q 0.1693334,-0.17216 0.3866445,-0.17216 0.2257778,0 0.3612444,0.12982 0.1382889,0.127 0.1382889,0.33867 v 0.51929 h 0.016933 q 0.1862666,0 0.1862666,0.14111 0,0.14111 -0.1862666,0.14111 H 8.093295 q -0.1890889,0 -0.1890889,-0.14111 0,-0.14111 0.1890889,-0.14111 h 0.016933 v -0.4826 q 0,-0.10724 -0.0508,-0.16369 -0.047978,-0.0593 -0.1975556,-0.0593 -0.098778,0 -0.1665111,0.0367 -0.067733,0.0367 -0.1890889,0.1524 v 0.51647 h 0.016933 q 0.1890889,0 0.1890889,0.14111 0,0.14111 -0.1890889,0.14111 H 7.2071172 q -0.1862667,0 -0.1862667,-0.14111 0,-0.14111 0.1862667,-0.14111 h 0.016933 v -1.1938 H 7.178895 q -0.090311,0 -0.1382889,-0.0282 -0.047978,-0.031 -0.047978,-0.11289 z"
         id="path1924"
         inkscape:connector-curvature="0" />
    </g>
    <g
       aria-label="Low"
       style="font-style:normal;font-variant:normal;font-weight:bold;font-stretch:normal;font-size:2.82222223px;line-height:1.25;font-family:FreeMono;-inkscape-font-specification:'FreeMono, Bold';font-variant-ligatures:normal;font-variant-caps:normal;font-variant-numeric:normal;font-feature-settings:normal;text-align:start;letter-spacing:0px;word-spacing:0px;writing-mode:lr-tb;text-anchor:start;fill:#ffffff;fill-opacity:1;stroke:none;stroke-width:0.26458332"
       id="text1862-8-3"
       transform="translate(0,12.51928)">
      <path
         d="m 4.0052918,203.70461 q 0.081844,0 0.1100667,0.048 0.031044,0.048 0.031044,0.14112 v 0.54186 H 2.814314 q -0.1862666,0 -0.1862666,-0.14111 0,-0.0818 0.047978,-0.11007 0.047978,-0.031 0.1382889,-0.031 H 2.975181 V 203.0725 H 2.814314 q -0.1862666,0 -0.1862666,-0.14111 0,-0.0819 0.047978,-0.11007 0.047978,-0.031 0.1382889,-0.031 h 0.6039556 q 0.1862666,0 0.1862666,0.14111 0,0.14111 -0.1862666,0.14111 h -0.160867 v 1.08091 h 0.6067778 v -0.25964 q 0,-0.18909 0.1411111,-0.18909 z"
         id="path1927"
         inkscape:connector-curvature="0" />
      <path
         d="m 5.0822783,203.16556 q 0.2991555,0 0.508,0.19191 0.2116667,0.19191 0.2116667,0.46567 0,0.27658 -0.2116667,0.46849 -0.2116667,0.18909 -0.5164667,0.18909 -0.3048,0 -0.5164666,-0.18909 -0.2116667,-0.19191 -0.2116667,-0.46849 0,-0.2794 0.2116667,-0.46849 0.2116666,-0.18909 0.5249333,-0.18909 z m -0.00282,0.28222 q -0.1919111,0 -0.3217334,0.10725 -0.1298222,0.10724 -0.1298222,0.26811 0,0.15804 0.127,0.26811 0.1298222,0.10725 0.3189111,0.10725 0.1890889,0 0.3160889,-0.10725 0.1298222,-0.11007 0.1298222,-0.26811 0,-0.15804 -0.1298222,-0.26529 -0.127,-0.11007 -0.3104444,-0.11007 z"
         id="path1929"
         inkscape:connector-curvature="0" />
      <path
         d="m 7.1639759,203.48165 q -0.1862667,0 -0.1862667,-0.13829 0,-0.14111 0.1862667,-0.14111 h 0.2624667 q 0.1862666,0 0.1862666,0.14111 0,0.12982 -0.1467555,0.13829 L 7.228887,204.43556 H 6.9692426 l -0.2003778,-0.51082 -0.1919111,0.51082 H 6.3116648 l -0.2398889,-0.95391 q -0.073378,-0.006 -0.1128889,-0.0395 -0.039511,-0.0367 -0.039511,-0.0988 0,-0.14111 0.1862667,-0.14111 H 6.365287 q 0.090311,0 0.1382889,0.0311 0.047978,0.0282 0.047978,0.11006 0,0.13829 -0.1806222,0.13829 l 0.1100666,0.4318 0.1693334,-0.44591 H 6.898687 l 0.1721556,0.44591 0.1128889,-0.4318 z"
         id="path1931"
         inkscape:connector-curvature="0" />
    </g>
    <text
       xml:space="preserve"
       style="font-style:normal;font-weight:normal;font-size:2.82222223px;line-height:1.25;font-family:sans-serif;letter-spacing:0px;word-spacing:0px;fill:#000000;fill-opacity:1;stroke:none;stroke-width:0.26458332"
       x="-79.232048"
       y="202.05251"
       id="text1936"><tspan
         sodipodi:role="line"
         id="tspan1934"
         x="-79.232048"
         y="204.54951"
         style="stroke-width:0.26458332"></tspan></text>
    <path
       style="fill:none;stroke:#ffffff;stroke-width:0.26499999;stroke-linecap:butt;stroke-linejoin:miter;stroke-miterlimit:4;stroke-dasharray:none;stroke-opacity:1"
       d="m 5.051394,194.84959 c 0,15.43481 0,15.43481 0,15.43481"
       id="path2653"
       inkscape:connector-curvature="0" />
    <path
       style="fill:none;stroke:#ffffff;stroke-width:0.26499999;stroke-linecap:butt;stroke-linejoin:miter;stroke-miterlimit:4;stroke-dasharray:none;stroke-opacity:1"
       d="m 5.2384828,219.21789 c 0,15.43481 0,15.43481 0,15.43481"
       id="path2653-5"
       inkscape:connector-curvature="0" />
  </g>
  <g
     inkscape:groupmode="layer"
     id="layer5"
     inkscape:label="components"
     style="display:none" />
</svg>
